<svg width="1440" height="288" viewBox="0 0 1440 288" fill="none" xmlns="http://www.w3.org/2000/svg">
<g clip-path="url(#clip0_416_5049)">
<rect y="15" width="1440" height="273" fill="#20AC58"/>
<path d="M1203.88 91.8403L1263.7 91.8403V76H1203.88V91.8403Z" fill="#E9E9E9"/>
<path d="M1206.41 88.2559H1261.19V77.9968H1206.41V88.2559Z" fill="#375A64"/>
<path d="M1206.41 88.2559H1261.19V77.9968H1206.41V88.2559Z" fill="#76798E"/>
<path d="M1196 284.116H1272.84V89.5098H1196V284.116Z" fill="#E9E9E9"/>
<path d="M1200.59 284.122H1268.71V94.0209H1200.59V284.122Z" fill="#4F5164"/>
<path d="M1268.72 183.171H1254.92V161.738H1243.81V144.407H1221.58V199.052H1210.47V121.576H1200.6V94.0151H1268.72V183.171Z" fill="#76798E"/>
<path d="M1197.46 114.016C1197.46 114.171 1213.79 114.303 1233.93 114.303C1254.07 114.303 1270.4 114.177 1270.4 114.016C1270.4 113.855 1254.07 113.728 1233.93 113.728C1213.78 113.728 1197.46 113.855 1197.46 114.016Z" fill="#1A2E35"/>
<path d="M1197.46 133.521C1197.46 133.676 1213.79 133.809 1233.93 133.809C1254.07 133.809 1270.4 133.682 1270.4 133.521C1270.4 133.36 1254.07 133.233 1233.93 133.233C1213.78 133.233 1197.46 133.36 1197.46 133.521Z" fill="#1A2E35"/>
<path d="M1197.46 153.026C1197.46 153.182 1213.79 153.314 1233.93 153.314C1254.07 153.314 1270.4 153.188 1270.4 153.026C1270.4 152.865 1254.07 152.739 1233.93 152.739C1213.78 152.739 1197.46 152.865 1197.46 153.026Z" fill="#1A2E35"/>
<path d="M1197.46 172.526C1197.46 172.682 1213.79 172.814 1233.93 172.814C1254.07 172.814 1270.4 172.688 1270.4 172.526C1270.4 172.365 1254.07 172.239 1233.93 172.239C1213.78 172.239 1197.46 172.365 1197.46 172.526Z" fill="#1A2E35"/>
<path d="M1197.46 192.032C1197.46 192.187 1213.79 192.32 1233.93 192.32C1254.07 192.32 1270.4 192.193 1270.4 192.032C1270.4 191.871 1254.07 191.744 1233.93 191.744C1213.78 191.744 1197.46 191.871 1197.46 192.032Z" fill="#1A2E35"/>
<path d="M1197.46 211.532C1197.46 211.687 1213.79 211.82 1233.93 211.82C1254.07 211.82 1270.4 211.693 1270.4 211.532C1270.4 211.371 1254.07 211.244 1233.93 211.244C1213.78 211.244 1197.46 211.371 1197.46 211.532Z" fill="#1A2E35"/>
<path d="M1197.46 231.037C1197.46 231.193 1213.79 231.325 1233.93 231.325C1254.07 231.325 1270.4 231.198 1270.4 231.037C1270.4 230.876 1254.07 230.75 1233.93 230.75C1213.78 230.75 1197.46 230.876 1197.46 231.037Z" fill="#1A2E35"/>
<path d="M1197.46 250.537C1197.46 250.693 1213.79 250.825 1233.93 250.825C1254.07 250.825 1270.4 250.698 1270.4 250.537C1270.4 250.376 1254.07 250.25 1233.93 250.25C1213.78 250.25 1197.46 250.376 1197.46 250.537Z" fill="#1A2E35"/>
<path d="M1197.46 270.043C1197.46 270.198 1213.79 270.33 1233.93 270.33C1254.07 270.33 1270.4 270.204 1270.4 270.043C1270.4 269.881 1254.07 269.755 1233.93 269.755C1213.78 269.755 1197.46 269.881 1197.46 270.043Z" fill="#1A2E35"/>
<path d="M1253.21 288.179C1253.37 288.179 1253.5 240.939 1253.5 182.676C1253.5 124.413 1253.37 77.1621 1253.21 77.1621C1253.05 77.1621 1252.92 124.395 1252.92 182.676C1252.92 240.957 1253.05 288.179 1253.21 288.179Z" fill="#1A2E35"/>
<path d="M1233.44 288.179C1233.59 288.179 1233.73 240.939 1233.73 182.676C1233.73 124.413 1233.6 77.1621 1233.44 77.1621C1233.28 77.1621 1233.15 124.395 1233.15 182.676C1233.15 240.957 1233.28 288.179 1233.44 288.179Z" fill="#1A2E35"/>
<path d="M1213.67 288.179C1213.83 288.179 1213.96 240.939 1213.96 182.676C1213.96 124.413 1213.83 77.1621 1213.67 77.1621C1213.51 77.1621 1213.38 124.395 1213.38 182.676C1213.38 240.957 1213.51 288.179 1213.67 288.179Z" fill="#1A2E35"/>
<path d="M1263.7 89.5156H1272.36V75.9998H1263.7V89.5156Z" fill="#1A2E35"/>
<path d="M1272.36 76H1263.7V89.5158H1272.36V76Z" fill="#A4A4A4"/>
<path d="M1272.46 284.116H1281.11V89.6306H1272.46V284.116Z" fill="#1A2E35"/>
<path d="M1281.12 89.6367H1272.46V284.122H1281.12V89.6367Z" fill="#A4A4A4"/>
<path d="M1180.54 131H1123V288.032H1180.54V131Z" fill="#E9E9E9"/>
<path d="M1209.92 131H1180.54V288.032H1209.92V131Z" fill="#E9E9E9"/>
<path d="M1172.04 146.243H1160.21V162.254H1172.04V146.243Z" fill="#4F5164"/>
<g opacity="0.3">
<path d="M1172.04 146.243V148.23H1162.2V162.261H1160.21V146.243H1172.04Z" fill="black"/>
</g>
<path d="M1159.52 165.512H1172.04V162.254H1159.52V165.512Z" fill="white"/>
<path d="M1159.52 146.15H1172.04V142.893H1159.52V146.15Z" fill="white"/>
<path d="M1132.93 165.512H1145.46V162.254H1132.93V165.512Z" fill="white"/>
<path d="M1132.93 146.15H1145.46V142.893H1132.93V146.15Z" fill="white"/>
<path d="M1145.46 146.243H1133.62V162.254H1145.46V146.243Z" fill="#4F5164"/>
<g opacity="0.3">
<path d="M1145.46 146.243V148.23H1135.62V162.261H1133.62V146.243H1145.46Z" fill="black"/>
</g>
<path d="M1172.04 175.948H1160.21V191.959H1172.04V175.948Z" fill="#4F5164"/>
<g opacity="0.3">
<path d="M1172.04 175.948V177.934H1162.2V191.959H1160.21V175.948H1172.04Z" fill="black"/>
</g>
<path d="M1159.52 195.216H1172.04V191.958H1159.52V195.216Z" fill="white"/>
<path d="M1159.52 175.848H1172.04V172.59H1159.52V175.848Z" fill="white"/>
<path d="M1132.93 195.216H1145.46V191.958H1132.93V195.216Z" fill="white"/>
<path d="M1132.93 175.848H1145.46V172.59H1132.93V175.848Z" fill="white"/>
<path d="M1145.46 175.948H1133.62V191.959H1145.46V175.948Z" fill="#4F5164"/>
<g opacity="0.3">
<path d="M1145.46 175.948V177.934H1135.62V191.959H1133.62V175.948H1145.46Z" fill="black"/>
</g>
<path d="M1172.04 206.698H1160.21V222.709H1172.04V206.698Z" fill="#4F5164"/>
<g opacity="0.3">
<path d="M1172.04 206.698V208.685H1162.2V222.716H1160.21V206.698H1172.04Z" fill="black"/>
</g>
<path d="M1159.52 225.967H1172.04V222.709H1159.52V225.967Z" fill="white"/>
<path d="M1159.52 206.605H1172.04V203.348H1159.52V206.605Z" fill="white"/>
<path d="M1132.93 225.967H1145.46V222.709H1132.93V225.967Z" fill="white"/>
<path d="M1132.93 206.605H1145.46V203.348H1132.93V206.605Z" fill="white"/>
<path d="M1145.46 206.698H1133.62V222.709H1145.46V206.698Z" fill="#4F5164"/>
<g opacity="0.3">
<path d="M1145.46 206.698V208.685H1135.62V222.716H1133.62V206.698H1145.46Z" fill="black"/>
</g>
<path d="M1172.04 237.244H1160.21V253.255H1172.04V237.244Z" fill="#4F5164"/>
<g opacity="0.3">
<path d="M1172.04 237.244V239.224H1162.2V253.255H1160.21V237.244H1172.04Z" fill="black"/>
</g>
<path d="M1159.52 256.513H1172.04V253.255H1159.52V256.513Z" fill="white"/>
<path d="M1159.52 237.145H1172.04V233.887H1159.52V237.145Z" fill="white"/>
<path d="M1132.93 256.513H1145.46V253.255H1132.93V256.513Z" fill="white"/>
<path d="M1132.93 237.145H1145.46V233.887H1132.93V237.145Z" fill="white"/>
<path d="M1145.46 237.244H1133.62V253.255H1145.46V237.244Z" fill="#4F5164"/>
<g opacity="0.3">
<path d="M1145.46 237.244V239.224H1135.62V253.255H1133.62V237.244H1145.46Z" fill="black"/>
</g>
<path d="M1192.4 145.72H1188.25V161.731H1192.4V145.72Z" fill="#4F5164"/>
<path d="M1187.67 164.147H1195.24V161.737H1187.67V164.147Z" fill="white"/>
<path d="M1203.49 145.72H1199.34V161.731H1203.49V145.72Z" fill="#4F5164"/>
<path d="M1198.76 164.147H1206.33V161.737H1198.76V164.147Z" fill="white"/>
<path d="M1192.4 176.226H1188.25V192.237H1192.4V176.226Z" fill="#4F5164"/>
<path d="M1187.67 194.653H1195.24V192.243H1187.67V194.653Z" fill="white"/>
<path d="M1203.49 176.226H1199.34V192.237H1203.49V176.226Z" fill="#4F5164"/>
<path d="M1198.76 194.653H1206.33V192.243H1198.76V194.653Z" fill="white"/>
<path d="M1192.4 206.738H1188.25V222.749H1192.4V206.738Z" fill="#4F5164"/>
<path d="M1187.67 225.16H1195.24V222.749H1187.67V225.16Z" fill="white"/>
<path d="M1199.35 222.75H1203.49V206.738H1199.35V222.75Z" fill="#4F5164"/>
<path d="M1198.76 225.16H1206.33V222.749H1198.76V225.16Z" fill="white"/>
<path d="M1172.04 262.757H1160.21V288.032H1172.04V262.757Z" fill="#4F5164"/>
<g opacity="0.3">
<path d="M1172.04 262.757V264.651H1162.2V288.025H1160.21V262.757H1172.04Z" fill="black"/>
</g>
<path d="M1145.11 262.757H1133.27V288.032H1145.11V262.757Z" fill="#4F5164"/>
<g opacity="0.3">
<path d="M1145.11 262.757V264.651H1135.27V288.025H1133.27V262.757H1145.11Z" fill="black"/>
</g>
<path d="M1192.4 237.244H1188.25V253.255H1192.4V237.244Z" fill="#4F5164"/>
<path d="M1187.67 255.671H1195.24V253.261H1187.67V255.671Z" fill="white"/>
<path d="M1203.49 237.244H1199.34V253.255H1203.49V237.244Z" fill="#4F5164"/>
<path d="M1198.76 255.671H1206.33V253.261H1198.76V255.671Z" fill="white"/>
<path d="M1192.4 264.055H1188.25V280.066H1192.4V264.055Z" fill="#4F5164"/>
<path d="M1187.67 282.482H1195.24V280.072H1187.67V282.482Z" fill="white"/>
<path d="M1203.49 264.055H1199.34V280.066H1203.49V264.055Z" fill="#4F5164"/>
<path d="M1198.76 282.482H1206.33V280.072H1198.76V282.482Z" fill="white"/>
<g opacity="0.3">
<path d="M1209.92 131H1179.7V288.032H1209.92V131Z" fill="black"/>
</g>
<path d="M1392.51 177.867C1393.11 203.637 1372.71 225.006 1346.94 225.601C1344.85 225.646 1342.8 225.555 1340.77 225.336C1332.67 235.513 1320.28 242.156 1306.25 242.485C1284.59 242.989 1266.11 228.25 1261.09 208.076C1260.28 204.865 1259.83 201.524 1259.75 198.086C1259.5 187.23 1263.07 177.189 1269.23 169.228C1266.23 167.27 1263.6 164.763 1261.52 161.835C1258.35 157.377 1256.43 151.962 1256.3 146.088C1255.98 132.447 1265.36 120.848 1278.13 117.85C1278.24 95.6987 1295.95 77.5281 1318.23 77.0112C1340.91 76.4877 1359.72 94.4451 1360.25 117.12C1360.29 118.709 1360.23 120.286 1360.08 121.837C1359.71 125.985 1358.7 129.959 1357.18 133.668C1368.5 136.486 1378.21 143.458 1384.58 152.899C1389.4 160.046 1392.29 168.607 1392.51 177.861L1392.51 177.867Z" fill="#5AD68C"/>
<path d="M1369.55 124.357C1369.62 127.51 1367.12 130.127 1363.96 130.205C1363.63 130.212 1363.29 130.192 1362.98 130.14C1362.91 129.824 1362.88 129.494 1362.87 129.158C1362.79 125.998 1365.29 123.381 1368.45 123.31C1368.78 123.304 1369.11 123.323 1369.44 123.375C1369.5 123.692 1369.54 124.021 1369.55 124.357Z" fill="#1DCF65"/>
<path d="M1301.94 160.608C1298.97 161.661 1295.7 160.104 1294.65 157.125C1294.54 156.808 1294.45 156.485 1294.4 156.162C1294.69 156.001 1294.98 155.865 1295.3 155.755C1298.28 154.702 1301.54 156.259 1302.6 159.232C1302.71 159.548 1302.79 159.871 1302.84 160.188C1302.56 160.349 1302.26 160.485 1301.94 160.601V160.608Z" fill="#247C48"/>
<path d="M1339.12 116.086C1337.22 113.566 1337.72 109.979 1340.24 108.08C1340.51 107.879 1340.79 107.698 1341.08 107.556C1341.32 107.776 1341.54 108.021 1341.74 108.293C1343.64 110.813 1343.14 114.399 1340.62 116.299C1340.35 116.499 1340.07 116.68 1339.78 116.822C1339.54 116.603 1339.32 116.357 1339.11 116.086H1339.12Z" fill="#247C48"/>
<path d="M1354.81 181.654C1355.68 178.624 1358.85 176.866 1361.88 177.738C1362.2 177.829 1362.51 177.952 1362.8 178.094C1362.77 178.417 1362.7 178.74 1362.61 179.063C1361.74 182.1 1358.58 183.851 1355.54 182.979C1355.22 182.888 1354.91 182.766 1354.62 182.623C1354.65 182.3 1354.72 181.971 1354.81 181.654Z" fill="#247C48"/>
<path d="M1271.88 108.965C1274.99 109.456 1277.12 112.383 1276.63 115.498C1276.58 115.834 1276.5 116.157 1276.39 116.461C1276.07 116.461 1275.74 116.441 1275.41 116.389C1272.29 115.898 1270.16 112.971 1270.66 109.857C1270.71 109.521 1270.79 109.204 1270.89 108.894C1271.22 108.887 1271.55 108.907 1271.88 108.958L1271.88 108.965Z" fill="#28D16C"/>
<path d="M1392.51 177.867C1393.11 203.637 1372.71 225.006 1346.94 225.601C1344.85 225.646 1342.8 225.555 1340.77 225.336C1332.67 235.513 1320.28 242.156 1306.25 242.485C1284.59 242.989 1266.11 228.25 1261.09 208.076C1268.13 221.737 1323.71 239.784 1342.01 203.954C1364.12 209.886 1394.86 190.28 1384.59 152.905C1389.41 160.052 1392.31 168.614 1392.52 177.867H1392.51Z" fill="#208046"/>
<path d="M1360.09 121.837C1359.71 125.985 1358.71 129.959 1357.19 133.669L1341.03 138.172L1360.09 121.837Z" fill="#208046"/>
<path d="M1330.94 287.854L1317.33 288.171L1318.37 110.193L1330.94 287.854Z" fill="#353535"/>
<path d="M1318.82 208.057L1279.48 177.661L1319.57 216.755L1318.82 208.057Z" fill="#353535"/>
<path d="M1322.76 198.118L1358.05 151.781L1322.51 187.308L1322.76 198.118Z" fill="#353535"/>
<path d="M1318.62 143.982L1309.32 129.843L1318.84 139.362L1318.62 143.982Z" fill="#353535"/>
<path d="M1280.06 164.963L1269.23 169.221C1266.22 167.263 1263.59 164.756 1261.51 161.829L1280.06 164.963H1280.06Z" fill="#208046"/>
<path d="M1211.64 288.104H1336.62V222H1211.64V288.104Z" fill="#E9E9E9"/>
<path d="M1209 228.178L1338.2 228.178V222L1209 222V228.178Z" fill="#4F5164"/>
<path d="M1314.67 275.9H1319.88V238.177H1314.67V275.9Z" fill="#4F5164"/>
<path d="M1324.73 275.9H1329.95V238.177H1324.73V275.9Z" fill="#4F5164"/>
<path d="M1211.64 288.104H1336.62V275.787H1211.64V288.104Z" fill="white"/>
<path d="M1282.91 288.104H1295.36V261.173H1282.91V288.104Z" fill="#4F5164"/>
<path d="M1287.97 249.553H1295.35V240.051H1287.97V249.553Z" fill="#4F5164"/>
<g opacity="0.3">
<path d="M1295.35 240.044V241.223H1289.22V249.546H1287.98V240.044H1295.35Z" fill="black"/>
</g>
<path d="M1266.77 249.553H1274.15V240.051H1266.77V249.553Z" fill="#4F5164"/>
<g opacity="0.3">
<path d="M1274.15 240.044V241.223H1268.01V249.546H1266.77V240.044H1274.15Z" fill="black"/>
</g>
<path d="M1244.06 249.553H1251.44V240.051H1244.06V249.553Z" fill="#4F5164"/>
<g opacity="0.3">
<path d="M1251.44 240.044V241.223H1245.31V249.546H1244.06V240.044H1251.44Z" fill="black"/>
</g>
<path d="M1221.36 249.553H1228.74V240.051H1221.36V249.553Z" fill="#4F5164"/>
<g opacity="0.3">
<path d="M1228.74 240.044V241.223H1222.6V249.546H1221.36V240.044H1228.74Z" fill="black"/>
</g>
<path d="M1266.77 266.537H1274.15V257.035H1266.77V266.537Z" fill="#4F5164"/>
<g opacity="0.3">
<path d="M1274.15 257.035V258.214H1268.01V266.537H1266.77V257.035H1274.15Z" fill="black"/>
</g>
<path d="M1244.06 266.537H1251.44V257.035H1244.06V266.537Z" fill="#4F5164"/>
<g opacity="0.3">
<path d="M1251.44 257.035V258.214H1245.31V266.537H1244.06V257.035H1251.44Z" fill="black"/>
</g>
<path d="M1221.36 266.537H1228.74V257.035H1221.36V266.537Z" fill="#4F5164"/>
<g opacity="0.3">
<path d="M1228.74 257.035V258.214H1222.6V266.537H1221.36V257.035H1228.74Z" fill="black"/>
</g>
<g opacity="0.3">
<path d="M1303.3 288.104H1336.62V228.178H1303.3V288.104Z" fill="black"/>
</g>
<path d="M1168.01 213.912C1167.6 231.261 1181.35 245.65 1198.69 246.047C1200.1 246.08 1201.48 246.02 1202.84 245.868C1208.3 252.721 1216.64 257.198 1226.09 257.416C1240.67 257.754 1253.11 247.835 1256.5 234.247C1257.04 232.088 1257.34 229.837 1257.4 227.52C1257.57 220.209 1255.16 213.449 1251.01 208.092C1253.04 206.774 1254.81 205.086 1256.2 203.112C1258.34 200.113 1259.63 196.471 1259.72 192.518C1259.93 183.334 1253.62 175.527 1245.02 173.507C1244.95 158.595 1233.02 146.358 1218.01 146.007C1202.74 145.657 1190.08 157.748 1189.72 173.01C1189.7 174.083 1189.74 175.143 1189.84 176.189C1190.09 178.983 1190.76 181.658 1191.79 184.155C1184.17 186.055 1177.62 190.75 1173.34 197.1C1170.09 201.914 1168.15 207.675 1168 213.906L1168.01 213.912Z" fill="#28D16C"/>
<path d="M1183.47 177.89C1183.43 180.016 1185.11 181.777 1187.23 181.824C1187.45 181.824 1187.68 181.817 1187.9 181.777C1187.94 181.565 1187.96 181.34 1187.97 181.115C1188.01 178.99 1186.33 177.228 1184.21 177.175C1183.99 177.175 1183.76 177.182 1183.55 177.222C1183.5 177.434 1183.48 177.659 1183.48 177.884L1183.47 177.89Z" fill="#247C48"/>
<path d="M1228.99 202.291C1230.99 203 1233.19 201.954 1233.9 199.947C1233.97 199.735 1234.03 199.517 1234.07 199.298C1233.87 199.192 1233.68 199.1 1233.46 199.027C1231.46 198.318 1229.26 199.364 1228.55 201.371C1228.48 201.583 1228.42 201.801 1228.38 202.013C1228.58 202.126 1228.77 202.212 1228.99 202.291Z" fill="#247C48"/>
<path d="M1203.96 172.322C1205.24 170.627 1204.9 168.21 1203.21 166.932C1203.03 166.793 1202.84 166.674 1202.64 166.581C1202.48 166.727 1202.33 166.892 1202.19 167.078C1200.91 168.779 1201.25 171.19 1202.95 172.468C1203.13 172.607 1203.32 172.719 1203.51 172.819C1203.67 172.673 1203.82 172.507 1203.95 172.322H1203.96Z" fill="#247C48"/>
<path d="M1193.39 216.461C1192.8 214.422 1190.67 213.237 1188.63 213.826C1188.41 213.886 1188.2 213.972 1188.01 214.064C1188.03 214.283 1188.07 214.502 1188.13 214.713C1188.72 216.759 1190.86 217.938 1192.9 217.349C1193.11 217.289 1193.32 217.21 1193.52 217.11C1193.5 216.892 1193.45 216.673 1193.39 216.455V216.461Z" fill="#247C48"/>
<path d="M1249.23 167.521C1247.13 167.852 1245.69 169.819 1246.03 171.918C1246.06 172.143 1246.11 172.362 1246.18 172.567C1246.4 172.567 1246.62 172.554 1246.85 172.521C1248.95 172.189 1250.38 170.223 1250.05 168.117C1250.02 167.892 1249.97 167.68 1249.89 167.468C1249.67 167.468 1249.45 167.482 1249.23 167.515V167.521Z" fill="#247C48"/>
<path d="M1168.01 213.912C1167.6 231.261 1181.35 245.65 1198.69 246.047C1200.1 246.08 1201.48 246.02 1202.84 245.868C1208.3 252.721 1216.64 257.198 1226.09 257.416C1240.67 257.754 1253.11 247.835 1256.5 234.247C1251.76 243.445 1214.34 255.595 1202.01 231.473C1187.13 235.465 1166.43 222.269 1173.35 197.106C1170.1 201.92 1168.15 207.681 1168.01 213.912Z" fill="#247C48"/>
<path d="M1189.84 176.189C1190.09 178.983 1190.77 181.658 1191.8 184.155L1202.68 187.187L1189.85 176.189H1189.84Z" fill="#247C48"/>
<path d="M1209.46 287.961L1218.63 288.173L1217.93 168.349L1209.46 287.961Z" fill="#353535"/>
<path d="M1217.63 234.24L1244.11 213.773L1217.12 240.094L1217.63 234.24Z" fill="#353535"/>
<path d="M1214.97 227.546L1191.21 196.352L1215.14 220.269L1214.97 227.546Z" fill="#353535"/>
<path d="M1217.76 191.1L1224.03 181.579L1217.62 187.988L1217.76 191.1Z" fill="#353535"/>
<path d="M1243.72 205.225L1251.02 208.092C1253.05 206.774 1254.81 205.086 1256.21 203.112L1243.72 205.225Z" fill="#247C48"/>
<path d="M1143.38 213.655C1143.78 231.004 1130.04 245.393 1112.7 245.79C1111.29 245.823 1109.9 245.763 1108.55 245.611C1103.09 252.465 1094.75 256.941 1085.3 257.159C1070.72 257.497 1058.28 247.578 1054.89 233.99C1054.35 231.832 1054.05 229.58 1053.99 227.263C1053.82 219.952 1056.23 213.192 1060.38 207.835C1058.35 206.517 1056.58 204.829 1055.18 202.855C1053.05 199.856 1051.76 196.214 1051.67 192.261C1051.46 183.077 1057.77 175.27 1066.37 173.25C1066.44 158.338 1078.37 146.102 1093.38 145.751C1108.65 145.4 1121.31 157.491 1121.67 172.754C1121.69 173.826 1121.65 174.886 1121.55 175.932C1121.3 178.726 1120.63 181.401 1119.6 183.898C1127.22 185.798 1133.77 190.493 1138.05 196.843C1141.29 201.657 1143.24 207.418 1143.39 213.649L1143.38 213.655Z" fill="#28D16C"/>
<path d="M1127.92 177.634C1127.96 179.759 1126.28 181.52 1124.16 181.567C1123.94 181.567 1123.71 181.56 1123.49 181.52C1123.45 181.309 1123.43 181.083 1123.42 180.858C1123.37 178.733 1125.06 176.971 1127.18 176.918C1127.4 176.918 1127.63 176.925 1127.84 176.965C1127.88 177.177 1127.9 177.402 1127.91 177.627L1127.92 177.634Z" fill="#1DCF65"/>
<path d="M1082.4 202.034C1080.39 202.743 1078.19 201.697 1077.48 199.69C1077.41 199.478 1077.35 199.26 1077.32 199.041C1077.51 198.935 1077.71 198.843 1077.92 198.77C1079.93 198.061 1082.12 199.108 1082.83 201.114C1082.91 201.326 1082.97 201.544 1083 201.756C1082.81 201.869 1082.61 201.955 1082.4 202.034Z" fill="#DFDFDF"/>
<path d="M1107.43 172.065C1106.15 170.37 1106.49 167.953 1108.18 166.675C1108.36 166.536 1108.55 166.417 1108.75 166.324C1108.91 166.47 1109.06 166.635 1109.2 166.821C1110.47 168.523 1110.14 170.933 1108.44 172.211C1108.26 172.35 1108.07 172.462 1107.88 172.562C1107.72 172.416 1107.57 172.251 1107.43 172.065H1107.43Z" fill="#DFDFDF"/>
<path d="M1117.99 216.205C1118.58 214.165 1120.71 212.98 1122.75 213.569C1122.97 213.629 1123.18 213.715 1123.37 213.808C1123.35 214.026 1123.31 214.245 1123.25 214.457C1122.66 216.503 1120.53 217.681 1118.49 217.092C1118.27 217.032 1118.06 216.953 1117.86 216.854C1117.88 216.635 1117.93 216.417 1117.99 216.198V216.205Z" fill="#DFDFDF"/>
<path d="M1062.15 167.264C1064.25 167.595 1065.69 169.562 1065.36 171.661C1065.32 171.886 1065.27 172.105 1065.2 172.31C1064.98 172.31 1064.76 172.297 1064.54 172.264C1062.44 171.933 1061 169.966 1061.33 167.86C1061.36 167.635 1061.42 167.423 1061.49 167.211C1061.71 167.211 1061.93 167.225 1062.15 167.258V167.264Z" fill="#247C48"/>
<path d="M1143.38 213.655C1143.78 231.004 1130.04 245.393 1112.7 245.79C1111.29 245.823 1109.9 245.763 1108.55 245.611C1103.09 252.465 1094.75 256.941 1085.3 257.159C1070.72 257.497 1058.28 247.578 1054.89 233.99C1059.63 243.188 1097.05 255.338 1109.38 231.216C1124.26 235.209 1144.96 222.012 1138.04 196.85C1141.29 201.664 1143.23 207.424 1143.38 213.655Z" fill="#247C48"/>
<path d="M1121.54 175.932C1121.29 178.726 1120.61 181.402 1119.59 183.898L1108.71 186.931L1121.53 175.932H1121.54Z" fill="#247C48"/>
<path d="M1101.93 287.705L1092.75 287.917L1093.46 168.092L1101.93 287.705Z" fill="#353535"/>
<path d="M1093.76 233.984L1067.27 213.516L1094.26 239.837L1093.76 233.984Z" fill="#353535"/>
<path d="M1096.42 227.289L1120.18 196.095L1096.24 220.012L1096.42 227.289Z" fill="#353535"/>
<path d="M1093.62 190.844L1087.36 181.322L1093.77 187.731L1093.62 190.844Z" fill="#353535"/>
<path d="M1067.66 204.968L1060.36 207.835C1058.34 206.517 1056.57 204.829 1055.17 202.855L1067.66 204.968Z" fill="#247C48"/>
<path d="M983.498 253.211C983.431 250.258 982.504 247.523 980.968 245.239C978.935 242.226 975.836 240.001 972.22 239.101C972.71 237.915 973.028 236.644 973.147 235.32C973.193 234.823 973.213 234.32 973.2 233.81C973.034 226.566 967.021 220.832 959.783 221.004C952.664 221.169 947.009 226.97 946.976 234.048C942.896 235.008 939.903 238.71 940.002 243.067C940.049 244.941 940.658 246.669 941.671 248.093C942.333 249.026 943.174 249.828 944.135 250.457C942.168 252.999 941.022 256.204 941.108 259.674C941.135 260.773 941.28 261.839 941.539 262.866C943.141 269.308 949.042 274.016 955.962 273.851C957.22 273.824 958.432 273.632 959.591 273.308L959.505 288.445L963.856 288.346L962.704 272.023C964.366 271.096 965.823 269.851 966.995 268.381C967.644 268.454 968.299 268.481 968.968 268.468C977.193 268.275 983.71 261.455 983.524 253.225L983.498 253.211Z" fill="#4DBD79"/>
<path d="M1050.31 230.457C1050.43 225.48 1049.09 220.807 1046.68 216.846C1043.49 211.616 1038.44 207.623 1032.43 205.824C1033.34 203.871 1033.98 201.756 1034.29 199.54C1034.4 198.708 1034.47 197.862 1034.49 197.01C1034.78 184.808 1025.12 174.688 1012.91 174.399C1000.93 174.12 990.944 183.443 990.333 195.35C983.393 196.644 978.062 202.646 977.893 209.978C977.821 213.137 978.716 216.094 980.307 218.566C981.35 220.192 982.699 221.607 984.267 222.731C980.759 226.854 978.582 232.167 978.444 238.004C978.402 239.855 978.562 241.664 978.914 243.407C981.113 254.379 990.674 262.761 1002.33 263.033C1004.44 263.084 1006.5 262.862 1008.47 262.399L1007.14 287.86L1014.46 288.03L1013.8 260.469C1016.67 259.037 1019.22 257.061 1021.31 254.669C1022.39 254.838 1023.49 254.938 1024.62 254.967C1038.48 255.291 1049.98 244.318 1050.31 230.452L1050.31 230.457Z" fill="#4DBD79"/>
<path d="M447.173 255.301C445.987 252.169 443.868 249.481 441.133 247.594C442.577 246.329 443.716 244.72 444.431 242.892C444.491 242.733 444.55 242.574 444.603 242.409C444.948 241.402 445.166 240.323 445.232 239.211C445.623 232.536 440.531 226.808 433.862 226.411C432.246 226.318 430.69 226.543 429.253 227.033C427.279 223.643 423.703 221.273 419.492 221.021C412.816 220.63 407.088 225.722 406.691 232.397C406.591 234.046 406.83 235.642 407.346 237.112C403.194 239.873 400.347 244.475 400.029 249.832C399.724 255.03 401.87 259.797 405.466 263.022C406.168 263.658 406.936 264.234 407.744 264.737C407.711 265.015 407.677 265.287 407.664 265.571C407.406 269.928 409.578 273.868 413.008 276.067C414.631 277.113 416.538 277.762 418.604 277.881C420.26 277.98 421.856 277.722 423.319 277.186L422.22 288.151L427.094 288.436L427.001 276.808C428.226 277.186 429.511 277.424 430.849 277.503C434.385 277.709 437.723 276.788 440.517 275.04C444.868 272.319 447.881 267.598 448.212 262.082C448.352 259.698 447.981 257.4 447.179 255.301H447.173Z" fill="#4DBD79"/>
<path d="M436.193 263.38C436.034 263.4 435.875 263.433 435.723 263.479C435.709 263.638 435.723 263.797 435.736 263.962C435.921 265.479 437.299 266.565 438.822 266.379C438.981 266.359 439.14 266.326 439.292 266.28C439.305 266.121 439.292 265.962 439.279 265.803C439.093 264.287 437.716 263.201 436.193 263.386V263.38Z" fill="#4DBD79"/>
<path d="M445.859 225.822C445.951 225.822 446.044 225.815 446.137 225.795C447.011 225.63 447.594 224.789 447.428 223.915C447.408 223.822 447.388 223.729 447.355 223.643C447.262 223.643 447.17 223.65 447.077 223.67C446.203 223.835 445.62 224.676 445.786 225.55C445.806 225.643 445.825 225.736 445.859 225.822Z" fill="#4DBD79"/>
<path d="M896.052 249.754C895.198 247.496 893.668 245.556 891.695 244.192C892.735 243.278 893.563 242.119 894.072 240.801C894.119 240.689 894.159 240.57 894.198 240.45C894.45 239.722 894.602 238.947 894.649 238.14C894.933 233.319 891.258 229.187 886.437 228.902C885.271 228.836 884.146 228.995 883.113 229.353C881.689 226.903 879.106 225.194 876.066 225.015C871.245 224.731 867.113 228.406 866.828 233.226C866.755 234.418 866.928 235.57 867.305 236.63C864.312 238.623 862.252 241.94 862.021 245.807C861.802 249.555 863.345 253.005 865.941 255.329C866.451 255.786 867 256.203 867.583 256.567C867.557 256.766 867.537 256.965 867.524 257.17C867.338 260.315 868.908 263.156 871.378 264.745C872.55 265.5 873.927 265.97 875.417 266.056C876.616 266.129 877.762 265.944 878.821 265.553L878.027 287.808L881.543 288.014L881.477 265.282C882.358 265.553 883.291 265.725 884.252 265.785C886.801 265.937 889.218 265.268 891.231 264.004C894.37 262.037 896.549 258.633 896.781 254.647C896.88 252.926 896.609 251.27 896.039 249.754H896.052Z" fill="#4DBD79"/>
<path d="M469.509 236.563C470.86 233.756 473.039 231.431 475.727 229.902C474.496 228.611 473.562 227.035 473.045 225.28C472.999 225.128 472.959 224.975 472.919 224.816C472.681 223.856 472.568 222.836 472.595 221.797C472.767 215.579 477.946 210.673 484.164 210.845C485.667 210.884 487.091 211.222 488.389 211.792C490.488 208.805 493.998 206.898 497.919 207.004C504.137 207.176 509.044 212.354 508.872 218.572C508.832 220.108 508.481 221.572 507.885 222.889C511.514 225.776 513.786 230.273 513.647 235.265C513.514 240.106 511.143 244.357 507.554 247.058C506.852 247.588 506.097 248.065 505.302 248.462C505.316 248.72 505.322 248.979 505.309 249.243C505.197 253.303 502.865 256.779 499.515 258.54C497.925 259.375 496.104 259.831 494.184 259.778C492.641 259.739 491.184 259.375 489.873 258.752L489.442 288.457L484.899 288.331L486.482 258.11C485.316 258.361 484.104 258.481 482.859 258.448C479.568 258.355 476.542 257.229 474.098 255.388C470.284 252.515 467.867 247.899 468.006 242.761C468.065 240.536 468.595 238.444 469.502 236.556L469.509 236.563Z" fill="#4DBD79"/>
<path d="M529.777 247.628C529.922 247.661 530.068 247.7 530.201 247.753C530.201 247.899 530.181 248.051 530.148 248.197C529.856 249.588 528.492 250.482 527.095 250.19C526.949 250.157 526.803 250.117 526.671 250.058C526.671 249.912 526.691 249.766 526.724 249.614C527.015 248.224 528.379 247.33 529.777 247.621V247.628Z" fill="#4DBD79"/>
<path d="M483.036 251.782C482.089 249.809 480.553 248.173 478.665 247.1C479.533 246.193 480.188 245.081 480.546 243.849C480.579 243.743 480.606 243.637 480.632 243.525C480.798 242.849 480.884 242.134 480.857 241.406C480.738 237.036 477.096 233.586 472.725 233.705C471.665 233.731 470.665 233.97 469.758 234.367C468.281 232.268 465.818 230.924 463.063 231.003C458.692 231.123 455.242 234.764 455.361 239.135C455.388 240.214 455.639 241.24 456.057 242.167C453.507 244.2 451.911 247.359 452.004 250.868C452.097 254.272 453.765 257.258 456.288 259.158C456.785 259.536 457.315 259.867 457.871 260.145C457.865 260.324 457.858 260.509 457.865 260.695C457.944 263.549 459.58 265.992 461.937 267.23C463.056 267.82 464.335 268.137 465.685 268.098C466.772 268.071 467.798 267.813 468.718 267.376L469.017 288.26L472.208 288.174L471.096 266.926C471.917 267.098 472.765 267.184 473.639 267.164C475.957 267.098 478.082 266.31 479.798 265.012C482.48 262.992 484.182 259.748 484.082 256.132C484.042 254.57 483.665 253.093 483.029 251.775L483.036 251.782Z" fill="#4DBD79"/>
<path d="M480.954 268.172C480.848 268.192 480.749 268.225 480.656 268.265C480.656 268.371 480.669 268.47 480.696 268.576C480.901 269.556 481.861 270.185 482.841 269.98C482.947 269.96 483.047 269.927 483.139 269.887C483.139 269.781 483.126 269.682 483.1 269.576C482.894 268.596 481.934 267.967 480.954 268.172Z" fill="#4DBD79"/>
<path d="M574.173 255.301C572.987 252.169 570.868 249.481 568.133 247.594C569.577 246.329 570.716 244.72 571.431 242.892C571.491 242.733 571.55 242.574 571.603 242.409C571.948 241.402 572.166 240.323 572.232 239.211C572.623 232.536 567.531 226.808 560.862 226.411C559.246 226.318 557.69 226.543 556.253 227.033C554.279 223.643 550.703 221.273 546.492 221.021C539.816 220.63 534.088 225.722 533.691 232.397C533.591 234.046 533.83 235.642 534.346 237.112C530.194 239.873 527.347 244.475 527.029 249.832C526.724 255.03 528.87 259.797 532.466 263.022C533.168 263.658 533.936 264.234 534.744 264.737C534.711 265.015 534.677 265.287 534.664 265.571C534.406 269.928 536.578 273.868 540.008 276.067C541.631 277.113 543.538 277.762 545.604 277.881C547.26 277.98 548.856 277.722 550.319 277.186L549.22 288.151L554.094 288.436L554.001 276.808C555.226 277.186 556.511 277.424 557.849 277.503C561.385 277.709 564.723 276.788 567.517 275.04C571.868 272.319 574.881 267.598 575.212 262.082C575.352 259.698 574.981 257.4 574.179 255.301H574.173Z" fill="#4DBD79"/>
<path d="M577.342 225.822C577.435 225.822 577.528 225.815 577.62 225.795C578.494 225.63 579.077 224.789 578.912 223.915C578.892 223.822 578.872 223.729 578.839 223.643C578.746 223.643 578.653 223.65 578.561 223.67C577.687 223.835 577.104 224.676 577.269 225.55C577.289 225.643 577.309 225.736 577.342 225.822Z" fill="#4DBD79"/>
<path d="M375.559 222H250.583V288.104H375.559V222Z" fill="#E9E9E9"/>
<path d="M378.201 222H249V228.178H378.201V222Z" fill="#4F5164"/>
<path d="M272.536 238.17H267.317V275.893H272.536V238.17Z" fill="#4F5164"/>
<path d="M262.47 238.17H257.251V275.893H262.47V238.17Z" fill="#4F5164"/>
<path d="M375.559 275.781H250.583V288.097H375.559V275.781Z" fill="white"/>
<path d="M304.296 261.173H291.846V288.103H304.296V261.173Z" fill="#4F5164"/>
<path d="M299.23 240.044H291.846V249.546H299.23V240.044Z" fill="#4F5164"/>
<g opacity="0.3">
<path d="M291.846 240.044V241.223H297.985V249.546H299.23V240.044H291.846Z" fill="black"/>
</g>
<path d="M320.441 240.044H313.057V249.546H320.441V240.044Z" fill="#4F5164"/>
<g opacity="0.3">
<path d="M313.057 240.044V241.223H319.19V249.546H320.435V240.044H313.057Z" fill="black"/>
</g>
<path d="M343.143 240.044H335.759V249.546H343.143V240.044Z" fill="#4F5164"/>
<g opacity="0.3">
<path d="M335.759 240.044V241.223H341.898V249.546H343.143V240.044H335.759Z" fill="black"/>
</g>
<path d="M365.85 240.044H358.467V249.546H365.85V240.044Z" fill="#4F5164"/>
<g opacity="0.3">
<path d="M358.467 240.044V241.223H364.599V249.546H365.844V240.044H358.467Z" fill="black"/>
</g>
<path d="M320.441 257.035H313.057V266.537H320.441V257.035Z" fill="#4F5164"/>
<g opacity="0.3">
<path d="M313.057 257.035V258.214H319.19V266.537H320.435V257.035H313.057Z" fill="black"/>
</g>
<path d="M343.143 257.035H335.759V266.537H343.143V257.035Z" fill="#4F5164"/>
<g opacity="0.3">
<path d="M335.759 257.035V258.214H341.898V266.537H343.143V257.035H335.759Z" fill="black"/>
</g>
<path d="M365.85 257.035H358.467V266.537H365.85V257.035Z" fill="#4F5164"/>
<g opacity="0.3">
<path d="M358.467 257.035V258.214H364.599V266.537H365.844V257.035H358.467Z" fill="black"/>
</g>
<g opacity="0.3">
<path d="M283.9 228.178H250.583V288.103H283.9V228.178Z" fill="black"/>
</g>
<path d="M279.189 61H171V288.175H279.189V61Z" fill="#E9E9E9"/>
<path d="M222.703 71.8569H214.234V277.665H222.703V71.8569Z" fill="#4F5164"/>
<path d="M234.625 71.8569H226.156V277.665H234.625V71.8569Z" fill="#4F5164"/>
<path d="M246.547 71.8569H238.078V277.665H246.547V71.8569Z" fill="#4F5164"/>
<path d="M186.845 71.8569H178.375V277.665H186.845V71.8569Z" fill="#4F5164"/>
<path d="M198.767 71.8569H190.297V277.665H198.767V71.8569Z" fill="#4F5164"/>
<path d="M258.469 71.8569H250V277.665H258.469V71.8569Z" fill="#4F5164"/>
<path d="M270.385 71.8569H261.915V277.665H270.385V71.8569Z" fill="#4F5164"/>
<g opacity="0.3">
<path d="M205.696 61H171V288.175H205.696V61Z" fill="black"/>
</g>
<path d="M316.847 234.909C314.277 253.059 297.483 265.686 279.332 263.117C273.775 262.329 268.749 260.21 264.504 257.131C258.577 260.217 251.664 261.561 244.538 260.554C234.214 259.091 225.684 253.032 220.718 244.742C216.943 238.451 215.221 230.876 216.334 223.043C217.433 215.282 221.135 208.535 226.433 203.549C225.439 201.774 224.658 199.867 224.135 197.874C223.32 194.802 223.095 191.531 223.565 188.187C225.459 174.804 237.843 165.494 251.227 167.388C251.425 167.415 251.611 167.454 251.809 167.481C256.836 152.675 271.822 143.06 287.874 145.332C306.026 147.901 318.655 164.693 316.085 182.843C315.456 187.306 313.966 191.438 311.801 195.08C309.794 198.477 307.198 201.463 304.185 203.913C309.602 208.071 313.648 213.839 315.695 220.388C317.118 224.937 317.575 229.87 316.867 234.909H316.847Z" fill="#1D6D3E"/>
<path d="M316.847 234.909C314.277 253.059 297.483 265.686 279.332 263.117C273.775 262.329 268.749 260.21 264.504 257.131C258.577 260.217 251.664 261.561 244.538 260.554C234.214 259.091 225.684 253.032 220.718 244.742C234.108 254.886 246.809 253.754 262.531 245.49C280.961 255.628 312.662 244.318 315.675 220.388C317.099 224.937 317.555 229.87 316.847 234.909Z" fill="#0B4C22"/>
<path d="M311.787 195.08C309.781 198.476 307.185 201.463 304.172 203.913L289.199 201.794L311.787 195.08Z" fill="#0B4C22"/>
<path d="M236.803 205.019L226.426 203.549C225.433 201.774 224.651 199.867 224.128 197.874L236.81 205.019H236.803Z" fill="#0B4C22"/>
<path d="M266.782 288.074H256.5L278.782 159.542L266.782 288.074Z" fill="white"/>
<path d="M267.193 243.219L298.086 224.678L265.915 249.417L267.193 243.219Z" fill="white"/>
<path d="M268.027 223.136L255.041 201.152L268.988 216.375L268.027 223.136Z" fill="white"/>
<path d="M274.378 196.053L282.278 186.664L274.616 192.709L274.378 196.053Z" fill="white"/>
<path d="M88.3831 288.032H145.924L145.924 131H88.3831L88.3831 288.032Z" fill="#E9E9E9"/>
<path d="M88.3831 131.007H59V288.038H88.3831V131.007Z" fill="#E9E9E9"/>
<path d="M108.72 146.25H96.8861V162.261H108.72V146.25Z" fill="#4F5164"/>
<g opacity="0.3">
<path d="M96.8861 146.25V148.236H106.72V162.267H108.72V146.25H96.8861Z" fill="black"/>
</g>
<path d="M109.409 162.267H96.8861V165.525H109.409V162.267Z" fill="white"/>
<path d="M109.409 142.899H96.8861V146.157H109.409V142.899Z" fill="white"/>
<path d="M135.997 162.267H123.475V165.525H135.997V162.267Z" fill="white"/>
<path d="M135.997 142.899H123.475V146.157H135.997V142.899Z" fill="white"/>
<path d="M135.302 146.25H123.468V162.261H135.302V146.25Z" fill="#4F5164"/>
<g opacity="0.3">
<path d="M123.468 146.25V148.236H133.309V162.267H135.302V146.25H123.468Z" fill="black"/>
</g>
<path d="M108.72 175.954H96.8861V191.965H108.72V175.954Z" fill="#4F5164"/>
<g opacity="0.3">
<path d="M96.8861 175.954V177.941H106.72V191.965H108.72V175.954H96.8861Z" fill="black"/>
</g>
<path d="M109.409 191.965H96.8861V195.223H109.409V191.965Z" fill="white"/>
<path d="M109.409 172.604H96.8861V175.861H109.409V172.604Z" fill="white"/>
<path d="M135.997 191.965H123.475V195.223H135.997V191.965Z" fill="white"/>
<path d="M135.997 172.604H123.475V175.861H135.997V172.604Z" fill="white"/>
<path d="M135.302 175.954H123.468V191.965H135.302V175.954Z" fill="#4F5164"/>
<g opacity="0.3">
<path d="M123.468 175.954V177.941H133.309V191.965H135.302V175.954H123.468Z" fill="black"/>
</g>
<path d="M108.72 206.705H96.8861V222.716H108.72V206.705Z" fill="#4F5164"/>
<g opacity="0.3">
<path d="M96.8861 206.705V208.692H106.72V222.723H108.72V206.705H96.8861Z" fill="black"/>
</g>
<path d="M109.409 222.723H96.8861V225.98H109.409V222.723Z" fill="white"/>
<path d="M109.409 203.354H96.8861V206.612H109.409V203.354Z" fill="white"/>
<path d="M135.997 222.723H123.475V225.98H135.997V222.723Z" fill="white"/>
<path d="M135.997 203.354H123.475V206.612H135.997V203.354Z" fill="white"/>
<path d="M135.302 206.705H123.468V222.716H135.302V206.705Z" fill="#4F5164"/>
<g opacity="0.3">
<path d="M123.468 206.705V208.692H133.309V222.723H135.302V206.705H123.468Z" fill="black"/>
</g>
<path d="M108.72 237.25H96.8861V253.262H108.72V237.25Z" fill="#4F5164"/>
<g opacity="0.3">
<path d="M96.8861 237.25V239.23H106.72V253.262H108.72V237.25H96.8861Z" fill="black"/>
</g>
<path d="M109.409 253.262H96.8861V256.52H109.409V253.262Z" fill="white"/>
<path d="M109.409 233.9H96.8861V237.158H109.409V233.9Z" fill="white"/>
<path d="M135.997 253.262H123.475V256.52H135.997V253.262Z" fill="white"/>
<path d="M135.997 233.9H123.475V237.158H135.997V233.9Z" fill="white"/>
<path d="M135.302 237.25H123.468V253.262H135.302V237.25Z" fill="#4F5164"/>
<g opacity="0.3">
<path d="M123.468 237.25V239.23H133.309V253.262H135.302V237.25H123.468Z" fill="black"/>
</g>
<path d="M80.6813 145.727H76.5358V161.738H80.6813V145.727Z" fill="#4F5164"/>
<path d="M81.2641 161.738H73.6948V164.148H81.2641V161.738Z" fill="white"/>
<path d="M69.5824 145.727H65.4369V161.738H69.5824V145.727Z" fill="#4F5164"/>
<path d="M70.1718 161.738H62.6025V164.148H70.1718V161.738Z" fill="white"/>
<path d="M80.6813 176.232H76.5358V192.243H80.6813V176.232Z" fill="#4F5164"/>
<path d="M81.2641 192.25H73.6948V194.66H81.2641V192.25Z" fill="white"/>
<path d="M69.5824 176.232H65.4369V192.243H69.5824V176.232Z" fill="#4F5164"/>
<path d="M70.1718 192.25H62.6025V194.66H70.1718V192.25Z" fill="white"/>
<path d="M80.6813 206.745H76.5358V222.756H80.6813V206.745Z" fill="#4F5164"/>
<path d="M81.2641 222.756H73.6948V225.166H81.2641V222.756Z" fill="white"/>
<path d="M69.5824 206.745H65.4369V222.756H69.5824V206.745Z" fill="#4F5164"/>
<path d="M70.1718 222.756H62.6025V225.166H70.1718V222.756Z" fill="white"/>
<path d="M108.72 262.764H96.8861V288.038H108.72V262.764Z" fill="#4F5164"/>
<g opacity="0.3">
<path d="M96.8861 262.764V264.657H106.72V288.032H108.72V262.764H96.8861Z" fill="black"/>
</g>
<path d="M135.653 262.764H123.819V288.038H135.653V262.764Z" fill="#4F5164"/>
<g opacity="0.3">
<path d="M123.819 262.764V264.657H133.66V288.032H135.653V262.764H123.819Z" fill="black"/>
</g>
<path d="M80.6813 237.25H76.5358V253.262H80.6813V237.25Z" fill="#4F5164"/>
<path d="M81.2641 253.262H73.6948V255.672H81.2641V253.262Z" fill="white"/>
<path d="M69.5824 237.25H65.4369V253.262H69.5824V237.25Z" fill="#4F5164"/>
<path d="M70.1718 253.262H62.6025V255.672H70.1718V253.262Z" fill="white"/>
<path d="M80.6813 264.062H76.5358V280.073H80.6813V264.062Z" fill="#4F5164"/>
<path d="M81.2641 280.073H73.6948V282.483H81.2641V280.073Z" fill="white"/>
<path d="M69.5824 264.062H65.4369V280.073H69.5824V264.062Z" fill="#4F5164"/>
<path d="M70.1718 280.073H62.6025V282.483H70.1718V280.073Z" fill="white"/>
<g opacity="0.3">
<path d="M59.0067 288.032H89.2308L89.2308 131H59.0067L59.0067 288.032Z" fill="black"/>
</g>
<path d="M228.256 179.394C228.847 204.787 208.734 225.845 183.345 226.436C181.286 226.483 179.256 226.395 177.261 226.173C169.269 236.199 157.06 242.751 143.236 243.072C121.889 243.57 103.678 229.045 98.7228 209.163C97.9272 205.998 97.4767 202.705 97.4007 199.318C97.155 188.625 100.677 178.722 106.749 170.877C103.783 168.947 101.197 166.479 99.1499 163.595C96.0317 159.208 94.1421 153.873 94.0076 148.088C93.6975 134.646 102.935 123.216 115.524 120.262C115.63 98.4311 133.086 80.5199 155.054 80.011C177.401 79.4962 195.94 97.191 196.461 119.536C196.496 121.104 196.443 122.66 196.297 124.187C195.929 128.275 194.946 132.195 193.442 135.845C204.598 138.623 214.175 145.496 220.446 154.797C225.197 161.84 228.052 170.281 228.262 179.394H228.256Z" fill="#28D16C"/>
<path d="M205.628 126.667C205.698 129.779 203.235 132.358 200.129 132.429C199.795 132.434 199.468 132.417 199.152 132.364C199.087 132.048 199.052 131.727 199.046 131.399C198.976 128.287 201.439 125.707 204.546 125.637C204.879 125.631 205.201 125.649 205.517 125.702C205.581 126.018 205.616 126.339 205.628 126.673V126.667Z" fill="#1DCF65"/>
<path d="M138.995 162.384C136.064 163.419 132.847 161.887 131.805 158.956C131.694 158.64 131.612 158.324 131.56 158.009C131.84 157.851 132.133 157.716 132.443 157.605C135.38 156.564 138.597 158.102 139.633 161.033C139.744 161.349 139.826 161.659 139.873 161.975C139.598 162.133 139.299 162.267 138.983 162.378L138.995 162.384Z" fill="#DFDFDF"/>
<path d="M175.634 118.519C173.762 116.033 174.259 112.505 176.74 110.633C177.003 110.435 177.284 110.259 177.571 110.119C177.805 110.335 178.021 110.581 178.22 110.844C180.092 113.33 179.601 116.863 177.114 118.735C176.851 118.934 176.576 119.109 176.289 119.25C176.055 119.033 175.833 118.788 175.634 118.524V118.519Z" fill="#DFDFDF"/>
<path d="M191.096 183.132C191.956 180.143 195.074 178.418 198.064 179.278C198.385 179.371 198.69 179.488 198.976 179.629C198.941 179.944 198.883 180.266 198.789 180.582C197.929 183.577 194.811 185.303 191.822 184.443C191.5 184.349 191.196 184.232 190.915 184.092C190.944 183.776 191.008 183.454 191.102 183.132H191.096Z" fill="#DFDFDF"/>
<path d="M109.364 111.493C112.435 111.979 114.536 114.862 114.05 117.933C113.997 118.261 113.921 118.583 113.816 118.881C113.494 118.881 113.173 118.863 112.845 118.811C109.768 118.325 107.673 115.441 108.153 112.37C108.206 112.043 108.282 111.727 108.387 111.423C108.709 111.411 109.037 111.435 109.358 111.487L109.364 111.493Z" fill="#247C48"/>
<path d="M228.256 179.394C228.847 204.787 208.734 225.845 183.345 226.436C181.286 226.483 179.256 226.395 177.261 226.173C169.269 236.199 157.06 242.75 143.236 243.072C121.889 243.569 103.678 229.045 98.7228 209.162C105.655 222.622 160.436 240.411 178.472 205.103C200.258 210.946 230.561 191.631 220.435 154.797C225.185 161.84 228.04 170.281 228.25 179.394H228.256Z" fill="#247C48"/>
<path d="M196.297 124.187C195.928 128.275 194.946 132.195 193.442 135.845L177.524 140.284L196.303 124.187H196.297Z" fill="#247C48"/>
<path d="M167.579 287.786L154.158 288.096L155.188 112.704L167.579 287.786Z" fill="#353535"/>
<path d="M155.627 209.145L116.864 179.19L156.37 217.715L155.627 209.145Z" fill="#353535"/>
<path d="M159.517 199.353L194.29 153.692L159.266 188.701L159.517 199.353Z" fill="#353535"/>
<path d="M155.428 146.005L146.267 132.072L155.65 141.454L155.428 146.005Z" fill="#353535"/>
<path d="M117.431 166.677L106.755 170.877C103.789 168.947 101.203 166.479 99.1556 163.595L117.437 166.683L117.431 166.677Z" fill="#247C48"/>
<path d="M0.00868318 213.912C-0.395277 231.261 13.346 245.65 30.6898 246.047C32.1003 246.08 33.4844 246.02 34.842 245.868C40.2987 252.721 48.6428 257.198 58.0862 257.416C72.6685 257.754 85.1118 247.835 88.4958 234.247C89.0388 232.088 89.3434 229.837 89.3964 227.52C89.5686 220.209 87.1581 213.449 83.0125 208.092C85.0389 206.774 86.8071 205.086 88.2044 203.112C90.3368 200.113 91.6281 196.471 91.7208 192.518C91.9327 183.334 85.6217 175.527 77.0193 173.507C76.9465 158.595 65.0197 146.358 50.0136 146.007C34.7426 145.657 22.0808 157.748 21.7232 173.01C21.6967 174.083 21.7364 175.143 21.8358 176.189C22.0874 178.983 22.7629 181.658 23.7893 184.155C16.1671 186.055 9.62425 190.75 5.33962 197.1C2.0947 201.914 0.147745 207.675 0.00205442 213.906L0.00868318 213.912Z" fill="#1D6D3E"/>
<path d="M15.4718 177.89C15.4254 180.016 17.1075 181.777 19.2266 181.824C19.4517 181.824 19.6769 181.817 19.8954 181.777C19.9352 181.565 19.9617 181.34 19.9683 181.115C20.0146 178.99 18.3326 177.228 16.2135 177.175C15.9883 177.175 15.7631 177.182 15.5512 177.222C15.5049 177.434 15.485 177.659 15.4784 177.884L15.4718 177.89Z" fill="#1DCF65"/>
<path d="M60.9934 202.291C62.9999 203 65.1985 201.954 65.9071 199.947C65.98 199.735 66.0396 199.517 66.0727 199.298C65.8806 199.192 65.682 199.1 65.4701 199.027C63.4635 198.318 61.2649 199.364 60.5563 201.371C60.4835 201.583 60.4239 201.801 60.3907 202.013C60.5828 202.126 60.7815 202.212 60.9934 202.291Z" fill="#1A994D"/>
<path d="M35.9611 172.322C37.2392 170.627 36.9015 168.21 35.2062 166.932C35.0274 166.793 34.8353 166.674 34.6367 166.581C34.4777 166.727 34.332 166.892 34.193 167.078C32.9149 168.779 33.2526 171.19 34.9479 172.468C35.1267 172.607 35.3188 172.719 35.5108 172.819C35.6697 172.673 35.8221 172.507 35.9545 172.322H35.9611Z" fill="#1A994D"/>
<path d="M25.3986 216.461C24.8092 214.422 22.6768 213.237 20.6371 213.826C20.4186 213.886 20.2067 213.972 20.0146 214.064C20.0345 214.283 20.0809 214.502 20.1405 214.713C20.7299 216.759 22.8622 217.938 24.9019 217.349C25.1204 217.289 25.3257 217.21 25.5244 217.11C25.5045 216.892 25.4582 216.673 25.3986 216.455V216.461Z" fill="#1A994D"/>
<path d="M81.2377 167.521C79.1385 167.852 77.7014 169.819 78.0326 171.918C78.0657 172.143 78.1186 172.362 78.1915 172.567C78.41 172.567 78.6286 172.554 78.8537 172.521C80.953 172.189 82.39 170.223 82.0589 168.117C82.0258 167.892 81.9728 167.68 81.9 167.468C81.6814 167.468 81.4563 167.482 81.2377 167.515V167.521Z" fill="#247C48"/>
<path d="M0.00868318 213.912C-0.395277 231.261 13.346 245.65 30.6898 246.047C32.1003 246.08 33.4844 246.02 34.8419 245.868C40.2987 252.721 48.6428 257.198 58.0862 257.416C72.6685 257.754 85.1118 247.835 88.4958 234.247C83.7608 243.445 46.3383 255.595 34.0142 231.473C19.1272 235.465 -1.57405 222.269 5.34625 197.106C2.10133 201.92 0.154374 207.681 0.00868318 213.912Z" fill="#0D6130"/>
<path d="M21.8424 176.189C22.0941 178.983 22.7695 181.658 23.796 184.155L34.6764 187.187L21.849 176.189H21.8424Z" fill="#0D6130"/>
<path d="M41.4644 287.961L50.6296 288.173L49.9343 168.349L41.4644 287.961Z" fill="#353535"/>
<path d="M49.6296 234.24L76.1122 213.773L49.1263 240.094L49.6296 234.24Z" fill="#353535"/>
<path d="M46.9741 227.546L23.2133 196.352L47.1396 220.269L46.9741 227.546Z" fill="#353535"/>
<path d="M49.7686 191.1L56.0267 181.579L49.6163 187.988L49.7686 191.1Z" fill="#353535"/>
<path d="M75.7214 205.225L83.0192 208.092C85.0456 206.774 86.8138 205.086 88.2111 203.112L75.7214 205.225Z" fill="#0B4C22"/>
<rect y="15" width="1440" height="273" fill="url(#paint0_linear_416_5049)"/>
<path d="M642.682 158C641.712 158 640.776 157.879 639.874 157.636C639.008 157.359 638.245 156.908 637.586 156.284C636.928 155.66 636.408 154.845 636.026 153.84C635.645 152.8 635.454 151.517 635.454 149.992V125.76H640.758V148.692C640.758 149.801 641.001 150.685 641.486 151.344C642.006 151.968 642.769 152.28 643.774 152.28H644.97C645.733 152.28 646.114 153.199 646.114 155.036C646.114 157.012 645.733 158 644.97 158H642.682ZM643.362 152.28C644.541 152.28 645.459 152.055 646.118 151.604C646.777 151.119 647.106 150.339 647.106 149.264V148.12C647.106 146.733 647.297 145.451 647.678 144.272C648.094 143.093 648.683 142.088 649.446 141.256C650.209 140.424 651.127 139.783 652.202 139.332C653.311 138.847 654.542 138.604 655.894 138.604C657.315 138.604 658.563 138.847 659.638 139.332C660.747 139.783 661.666 140.441 662.394 141.308C663.122 142.14 663.677 143.145 664.058 144.324C664.439 145.503 664.63 146.785 664.63 148.172C664.63 151.292 663.833 153.719 662.238 155.452C660.678 157.151 658.546 158 655.842 158C654.455 158 653.121 157.74 651.838 157.22C650.59 156.665 649.637 155.799 648.978 154.62C648.319 155.972 647.47 156.873 646.43 157.324C645.39 157.775 644.367 158 643.362 158H642.894C642.443 158 642.149 157.775 642.01 157.324C641.837 156.839 641.75 156.145 641.75 155.244C641.75 154.239 641.837 153.493 642.01 153.008C642.149 152.523 642.443 152.28 642.894 152.28H643.362ZM659.534 148.536C659.534 147.357 659.257 146.369 658.702 145.572C658.182 144.775 657.229 144.376 655.842 144.376C654.525 144.376 653.571 144.775 652.982 145.572C652.427 146.335 652.15 147.34 652.15 148.588C652.15 149.801 652.479 150.72 653.138 151.344C653.797 151.968 654.698 152.28 655.842 152.28C658.303 152.28 659.534 151.032 659.534 148.536ZM681.028 158C680.058 158 679.122 157.879 678.22 157.636C677.354 157.359 676.591 156.908 675.932 156.284C675.274 155.66 674.754 154.845 674.372 153.84C673.991 152.8 673.8 151.517 673.8 149.992V125.76H679.104V148.692C679.104 149.801 679.347 150.685 679.832 151.344C680.352 151.968 681.115 152.28 682.12 152.28H683.316C684.079 152.28 684.46 153.199 684.46 155.036C684.46 157.012 684.079 158 683.316 158H681.028ZM686.024 152.28C688.347 152.28 689.508 151.153 689.508 148.9V142.764H694.812V149.264C694.812 152.141 694.084 154.325 692.628 155.816C691.172 157.272 689.127 158 686.492 158H681.24C680.789 158 680.495 157.775 680.356 157.324C680.183 156.839 680.096 156.145 680.096 155.244C680.096 154.239 680.183 153.493 680.356 153.008C680.495 152.523 680.789 152.28 681.24 152.28H686.024ZM688.728 169.128H682.852V163.824H688.728V169.128ZM744.581 148.9C744.581 150.113 744.893 150.98 745.517 151.5C746.176 152.02 746.938 152.28 747.805 152.28C748.845 152.28 749.642 152.003 750.197 151.448C750.786 150.859 751.081 150.009 751.081 148.9V142.764H756.385V149.264C756.385 152.141 755.657 154.325 754.201 155.816C752.745 157.272 750.682 158 748.013 158C746.834 158 745.708 157.792 744.633 157.376C743.558 156.925 742.622 156.041 741.825 154.724C740.993 156.041 740.022 156.925 738.913 157.376C737.838 157.792 736.746 158 735.637 158C734.666 158 733.834 157.861 733.141 157.584C732.482 157.272 731.928 156.873 731.477 156.388V157.168C731.477 158.936 731.182 160.635 730.593 162.264C730.004 163.893 729.154 165.315 728.045 166.528C726.97 167.776 725.636 168.764 724.041 169.492C722.446 170.22 720.661 170.584 718.685 170.584H715.409C711.526 170.584 708.51 169.388 706.361 166.996C704.212 164.604 703.137 161.328 703.137 157.168V147.86H708.389V156.96C708.389 158.173 708.528 159.265 708.805 160.236C709.082 161.207 709.516 162.039 710.105 162.732C710.729 163.425 711.526 163.963 712.497 164.344C713.502 164.725 714.716 164.916 716.137 164.916H718.425C719.881 164.916 721.112 164.691 722.117 164.24C723.157 163.824 723.989 163.235 724.613 162.472C725.272 161.744 725.74 160.877 726.017 159.872C726.294 158.901 726.433 157.861 726.433 156.752V142.764H731.685V148.952C731.685 150.061 732.032 150.893 732.725 151.448C733.453 152.003 734.354 152.28 735.429 152.28C738.029 152.28 739.329 151.153 739.329 148.9V142.764H744.581V148.9ZM767.568 158C766.597 158 765.661 157.879 764.76 157.636C763.893 157.359 763.13 156.908 762.472 156.284C761.813 155.66 761.293 154.845 760.912 153.84C760.53 152.8 760.34 151.517 760.34 149.992V125.76H765.644V148.692C765.644 149.801 765.886 150.685 766.372 151.344C766.892 151.968 767.654 152.28 768.66 152.28H769.856C770.618 152.28 771 153.199 771 155.036C771 157.012 770.618 158 769.856 158H767.568ZM768.247 152.28C769.426 152.28 770.345 152.055 771.003 151.604C771.662 151.119 771.991 150.339 771.991 149.264V148.12C771.991 146.733 772.182 145.451 772.563 144.272C772.979 143.093 773.569 142.088 774.331 141.256C775.094 140.424 776.013 139.783 777.087 139.332C778.197 138.847 779.427 138.604 780.779 138.604C782.201 138.604 783.449 138.847 784.523 139.332C785.633 139.783 786.551 140.441 787.279 141.308C788.007 142.14 788.562 143.128 788.943 144.272C789.325 145.416 789.515 146.664 789.515 148.016V149.004C789.515 150.252 789.879 151.119 790.607 151.604C791.37 152.055 792.167 152.28 792.999 152.28H793.727C794.178 152.28 794.473 152.523 794.611 153.008C794.785 153.459 794.871 154.135 794.871 155.036C794.871 156.041 794.785 156.787 794.611 157.272C794.473 157.757 794.178 158 793.727 158H792.999C791.994 158 790.971 157.792 789.931 157.376C788.891 156.925 787.99 155.989 787.227 154.568C786.291 155.989 785.234 156.925 784.055 157.376C782.911 157.792 781.733 158 780.519 158C779.133 158 777.833 157.74 776.619 157.22C775.441 156.665 774.522 155.799 773.863 154.62C773.205 155.972 772.355 156.873 771.315 157.324C770.275 157.775 769.253 158 768.247 158H767.779C767.329 158 767.034 157.775 766.895 157.324C766.722 156.839 766.635 156.145 766.635 155.244C766.635 154.239 766.722 153.493 766.895 153.008C767.034 152.523 767.329 152.28 767.779 152.28H768.247ZM784.419 148.536C784.419 147.357 784.142 146.369 783.587 145.572C783.067 144.775 782.114 144.376 780.727 144.376C779.41 144.376 778.457 144.775 777.867 145.572C777.313 146.335 777.035 147.34 777.035 148.588C777.035 149.801 777.365 150.72 778.023 151.344C778.682 151.968 779.583 152.28 780.727 152.28C783.189 152.28 784.419 151.032 784.419 148.536ZM796.432 152.28C798.755 152.28 799.916 151.153 799.916 148.9V142.764H805.22V149.264C805.22 152.141 804.492 154.325 803.036 155.816C801.58 157.272 799.535 158 796.9 158H791.648C791.198 158 790.903 157.775 790.764 157.324C790.591 156.839 790.504 156.145 790.504 155.244C790.504 154.239 790.591 153.493 790.764 153.008C790.903 152.523 791.198 152.28 791.648 152.28H796.432ZM805.376 136.68H799.968V131.584H805.376V136.68ZM797.94 136.68H792.532V131.584H797.94V136.68Z" fill="white"/>
</g>
<defs>
<linearGradient id="paint0_linear_416_5049" x1="720" y1="288" x2="720" y2="15" gradientUnits="userSpaceOnUse">
<stop stop-color="#20AC58" stop-opacity="0.7"/>
<stop offset="1" stop-color="#20AC58" stop-opacity="0"/>
</linearGradient>
<clipPath id="clip0_416_5049">
<rect width="1440" height="288" fill="white"/>
</clipPath>
</defs>
</svg>
