<svg width="246" height="278" viewBox="0 0 246 278" fill="none" xmlns="http://www.w3.org/2000/svg">
<path d="M190.46 268.1C190.46 268.1 182.04 262.92 179.77 262.6C177.51 262.28 161 271.99 161 271.99L163.58 277.17H198.87L190.45 268.1H190.46Z" fill="#826B67"/>
<path d="M184.31 269.48C186.77 269.48 189.08 269.22 191.09 268.78L190.46 268.1C190.46 268.1 182.04 262.92 179.77 262.6C178.81 262.46 175.24 264.15 171.48 266.14C173.63 268.1 178.57 269.48 184.31 269.48Z" fill="#968178"/>
<path d="M169.46 277H97.46C97.46 277 111.74 257 113.17 257C114.6 257 146.03 265.05 147.74 265.33C149.46 265.62 169.45 277 169.45 277H169.46Z" fill="#826B67"/>
<path d="M162.45 275.43C156.57 272.04 148.81 267.64 147.78 267.47C146.09 267.19 115.13 259 113.73 259C113.36 259 112.1 260.42 110.46 262.5C120.2 273.66 129.63 275.94 129.63 275.94L137.02 274.03L135.54 277C135.54 277 151.44 276.05 162.46 275.42L162.45 275.43Z" fill="#968178"/>
<path d="M240.44 223.76C235.09 243.94 214.39 255.97 194.21 250.62C189.85 249.46 185.89 247.59 182.38 245.16C177.43 246.96 171.9 247.31 166.41 245.86C161.81 244.64 157.81 242.3 154.62 239.19C147.89 232.66 144.8 222.78 147.37 213.06C147.53 212.44 147.73 211.83 147.94 211.22C146.35 209.71 144.89 208.07 143.59 206.31C136.95 197.39 134.3 185.63 137.37 174.05C140.53 162.11 149.08 153.02 159.71 148.7C159.21 145.15 159.4 141.44 160.38 137.76C164.33 122.88 179.59 114.01 194.47 117.96C203.86 120.44 210.84 127.44 213.74 135.99C217.21 135.54 220.83 135.75 224.42 136.7C239.3 140.65 248.17 155.91 244.22 170.79C243.56 173.28 242.58 175.61 241.34 177.73C241.14 178.07 240.93 178.41 240.72 178.74C238.28 182.54 234.96 185.64 231.13 187.84C236.43 193.35 239.99 200.39 241.22 207.99C242.06 213.09 241.86 218.45 240.44 223.77V223.76Z" fill="#5AD68C"/>
<path d="M240.44 223.77C235.09 243.95 214.39 255.97 194.21 250.62C189.85 249.46 185.89 247.59 182.38 245.17C177.42 246.96 171.9 247.32 166.41 245.87C161.81 244.65 157.81 242.3 154.62 239.2C164.2 244.27 175.94 242.97 183.91 238.18C195.8 246.29 229.67 245.56 241.22 208C242.05 213.1 241.85 218.45 240.44 223.77Z" fill="#2D8A52"/>
<path d="M241.34 177.73C241.14 178.07 240.93 178.41 240.72 178.74C238.28 182.55 234.96 185.65 231.13 187.84L218.3 187.15L241.34 177.73Z" fill="#2D8A52"/>
<path d="M159.64 205.59L147.93 211.22C146.34 209.71 144.88 208.06 143.57 206.31L159.63 205.59H159.64Z" fill="#2D8A52"/>
<path d="M141.33 213.74C137.82 213.45 135.2 210.38 135.48 206.87C135.51 206.49 135.57 206.12 135.67 205.78C136.03 205.74 136.4 205.74 136.77 205.77C140.28 206.05 142.9 209.13 142.62 212.64C142.59 213.01 142.53 213.38 142.44 213.73C142.08 213.77 141.71 213.77 141.33 213.74Z" fill="#247C48"/>
<path d="M213.78 132.52C213.82 130.47 215.51 128.83 217.56 128.86C217.78 128.86 218 128.89 218.2 128.93C218.24 129.14 218.25 129.35 218.25 129.57C218.22 131.63 216.52 133.26 214.47 133.22C214.25 133.22 214.04 133.2 213.83 133.15C213.8 132.94 213.78 132.73 213.79 132.51L213.78 132.52Z" fill="#247C48"/>
<path d="M180.73 273.57L169.87 270.67L206.55 148.1L180.73 273.57Z" fill="#353535"/>
<path d="M187.24 222.88L225.19 217.99L184.96 229.72L187.24 222.88Z" fill="#353535"/>
<path d="M191.86 203.12L166.36 170.57L193.86 195.61L191.86 203.12Z" fill="#353535"/>
<path d="M178.8 132.39C179.58 166.22 152.8 194.26 118.99 195.04C116.24 195.1 113.54 194.99 110.89 194.7C100.25 208.06 83.98 216.77 65.58 217.21C37.15 217.87 12.89 198.52 6.29998 172.04C5.23998 167.83 4.64997 163.44 4.53997 158.93C4.20997 144.68 8.89992 131.5 16.9899 121.05C13.0499 118.48 9.59004 115.19 6.86004 111.35C2.71004 105.5 0.189942 98.3899 0.00994204 90.6799C-0.410058 72.7799 11.8998 57.5501 28.6598 53.6201C28.7998 24.5401 52.05 0.689957 81.3 0.00995673C111.07 -0.670043 135.76 22.8999 136.45 52.6599C136.5 54.7499 136.43 56.81 136.23 58.85C135.74 64.3 134.42 69.5098 132.42 74.3798C147.28 78.0798 160.03 87.2301 168.38 99.6201C174.71 109 178.51 120.24 178.79 132.38L178.8 132.39Z" fill="#5AD68C"/>
<path d="M148.66 62.1599C148.75 66.2999 145.48 69.7301 141.33 69.8301C140.89 69.8401 140.45 69.82 140.03 69.75C139.95 69.33 139.9 68.9 139.89 68.46C139.79 64.31 143.07 60.88 147.21 60.78C147.65 60.78 148.09 60.8001 148.51 60.8701C148.6 61.2801 148.65 61.7199 148.66 62.1599Z" fill="#1DCF65"/>
<path d="M59.9199 109.74C56.0199 111.12 51.7301 109.08 50.3501 105.17C50.2001 104.75 50.09 104.33 50.03 103.9C50.4 103.69 50.79 103.51 51.2 103.37C55.11 101.99 59.4 104.03 60.78 107.93C60.92 108.35 61.0301 108.77 61.1001 109.19C60.7401 109.4 60.3399 109.58 59.9199 109.73V109.74Z" fill="#247C48"/>
<path d="M108.72 51.3C106.22 47.99 106.88 43.29 110.19 40.79C110.55 40.53 110.91 40.2901 111.29 40.1101C111.61 40.3901 111.9 40.7201 112.16 41.0701C114.65 44.3801 113.99 49.0901 110.68 51.5801C110.33 51.8401 109.96 52.08 109.58 52.27C109.27 51.98 108.98 51.66 108.71 51.3H108.72Z" fill="#247C48"/>
<path d="M129.31 137.36C130.45 133.39 134.61 131.08 138.59 132.22C139.01 132.34 139.42 132.5 139.8 132.69C139.76 133.11 139.67 133.54 139.55 133.96C138.41 137.95 134.25 140.25 130.28 139.1C129.85 138.98 129.45 138.82 129.06 138.64C129.11 138.21 129.19 137.78 129.31 137.36Z" fill="#247C48"/>
<path d="M20.4599 41.9599C24.5499 42.5999 27.3499 46.44 26.6999 50.53C26.6299 50.97 26.5298 51.4 26.3898 51.79C25.9598 51.79 25.53 51.7699 25.1 51.6999C21 51.0599 18.2001 47.2098 18.8601 43.1298C18.9201 42.6798 19.0299 42.27 19.1699 41.86C19.5899 41.85 20.0299 41.8799 20.4699 41.9499L20.4599 41.9599Z" fill="#28D16C"/>
<path d="M178.8 132.39C179.58 166.22 152.8 194.26 118.99 195.04C116.24 195.1 113.54 194.99 110.89 194.7C100.25 208.06 83.9801 216.77 65.5801 217.21C37.1501 217.87 12.89 198.52 6.30005 172.04C15.54 189.97 88.49 213.66 112.52 166.63C141.53 174.42 181.89 148.69 168.4 99.6299C174.73 109.01 178.53 120.25 178.81 132.39H178.8Z" fill="#208046"/>
<path d="M136.24 58.8501C135.75 64.3001 134.43 69.5099 132.43 74.3799L111.23 80.29L136.24 58.8501Z" fill="#208046"/>
<path d="M97.99 276.75L80.1201 277.17L81.48 43.5701L97.99 276.75Z" fill="#353535"/>
<path d="M82.0801 172.02L30.4399 132.12L83.0601 183.43L82.0801 172.02Z" fill="#353535"/>
<path d="M87.25 158.97L133.57 98.1499L86.9199 144.78L87.25 158.97Z" fill="#353535"/>
<path d="M81.8 87.9199L69.6001 69.3601L82.1001 81.8501L81.8 87.9199Z" fill="#353535"/>
<path d="M31.2 115.46L16.98 121.04C13.04 118.47 9.5901 115.18 6.8501 111.34L31.2 115.46Z" fill="#208046"/>
<path d="M113.4 273.8L104.8 273.51L111.48 271.38C109.38 268.94 106.43 266.05 102.51 263.43L95.8301 269.34L100.22 262C97.7 260.53 94.8301 259.21 91.6001 258.18L86.6499 268.29L87.6101 257.11C85.4401 256.64 83.1299 256.28 80.6599 256.11C77.5899 255.9 74.6 256.01 71.71 256.35L72.99 269.08L69.8701 256.6C66.6101 257.11 63.49 257.92 60.54 258.94C62.93 263.68 67.9399 271.95 67.9399 271.95L57.8301 259.94C55.7401 260.78 53.7501 261.69 51.8601 262.67C54.7501 266.98 60.25 272.48 60.25 272.48L45.8501 266.15C37.5101 271.52 32.46 277 32.46 277H115.46C115.46 277 114.79 275.72 113.38 273.8H113.4Z" fill="#92E9B5"/>
</svg>
