<svg width="98" height="20" viewBox="0 0 98 20" fill="none" xmlns="http://www.w3.org/2000/svg">
<path d="M66.3101 17.4099L59.26 17.1799L64.74 15.4499C63.02 13.4699 60.61 11.13 57.39 9.01L51.92 13.8L55.51 7.86009C53.45 6.67009 51.1 5.60001 48.46 4.77001L44.4 12.9499L45.1899 3.89989C43.3999 3.50989 41.51 3.23007 39.49 3.09007C36.97 2.92007 34.52 3.01002 32.16 3.28002L33.21 13.5801L30.65 3.48998C27.98 3.89998 25.42 4.54987 23.01 5.37987C24.96 9.20987 29.0699 15.9099 29.0699 15.9099L20.79 6.18993C19.08 6.86993 17.44 7.60989 15.9 8.39989C18.26 11.8899 22.77 16.3401 22.77 16.3401L10.97 11.22C4.13997 15.56 0 20 0 20H68C68 20 67.4601 18.9699 66.3 17.4099H66.3101Z" fill="#2D8A52"/>
<path d="M98 20H26C26 20 40.29 0 41.71 0C43.14 0 74.57 8.05008 76.28 8.33008C78 8.62008 97.99 20 97.99 20H98Z" fill="#826B67"/>
<path d="M90.99 18.4299C85.11 15.0399 77.3499 10.64 76.3199 10.47C74.6299 10.19 43.67 2 42.27 2C41.9 2 40.64 3.42 39 5.5C48.74 16.66 58.17 18.9399 58.17 18.9399L65.5601 17.03L64.08 20C64.08 20 79.98 19.0499 91 18.4199L90.99 18.4299Z" fill="#968178"/>
</svg>
