<svg width="95" height="78" viewBox="0 0 95 78" fill="none" xmlns="http://www.w3.org/2000/svg">
<path d="M94.25 45.95C94 42.7 92.45 39.62 90.01 37.47C89.16 36.72 88.2699 36.1399 87.3399 35.6899C87.5499 34.6099 87.62 33.5099 87.53 32.4299C87.27 28.9999 85.6499 25.77 83.0799 23.5C80.6499 21.37 77.8999 20.5 74.8499 20.3C74.1299 18.31 72.9099 16.5001 71.3199 15.1001C68.6299 12.7301 65.52 12 62.04 12C55.35 12 50.24 18.72 50.43 25.02C47.59 26.92 45.57 30.14 45.01 33.51C43.15 34.27 41.5399 35.3999 40.1899 36.9199C37.9199 39.4999 36.77 42.9599 37.04 46.3799C37.29 49.6999 38.8699 52.83 41.3599 55.03C42.2799 55.65 43.1999 56.2699 44.1199 56.8799C46.2399 57.9199 48.4699 58.3499 50.8199 58.1899C51.9099 57.9599 52.9899 57.73 54.0699 57.5C54.6399 57.3 55.1899 57.06 55.7099 56.79C55.8699 56.95 56.0399 57.11 56.2099 57.26C57.3199 58 58.42 58.75 59.53 59.49C62.06 60.72 64.74 61.24 67.56 61.05L71.4599 60.23C72.9999 59.68 74.4 58.92 75.66 57.96C77.79 59.09 80.12 59.48 82.66 59.48C89.53 59.48 94.7399 52.4 94.2399 45.96L94.25 45.95Z" fill="#1D6D3E"/>
<path d="M67.11 77.4199L62.24 77.3899L64.41 22.0901L67.11 77.4199Z" fill="#353535"/>
<path d="M63.58 57.0801L49.83 45.8101L63.76 60.1899L63.58 57.0801Z" fill="#353535"/>
<path d="M65.09 53.5701L78.17 37.3601L65.11 49.7L65.09 53.5701Z" fill="#353535"/>
<path d="M64.15 34.1699L60.97 29.03L64.28 32.52L64.15 34.1699Z" fill="#353535"/>
<path d="M45.49 48.7699C45.36 47.0499 44.7001 45.41 43.6501 44.0599C44.2801 42.6899 44.57 41.1598 44.45 39.6398C44.27 37.3298 43.18 35.14 41.44 33.61C40.79 33.18 40.1601 32.75 39.5101 32.32C38.3801 31.77 37.2 31.4598 35.98 31.3998C34.71 29.0998 32.14 27.7799 29.35 27.7799C27.83 27.7799 26.4501 28.4098 25.3701 29.3998C24.75 28.9898 24.1301 28.5698 23.5201 28.1598C21.6801 27.2598 19.75 26.8799 17.71 27.0299C16.77 27.2299 15.8301 27.43 14.8901 27.62C13.0601 28.28 11.5 29.3299 10.21 30.7799C10.15 30.8499 10.0901 30.9199 10.0301 30.9899C9.08008 30.6899 8.07005 30.57 6.99005 30.57C2.86004 30.58 -0.279926 34.8399 0.0200744 38.7099C0.160074 40.6099 1.05001 42.4199 2.45001 43.7099C1.72001 45.4899 1.40009 47.43 1.54009 49.37C1.79009 52.55 3.30001 55.5698 5.70001 57.6898L8.36004 59.4699C10.4 60.4699 12.5401 60.8899 14.8001 60.7299C14.8901 60.7099 14.98 60.6898 15.07 60.6698C16.55 61.7298 18.23 62.08 20.09 62.08C21.54 62.08 22.87 61.5499 23.97 60.7099C24.67 60.7599 25.38 60.8 26.09 60.84C27.55 61.96 29.22 62.32 31.07 62.32C33.73 62.32 35.9501 60.4698 37.0401 58.1298C37.1801 58.1298 37.32 58.1298 37.46 58.1298C42.22 58.1298 45.83 53.2299 45.49 48.7699Z" fill="#1D6D3E"/>
<path d="M27.01 75.3201L21.99 75.29L24.22 35.6499L27.01 75.3201Z" fill="#353535"/>
<path d="M24.3101 47.28L19.01 44.3201L24.5 50.5L24.3101 47.28Z" fill="#353535"/>
<path d="M24.9301 55.28L31.48 45.48L24.95 51.29L24.9301 55.28Z" fill="#353535"/>
<path d="M58.41 45.59C57.36 43.77 58.21 42.1799 60.31 42.1799H60.7199C62.8199 42.1799 63.6699 40.7999 62.6199 38.9899L57.51 30.2499C56.46 28.4399 56.9599 26.9699 58.6199 26.9699C60.2899 26.9699 60.7899 25.4999 59.7399 23.6799L55.17 15.83C54.12 14.01 52.3899 11.0399 51.3399 9.2199L46.77 1.36003C45.72 -0.459968 43.9899 -0.449968 42.9399 1.36003L38.3799 9.22991C37.32 11.0399 35.6 14.02 34.54 15.83L29.9799 23.6999C28.9199 25.5099 29.4199 26.9999 31.0899 26.9999C32.7499 26.9999 33.2499 28.49 32.1999 30.31L27.0999 38.9899C26.0399 40.7999 26.8999 42.1799 28.9999 42.1799H29.4C31.5 42.1799 32.36 43.77 31.3 45.59L23.9699 58.33C22.9199 60.14 23.7799 61.7299 25.8699 61.7299H63.8199C65.9199 61.7299 66.7799 60.14 65.7199 58.33L58.39 45.59H58.41Z" fill="#28D16C"/>
<path d="M41.46 76.95L46.78 76.9299L44.41 12.99L41.46 76.95Z" fill="#353535"/>
<path d="M45.3199 51.23L53.37 42.4199L45.12 54.6399L45.3199 51.23Z" fill="#353535"/>
<path d="M43.67 47.3899L36.36 36.6599L43.65 43.1699L43.67 47.3899Z" fill="#353535"/>
<path d="M44.6899 26.2L46.77 23.3701L44.5601 24.3899L44.6899 26.2Z" fill="#353535"/>
</svg>
