<svg width="115" height="153" viewBox="0 0 115 153" fill="none" xmlns="http://www.w3.org/2000/svg">
<path d="M114.09 83.6699C116.08 104.46 100.83 122.92 80.06 124.91C75.57 125.33 71.1999 124.96 67.0699 123.9C63.0399 127.3 57.9799 129.55 52.3299 130.1C47.5899 130.55 43.0299 129.74 38.9599 127.94C30.3799 124.14 24.0499 115.95 23.0899 105.94C23.0299 105.3 23.0099 104.66 22.9899 104.02C20.9699 103.16 19.0299 102.12 17.1999 100.92C7.87989 94.8599 1.30999 84.76 0.169987 72.83C-1.00001 60.53 3.85989 49.05 12.3199 41.31C10.6299 38.15 9.51998 34.6 9.15998 30.81C7.69998 15.48 18.93 1.86986 34.26 0.399856C43.92 -0.520144 52.8999 3.61984 58.5899 10.6298C61.6899 9.00984 65.1499 7.94004 68.8499 7.59004C84.1799 6.13004 97.7899 17.3599 99.2499 32.6899C99.4999 35.2499 99.3899 37.7799 98.9499 40.1999C98.8799 40.5899 98.8099 40.9701 98.7299 41.3601C97.7599 45.7701 95.73 49.8299 92.89 53.2199C99.77 56.5499 105.55 61.9101 109.35 68.6201C111.91 73.1101 113.58 78.1999 114.09 83.6799V83.6699Z" fill="#20AC58"/>
<path d="M114.09 83.6799C116.08 104.47 100.83 122.93 80.0601 124.91C75.5701 125.34 71.1999 124.96 67.0699 123.91C63.0499 127.31 57.98 129.56 52.33 130.1C47.59 130.56 43.03 129.75 38.96 127.94C49.71 129.38 60.27 124.08 66.08 116.82C80.04 120.3 111.56 107.86 109.35 68.6201C111.9 73.1201 113.57 78.2099 114.09 83.6899V83.6799Z" fill="#2D8A52"/>
<path d="M98.95 40.2C98.88 40.59 98.81 40.9701 98.73 41.3601C97.76 45.7701 95.73 49.83 92.89 53.22L80.62 57.02L98.96 40.2H98.95Z" fill="#2D8A52"/>
<path d="M32 94.6799L22.98 104.02C20.96 103.16 19.0199 102.12 17.1899 100.93L32 94.6799Z" fill="#2D8A52"/>
<path d="M17.66 108.67C14.27 109.63 10.75 107.65 9.79004 104.26C9.69004 103.9 9.61997 103.53 9.58997 103.18C9.90997 103.02 10.26 102.89 10.62 102.79C14.01 101.83 17.54 103.81 18.49 107.2C18.6 107.56 18.66 107.92 18.7 108.28C18.37 108.44 18.03 108.58 17.66 108.67Z" fill="#247C48"/>
<path d="M57.4201 7.36011C56.7501 5.42011 57.76 3.30012 59.7 2.62012C59.91 2.54012 60.12 2.48996 60.32 2.45996C60.43 2.64996 60.51 2.84004 60.59 3.04004C61.27 4.98004 60.2501 7.11003 58.3101 7.78003C58.1001 7.86003 57.8999 7.90994 57.6899 7.93994C57.5799 7.74994 57.5001 7.5601 57.4201 7.3501V7.36011Z" fill="#247C48"/>
<path d="M75.38 151.12L64.1899 152.16L56.04 24.49L75.38 151.12Z" fill="#353535"/>
<path d="M63.9 101.32L97.78 83.5601L64.13 108.52L63.9 101.32Z" fill="#353535"/>
<path d="M61.37 81.1799L26.15 59.51L60.63 73.4399L61.37 81.1799Z" fill="#353535"/>
</svg>
