<svg width="67" height="64" viewBox="0 0 67 64" fill="none" xmlns="http://www.w3.org/2000/svg">
<path d="M14.9001 8.89982C13.3101 3.81982 14.2101 0.879974 12.5201 0.559974C11.6601 0.389974 11.0401 1.59994 9.6701 3.51994C9.1601 4.24994 5.14008 4.28 4.53008 3.59C2.44008 1.27 3.36008 -0.170065 1.40008 0.0199351C0.270076 0.119935 -0.309904 5.20989 0.170096 9.71989C0.460096 12.4699 2.15007 17.8099 3.77007 17.7299C5.56007 17.6499 5.64 19.5799 5.95 21.0299C6.43 23.3899 4.17007 24.8798 5.52007 28.8798C6.53007 31.8698 8.46999 30.9199 10.44 34.6999C11.87 37.4199 10.5401 38.62 11.2701 41.62C12.3001 45.91 15.0401 42.9199 25.6401 54.0199C29.2901 57.8499 33.8301 59.05 36.7501 58.86C40.2001 58.64 41.5901 54.6599 43.5301 55.2399C45.4101 55.8099 44.59 59.18 46.82 62.06C48.57 64.32 54.81 64.09 60.47 63.86C64.98 63.67 65.23 60.9199 66.44 56.6899C66.72 55.7399 67.7901 51.9599 65.9301 49.9799C64.2801 48.2199 61.8201 49.47 59.7601 47.29C59.4101 46.92 58.38 45.72 58.33 44.09C58.24 41.31 61.3 40.7198 61.2 38.4098C60.9 31.2698 56.86 35.1599 55.86 30.7699C55.39 28.7099 55.85 26.5499 55.96 26.0199C56.32 24.3599 56.8101 23.7898 57.3001 22.4098C57.5801 21.6098 55.72 18.08 54.58 15.36C53.11 11.86 51.1 10.75 47.23 10.12C43.47 9.52003 40.6 8.8999 37.47 10.2299C34.14 11.6299 34.19 13.82 30.57 14.12C26.46 14.46 25.23 13.6499 21.73 13.9899C17.27 14.4299 16.5101 13.9698 14.9101 8.88981L14.9001 8.89982Z" fill="#28D16C"/>
<path d="M46.4399 25.26L32.4 39.4399C31.66 40.1899 30.45 40.1899 29.7 39.4399L27.4 37.1101L23.5601 33.23C22.8101 32.48 22.8101 31.26 23.5601 30.51L24.52 29.54C25.26 28.79 26.47 28.79 27.21 29.54L29.7 32.05C30.45 32.8 31.65 32.8 32.4 32.05L42.79 21.5601C43.53 20.8101 44.74 20.8101 45.48 21.5601L46.4399 22.53C47.1899 23.28 47.1899 24.5 46.4399 25.25V25.26Z" fill="#353535"/>
</svg>
