<svg width="40" height="49" viewBox="0 0 40 49" fill="none" xmlns="http://www.w3.org/2000/svg">
<path d="M23.48 31.745C23.39 32.555 23.23 33.399 22.98 34.276C22.73 35.157 22.3799 36.071 21.9399 37.021C21.8999 37.115 21.8601 37.211 21.8101 37.308C21.8801 38.099 21.9999 39.233 22.1699 40.33C22.3299 41.334 22.54 42.311 22.8 42.965L19.8401 42.472C19.9901 42.055 20.14 41.554 20.26 40.971C20.53 39.653 20.6501 37.932 20.3101 35.887C20.2201 35.284 20.0799 34.65 19.9199 34.009C19.6799 33.075 19.37 32.115 18.96 31.151C17.96 28.799 16.41 26.428 14.03 24.366C13.16 23.606 12.1701 22.892 11.0601 22.235C12.3101 23.259 13.4101 24.266 14.3701 25.354C15.4301 26.558 16.31 27.862 17.02 29.403C17.89 31.281 18.5001 33.512 18.8601 36.348C18.9301 36.891 18.99 37.465 19.04 38.055C19.07 38.352 19.0901 38.656 19.1101 38.969C18.9901 38.993 18.86 39.009 18.74 39.023C18.18 39.103 17.6401 39.153 17.1201 39.193C16.6401 39.223 16.18 39.233 15.74 39.229C11.87 39.176 9.3599 37.772 7.6499 35.597C3.3199 30.103 4.05002 19.733 0.52002 14.156C4.92002 14.8 9.86003 16.078 14.03 18.146C15.99 19.12 17.78 20.267 19.26 21.605C19.58 21.885 19.8699 22.175 20.1499 22.472C22.5099 24.94 23.86 28.002 23.48 31.745Z" fill="#28D16C"/>
<path d="M22.8 42.965L19.8401 42.472C19.9901 42.055 20.14 41.554 20.26 40.971L22.1699 40.33C22.3299 41.334 22.54 42.311 22.8 42.965Z" fill="#111111"/>
<path d="M32.9399 22.732C32.6399 24.61 31.84 26.351 30.28 27.882C29.56 28.579 28.6899 29.233 27.6399 29.837C27.2499 30.057 26.8499 30.267 26.4099 30.477C25.9799 30.677 25.5401 30.874 25.0601 31.057C25.4101 27.689 24.3499 24.87 22.4099 22.542C22.1899 22.282 21.97 22.032 21.74 21.785C21.51 18.593 22.24 15.841 23.47 12.709C21.81 15.557 21.0401 18.336 20.8501 20.917C19.3601 19.58 17.5701 18.433 15.6101 17.459C17.2101 11.084 23.19 4.79401 28.76 0.531006C28.39 7.11801 34.0599 15.827 32.9399 22.732Z" fill="#28D16C"/>
<path d="M39.04 48.345H4.59009C9.20009 44.333 15.2201 41.901 21.8101 41.901C28.4101 41.901 34.43 44.333 39.04 48.345Z" fill="#EA3636"/>
<path d="M30.28 27.882C29.56 28.579 28.6899 29.233 27.6399 29.837C27.2499 30.057 26.8499 30.267 26.4099 30.477C25.9799 30.677 25.5401 30.874 25.0601 31.057C25.4101 27.689 24.3499 24.87 22.4099 22.542L30.28 27.882Z" fill="#111111"/>
</svg>
