<svg width="46" height="49" viewBox="0 0 46 49" fill="none" xmlns="http://www.w3.org/2000/svg">
<path d="M45.28 23.366H16.04V31.078H45.28V23.366Z" fill="#BC2626"/>
<path d="M16.04 23.366H0.180054V31.078H16.04V23.366Z" fill="#EA3636"/>
<path d="M17.75 31.078H3.93005V48.822H17.75V31.078Z" fill="#EA3636"/>
<path d="M41.52 31.078H17.75V48.822H41.52V31.078Z" fill="#BC2626"/>
<path d="M10.14 23.366H6.07996V31.078H10.14V23.366Z" fill="#111111"/>
<path d="M32.6899 23.366H28.63V31.078H32.6899V23.366Z" fill="#111111"/>
<path d="M31.66 31.078H27.61V48.822H31.66V31.078Z" fill="#111111"/>
<path d="M11.6 31.078H7.55005V48.822H11.6V31.078Z" fill="#111111"/>
<path d="M26.85 23.366H24.1899C24.4299 22.108 24.5 20.047 23.64 17.542C23.47 17.028 23.26 16.495 23.02 15.958C21.53 12.566 18.7301 8.95999 13.5601 6.95899C17.8401 9.42299 20.5799 11.938 22.4399 18.156C22.5899 18.619 22.72 19.11 22.85 19.62C22.92 19.877 22.98 20.137 23.05 20.411C22.94 20.451 22.83 20.481 22.73 20.511C22.25 20.661 21.79 20.784 21.34 20.894C20.93 20.991 20.53 21.068 20.14 21.131C16.74 21.648 14.35 20.788 12.54 19.136C7.95004 14.967 7.07004 5.79399 3.17004 1.43799C14.05 1.22099 29.21 4.61998 25.16 18.566C25.5 19.87 26.17 22.252 26.85 23.369V23.366Z" fill="#28D16C"/>
<path d="M35.79 0.0540161C37.08 7.87902 36.23 19.123 26.02 18.006C26.17 17.525 26.28 17.062 26.38 16.618C28.97 15.241 31.81 12.742 32.84 8.24597C31.6 11.355 30.2 13.523 26.6 15.414C27.09 12.032 26.2 9.66001 24.54 7.87201C27.46 4.69001 33.25 3.08902 35.79 0.0540161Z" fill="#247C48"/>
<path d="M21.98 31.078L41.52 37.098V31.078H21.98Z" fill="#111111"/>
</svg>
