<svg width="52" height="49" viewBox="0 0 52 49" fill="none" xmlns="http://www.w3.org/2000/svg">
<path d="M39.02 36.657L37.1799 37.241L29.4299 39.692L21 42.364L13.25 44.819L2.63988 48.181C1.41988 48.565 0.279914 47.421 0.669914 46.207L2.66991 39.893L4.34008 34.612L6.1599 28.862L7.83007 23.582L12.1899 9.83002C12.2499 12.338 16.8399 18.779 23.4499 25.39C30.0599 32.001 36.5 36.594 39.01 36.654L39.02 36.657Z" fill="#EA3636"/>
<path d="M39.8501 36.394L39.02 36.657C36.51 36.597 30.07 32.004 23.46 25.393C16.85 18.782 12.2499 12.345 12.1899 9.83299L12.46 9.002C13.95 7.511 21.2901 12.435 28.8501 20C36.4201 27.564 41.3401 34.906 39.8501 36.394Z" fill="#111111"/>
<path d="M39.8501 36.394C39.6601 36.584 39.38 36.667 39.02 36.657L39.8501 36.394Z" fill="#FF0000"/>
<path d="M35.38 5.75403C27.49 11.397 24.6101 14.389 24.2601 17.911C23.9301 21.15 26.2001 22.348 27.7901 22.158C27.6101 24.306 28.0102 26.367 29.3602 28.322L29.8402 27.988C28.6402 26.247 28.2602 24.389 28.3702 22.444C28.5302 19.809 29.63 17.011 30.92 14.119C29.21 19.056 28.7701 22.521 29.2201 23.462C31.0301 25.003 34.34 25.36 35.97 23.152C39.7701 18.022 33.45 9.84302 35.38 5.75702V5.75403Z" fill="#28D16C"/>
<path d="M29.22 3.26504C30.2 3.60204 31.0499 4.05604 31.6499 4.54604L31.3201 4.94601C30.8201 4.53901 30.1301 4.15602 29.3301 3.84902C27.0701 2.98202 23.87 2.745 21.21 4.329C24.02 3.152 27.2401 3.20502 29.3301 4.70302C29.3301 4.77302 29.3201 4.84003 29.3101 4.90603C28.9701 7.13403 26.8699 8.23504 24.6599 8.21804C21.5199 8.19504 17.9301 6.43403 16.3601 8.35903C19.4301 -0.606969 28.03 -0.670964 29.22 3.26504Z" fill="#247C48"/>
<path d="M39.3799 21.254C38.6099 21.704 37.97 22.228 37.55 22.741L37.8899 23.025C38.2399 22.598 38.7599 22.161 39.3799 21.767C41.1499 20.657 43.8101 19.923 46.3301 20.813C43.7501 20.29 41.04 20.8699 39.52 22.4879C39.54 22.5449 39.5601 22.601 39.5801 22.658C40.2401 24.482 42.2 25.063 44.05 24.679C46.71 24.132 49.4401 22.048 51.0901 23.408C47.0001 16.35 39.7199 17.731 39.3799 21.254Z" fill="#247C48"/>
<path d="M20.1599 15.727C20.8699 15.727 21.4399 15.153 21.4399 14.446C21.4399 13.739 20.8699 13.165 20.1599 13.165C19.4499 13.165 18.8799 13.739 18.8799 14.446C18.8799 15.153 19.4499 15.727 20.1599 15.727Z" fill="#28D16C"/>
<path d="M41.1899 29.926C41.6799 29.926 42.0701 29.532 42.0701 29.045C42.0701 28.559 41.6799 28.165 41.1899 28.165C40.6999 28.165 40.3101 28.559 40.3101 29.045C40.3101 29.532 40.6999 29.926 41.1899 29.926Z" fill="#28D16C"/>
<path d="M40.3101 15.607C41.1101 15.607 41.76 14.959 41.76 14.159C41.76 13.36 41.1101 12.711 40.3101 12.711C39.5101 12.711 38.8601 13.36 38.8601 14.159C38.8601 14.959 39.5101 15.607 40.3101 15.607Z" fill="#28D16C"/>
<path d="M37.1799 37.241L29.4299 39.692L6.15991 28.865L7.83008 23.589L37.1799 37.241Z" fill="#111111"/>
<path d="M21 42.368L13.25 44.822L2.66992 39.896L4.34009 34.616L21 42.368Z" fill="#111111"/>
</svg>
