<svg width="39" height="39" viewBox="0 0 39 39" fill="none" xmlns="http://www.w3.org/2000/svg">
<path d="M15.11 27.282C11.9 28.949 9.69995 32.308 9.69995 36.174V38.265H0.589966V24.45C0.589966 19.607 4.51999 15.677 9.35999 15.677C10.78 15.677 12.1201 16.014 13.3101 16.618C12.4401 17.869 11.9399 19.39 11.9399 21.021C11.9399 23.586 13.19 25.864 15.11 27.282Z" fill="#28D16C"/>
<path d="M9.35999 12.512C12.64 12.512 15.3101 9.84797 15.3101 6.56097C15.3101 3.27497 12.64 0.611023 9.35999 0.611023C6.06999 0.611023 3.41003 3.27497 3.41003 6.56097C3.41003 9.84797 6.06999 12.512 9.35999 12.512Z" fill="#28D16C"/>
<path d="M38.83 24.45V38.265H29.72V36.174C29.72 32.308 27.52 28.949 24.3 27.282C26.23 25.867 27.48 23.589 27.48 21.021C27.48 19.39 26.97 17.869 26.1 16.618C27.29 16.014 28.6301 15.677 30.0601 15.677C34.9001 15.677 38.8199 19.607 38.8199 24.45H38.83Z" fill="#28D16C"/>
<path d="M19.71 28.586C23.89 28.586 27.3 31.985 27.3 36.174V38.265H12.12V36.174C12.12 31.988 15.52 28.586 19.71 28.586Z" fill="#EA3636"/>
<path d="M30.0601 12.512C33.3501 12.512 36.01 9.84797 36.01 6.56097C36.01 3.27497 33.3501 0.611023 30.0601 0.611023C26.7701 0.611023 24.11 3.27497 24.11 6.56097C24.11 9.84797 26.7701 12.512 30.0601 12.512Z" fill="#28D16C"/>
<path d="M19.71 26.364C22.66 26.364 25.05 23.972 25.05 21.021C25.05 18.07 22.66 15.677 19.71 15.677C16.76 15.677 14.37 18.07 14.37 21.021C14.37 23.972 16.76 26.364 19.71 26.364Z" fill="#EA3636"/>
</svg>
