<svg width="51" height="39" viewBox="0 0 51 39" fill="none" xmlns="http://www.w3.org/2000/svg">
<path d="M43.42 4.95398L40.41 15.884L38.36 23.299L34.21 38.316H0.75L9.95996 4.95398H43.42Z" fill="#28D16C"/>
<path d="M50.75 38.316H34.21L43.42 4.95398L50.75 38.316Z" fill="#247C48"/>
<path d="M25.3 33.449L26.48 33.719C26.48 33.719 26.62 30.967 26.64 29.64C32.17 20.657 22.21 15.35 14.55 13.399C16.44 17.202 15.2801 23.793 17.6801 27.598C18.6301 29.106 20.14 30.174 22.62 30.464C22.9 30.497 23.2 30.52 23.51 30.534C23.84 30.547 24.19 30.55 24.55 30.534C24.63 30.534 24.71 30.534 24.79 30.527C24.8 30.324 24.8001 30.127 24.8101 29.937C24.8101 29.553 24.8101 29.186 24.8101 28.833C24.7001 24.116 23.27 21.828 20.76 19.276C23.99 21.675 25.25 24.74 25.64 27.405C25.7 27.825 25.75 28.239 25.77 28.636C25.94 31.381 25.29 33.452 25.29 33.452L25.3 33.449Z" fill="#111111"/>
<path d="M40.41 15.884L38.36 23.299L22.55 4.95398H30.98L40.41 15.884Z" fill="#111111"/>
<path d="M17.73 4.95398H16.39C16.28 3.26598 15.41 1.90198 14.38 1.90198C13.28 1.90198 12.35 3.45903 12.35 5.30103C12.35 7.14203 13.28 8.69598 14.38 8.69598C14.74 8.69598 15.05 8.99598 15.05 9.36298C15.05 9.72998 14.74 10.03 14.38 10.03C12.49 10.03 11.02 7.95203 11.02 5.30103C11.02 2.64903 12.49 0.567993 14.38 0.567993C16.26 0.567993 17.61 2.46498 17.73 4.95398Z" fill="#247C48"/>
<path d="M25.34 4.95398H24.01C23.9 3.26598 23.02 1.90198 21.99 1.90198C20.97 1.90198 20.09 3.26598 19.98 4.95398C19.97 5.06698 19.97 5.18403 19.97 5.30103C19.97 5.80103 20.03 6.27798 20.16 6.71198C20.48 7.87197 21.19 8.69598 21.99 8.69598C22.36 8.69598 22.66 8.99598 22.66 9.36298C22.66 9.72998 22.36 10.03 21.99 10.03C20.46 10.03 19.19 8.65298 18.78 6.71198C18.68 6.26797 18.63 5.79403 18.63 5.30103C18.63 5.18403 18.63 5.06698 18.64 4.95398C18.76 2.46498 20.19 0.567993 21.99 0.567993C23.79 0.567993 25.22 2.46498 25.34 4.95398Z" fill="#247C48"/>
<path d="M32.96 4.95398H31.62C31.51 3.26598 30.63 1.90198 29.6 1.90198C28.58 1.90198 27.7 3.26598 27.59 4.95398C27.58 5.06698 27.58 5.18403 27.58 5.30103C27.58 5.80103 27.65 6.27798 27.77 6.71198C28.1 7.87197 28.8 8.69598 29.6 8.69598C29.98 8.69598 30.27 8.99598 30.27 9.36298C30.27 9.72998 29.98 10.03 29.6 10.03C28.07 10.03 26.81 8.65298 26.39 6.71198C26.3 6.26797 26.25 5.79403 26.25 5.30103C26.25 5.18403 26.25 5.06698 26.26 4.95398C26.38 2.46498 27.8 0.567993 29.6 0.567993C31.41 0.567993 32.84 2.46498 32.96 4.95398Z" fill="#247C48"/>
<path d="M40.5699 4.95398H39.23C39.12 3.26598 38.25 1.90198 37.22 1.90198C36.19 1.90198 35.32 3.26598 35.21 4.95398C35.2 5.06698 35.2 5.18403 35.2 5.30103C35.2 5.80103 35.26 6.27798 35.39 6.71198C35.71 7.87197 36.42 8.69598 37.22 8.69598C37.59 8.69598 37.89 8.99598 37.89 9.36298C37.89 9.72998 37.59 10.03 37.22 10.03C35.69 10.03 34.42 8.65298 34.01 6.71198C33.91 6.26797 33.86 5.79403 33.86 5.30103C33.86 5.18403 33.86 5.06698 33.87 4.95398C33.99 2.46498 35.42 0.567993 37.22 0.567993C39.02 0.567993 40.4499 2.46498 40.5699 4.95398Z" fill="#247C48"/>
</svg>
