<svg width="50" height="39" viewBox="0 0 50 39" fill="none" xmlns="http://www.w3.org/2000/svg">
<path d="M25 15.704H36.79L46.53 38.366H34.75L25 15.704Z" fill="#247C48"/>
<path d="M45.28 0.513977L40.05 18.769L38.17 25.314L34.4399 38.369H0.97998L11.8101 0.513977H45.28Z" fill="#28D16C"/>
<path d="M40.85 3.84998L40.55 4.90002H15.38L6.75 35.033H5.40002L14.33 3.84998H40.85Z" fill="#111111"/>
<path d="M40.55 4.90002L31.92 35.033H6.75L15.38 4.90002H40.55Z" fill="white"/>
<path d="M34.4399 38.366H39.42L49.49 3.17297L45.28 0.513977L34.4399 38.366Z" fill="#111111"/>
<path d="M27.23 23.716C27.01 23.062 27.45 22.485 28.21 22.485H28.36C29.12 22.485 29.54 21.988 29.32 21.335L28.23 18.186C28.01 17.532 28.3201 17.005 28.9201 17.005C29.5201 17.005 29.83 16.475 29.6 15.821L28.64 12.989C28.41 12.335 28.05 11.265 27.82 10.611L26.86 7.77602C26.63 7.12202 26.01 7.12202 25.48 7.77602L23.15 10.611C22.61 11.265 21.74 12.335 21.2 12.992L18.88 15.828C18.34 16.481 18.39 17.018 18.99 17.018C19.59 17.018 19.65 17.555 19.11 18.209L16.52 21.338C15.98 21.992 16.1701 22.489 16.9301 22.489H17.08C17.83 22.489 18 23.062 17.47 23.719L13.73 28.309C13.19 28.963 13.36 29.537 14.12 29.537H27.7901C28.5501 29.537 29 28.963 28.77 28.309L27.23 23.719V23.716Z" fill="#28D16C"/>
<path d="M18.42 35.017L20.34 35.007L25 11.968L18.42 35.017Z" fill="#111111"/>
<path d="M22.03 25.747L25.6899 22.572L21.66 26.975L22.03 25.747Z" fill="#111111"/>
<path d="M21.76 24.363L20.0601 20.497L22.12 22.842L21.76 24.363Z" fill="#111111"/>
<path d="M23.96 16.726L24.96 15.704L24.0699 16.078L23.96 16.726Z" fill="#111111"/>
<path d="M40.05 18.769L38.17 25.314L16.21 0.513977H23.88L40.05 18.769Z" fill="#111111"/>
</svg>
