<svg width="41" height="51" viewBox="0 0 41 51" fill="none" xmlns="http://www.w3.org/2000/svg">
<path d="M22.5801 40.24C22.5601 41.117 22.5299 42.011 22.4299 42.905C22.2299 44.726 21.2501 46.45 19.8401 47.821C19.0901 48.498 18.23 49.099 17.2 49.436L16.95 49.235L17.76 46.807C18.12 45.65 18.4 44.556 18.76 43.425C19.5 41.547 20.14 39.616 20.25 37.615C20.28 37.444 20.3001 37.274 20.3101 37.104C20.3201 36.961 20.3401 36.821 20.3501 36.677C20.5301 34.516 20.42 32.361 20.25 30.17L20.5701 30.11C21.3301 31.974 21.92 33.919 22.26 35.893C22.28 35.977 22.29 36.06 22.3 36.144C22.53 37.501 22.6201 38.872 22.5801 40.24Z" fill="#28D16C"/>
<path d="M40.4299 50.32H0.110107C5.51011 45.623 12.56 42.778 20.27 42.778C27.99 42.778 35.0399 45.623 40.4299 50.32Z" fill="#111111"/>
<path d="M20.3501 36.677C20.5301 34.516 20.42 32.361 20.25 30.17L20.5701 30.11C21.3301 31.974 21.92 33.919 22.26 35.893L20.3501 36.677Z" fill="#111111"/>
<path d="M39.6101 10.483C39.6101 23.982 20.8999 32.475 20.8999 32.475C20.8999 32.475 2.18994 23.982 2.18994 10.483C2.18994 6.99797 4.16001 0.559998 11.76 0.559998C17.84 0.559998 20.8999 5.47699 20.8999 5.47699C20.8999 5.47699 23.96 0.559998 30.04 0.559998C37.64 0.559998 39.6101 6.99797 39.6101 10.483Z" fill="#EA3636"/>
<g opacity="0.6">
<path d="M23.97 25.557C23.59 25.557 23.2 25.37 22.97 25.023C22.6 24.473 22.7501 23.729 23.3101 23.362C25.7901 21.707 29.26 19.056 31.67 15.804C32.06 15.273 32.8201 15.16 33.3501 15.557C33.8801 15.95 33.9901 16.704 33.6001 17.234C30.9801 20.76 27.2799 23.599 24.6299 25.356C24.4299 25.493 24.2 25.557 23.97 25.557Z" fill="white"/>
</g>
<g opacity="0.6">
<path d="M34.3501 12.698C34.2901 12.698 34.2199 12.692 34.1499 12.682C33.4999 12.571 33.0599 11.951 33.1699 11.297C33.2499 10.794 33.3001 10.287 33.3001 9.78998C33.3001 9.12598 33.84 8.59198 34.5 8.59198C35.16 8.59198 35.69 9.12898 35.69 9.78998C35.69 10.45 35.64 11.064 35.53 11.701C35.43 12.285 34.9201 12.698 34.3501 12.698Z" fill="white"/>
</g>
</svg>
