<svg width="48" height="64" viewBox="0 0 48 64" fill="none" xmlns="http://www.w3.org/2000/svg">
<path d="M27.8401 16.883C27.8601 17.173 27.8701 17.46 27.8801 17.74C27.9101 19.081 27.7601 20.305 27.4701 21.293L26.6702 21.059C26.9502 20.122 27.0802 18.951 27.0502 17.67C27.0502 17.59 27.0502 17.51 27.0502 17.427C26.9102 13.521 25.2401 8.62103 21.2101 5.66603C24.6101 8.98503 26.5601 13.608 25.8601 17.573C25.8401 17.704 25.8202 17.834 25.7902 17.964C25.6802 17.994 25.5701 18.027 25.4601 18.05C23.6501 18.517 21.9901 18.104 20.6201 17.147C19.3201 16.243 18.2801 14.848 17.6201 13.254C15.6701 8.57405 16.0102 2.143 12.1602 1.019C27.4002 -0.0880002 32.9301 12.637 27.8401 16.883Z" fill="#EA3636"/>
<path d="M43.73 14.662C41.64 14.228 40.0399 16.479 38.1899 18.581C37.5999 19.255 36.9799 19.912 36.3199 20.462C34.3899 22.046 31.75 22.573 29.87 20.852C29.81 20.802 29.7499 20.746 29.6899 20.692C29.9599 19.728 30.46 18.821 31.14 18.004C32.45 16.436 34.41 15.205 36.59 14.568C34.09 14.932 32.01 16.323 30.54 17.957C29.96 18.597 29.47 19.275 29.08 19.942C28.6 20.779 28.27 21.603 28.12 22.32L27.54 22.2C27.72 21.346 28.14 20.345 28.77 19.341C28.57 18.841 28.49 18.317 28.53 17.79C28.8 13.778 35.69 9.615 43.73 14.662Z" fill="#EA3636"/>
<path d="M20.6201 17.147L25.8601 17.574C25.8401 17.704 25.8102 17.834 25.7802 17.964C25.6702 17.994 25.5701 18.027 25.4601 18.051C23.6501 18.517 21.9901 18.104 20.6201 17.147Z" fill="#111111"/>
<path d="M27.4698 21.293L26.6699 21.059C26.9499 20.122 27.0799 18.951 27.0499 17.67L27.8799 17.74C27.9099 19.081 27.7598 20.305 27.4698 21.293Z" fill="#111111"/>
<path d="M30.54 17.957C29.96 18.598 29.47 19.275 29.08 19.942C28.6 20.779 28.27 21.603 28.12 22.32L27.54 22.2C27.72 21.346 28.14 20.345 28.77 19.341C28.57 18.841 28.49 18.317 28.53 17.79L30.54 17.957Z" fill="#111111"/>
<path d="M38.1899 18.581C37.5999 19.255 36.9799 19.912 36.3199 20.462C34.3899 22.046 31.75 22.573 29.86 20.852C29.8 20.802 29.7499 20.746 29.6899 20.692C29.9599 19.728 30.46 18.821 31.14 18.004L38.1899 18.581Z" fill="#111111"/>
<path d="M33.79 24.074L33.1899 24.421L25.0699 29.124C23.3599 30.115 21.17 29.318 20.5 27.46L17.29 18.638L17.0601 17.987C17.3801 17.107 21.38 17.757 26 19.438C30.62 21.119 34.11 23.194 33.79 24.074Z" fill="#28D16C"/>
<path d="M33.8201 40.872C33.7601 39.721 33.5802 38.601 33.2902 37.523C31.3902 30.439 24.9201 25.205 17.2401 25.205C15.9401 25.205 14.6801 25.355 13.4701 25.639C12.2901 25.912 11.1601 26.309 10.1001 26.823C8.6501 27.51 7.32014 28.404 6.14014 29.461C3.58014 31.769 1.73011 34.861 0.990112 38.354C0.750112 39.471 0.620117 40.632 0.620117 41.819C0.620117 50.982 8.08011 58.434 17.2401 58.434C18.1501 58.434 19.0402 58.36 19.9102 58.217C20.1802 58.173 20.4401 58.123 20.7001 58.067C21.5501 57.89 22.3802 57.643 23.1802 57.333C25.6602 56.382 27.8501 54.851 29.5901 52.91C30.6601 51.733 31.5501 50.405 32.2301 48.961C32.7501 47.897 33.1502 46.766 33.4202 45.589C33.7002 44.378 33.8501 43.117 33.8501 41.819C33.8501 41.502 33.8401 41.186 33.8201 40.872ZM29.6901 46.419C29.1301 47.95 28.2901 49.348 27.2301 50.552C25.8501 52.133 24.1001 53.38 22.1101 54.167C21.0901 54.574 20.0101 54.858 18.8701 54.998C18.4901 55.045 18.1101 55.075 17.7201 55.088C17.5601 55.095 17.4001 55.098 17.2401 55.098C9.92011 55.098 3.96008 49.141 3.96008 41.819C3.96008 41.659 3.96009 41.496 3.97009 41.336C4.10009 37.55 5.83012 34.161 8.50012 31.823C9.71012 30.769 11.1101 29.928 12.6401 29.365C13.8201 28.924 15.0801 28.651 16.4001 28.567C16.6701 28.551 16.9501 28.541 17.2401 28.541C23.2001 28.541 28.2502 32.487 29.9302 37.903C30.2502 38.951 30.4501 40.055 30.5001 41.196C30.5101 41.402 30.5201 41.609 30.5201 41.819C30.5201 42.103 30.5101 42.383 30.4901 42.66C30.4101 43.974 30.1301 45.238 29.6901 46.419Z" fill="#247C48"/>
<path d="M33.2902 37.523H33.2501C32.1101 37.523 31.0002 37.653 29.9302 37.903C30.2502 38.951 30.4501 40.055 30.5001 41.196C31.3801 40.975 32.3001 40.859 33.2501 40.859C33.4401 40.859 33.6301 40.862 33.8201 40.872C33.7601 39.721 33.5802 38.601 33.2902 37.523ZM18.8701 54.998C19.1001 56.122 19.4502 57.199 19.9102 58.217C21.0402 58.033 22.1402 57.736 23.1802 57.333C22.6802 56.352 22.3101 55.288 22.1101 54.167C21.0901 54.574 20.0101 54.858 18.8701 54.998Z" fill="#111111"/>
<path d="M33.2401 63.931C25.1701 63.931 18.6001 57.36 18.6001 49.284C18.6001 41.209 25.1701 34.638 33.2401 34.638C41.3201 34.638 47.8901 41.209 47.8901 49.284C47.8901 57.36 41.3201 63.931 33.2401 63.931ZM33.2401 37.977C27.0101 37.977 21.9302 43.05 21.9302 49.288C21.9302 55.525 27.0101 60.598 33.2401 60.598C39.4801 60.598 44.5502 55.525 44.5502 49.288C44.5502 43.05 39.4801 37.977 33.2401 37.977Z" fill="#247C48"/>
<path d="M13.4701 25.639L16.4001 28.567C15.0801 28.651 13.8201 28.924 12.6401 29.365L10.1001 26.823C11.1601 26.309 12.2901 25.912 13.4701 25.639Z" fill="#28D16C"/>
<path d="M6.14001 29.461L8.5 31.823C5.83 34.161 4.09997 37.55 3.96997 41.336L0.98999 38.354C1.72999 34.861 3.58001 31.769 6.14001 29.461Z" fill="#28D16C"/>
</svg>
