<svg width="35" height="55" viewBox="0 0 35 55" fill="none" xmlns="http://www.w3.org/2000/svg">
<path d="M34.26 25.342C34.41 31.619 29.44 36.826 23.16 36.969C22.65 36.983 22.15 36.959 21.66 36.903C19.68 39.381 16.66 41.002 13.25 41.079C7.96998 41.202 3.46998 37.613 2.24998 32.697C2.04998 31.916 1.94003 31.102 1.92003 30.262C1.86003 27.617 2.72996 25.172 4.22996 23.23C3.49996 22.753 2.85996 22.143 2.34996 21.429C1.57996 20.345 1.11994 19.028 1.07994 17.597C1.00994 14.274 3.29001 11.449 6.40001 10.719C6.43001 5.32201 10.74 0.895994 16.17 0.768994C21.69 0.641994 26.28 5.01501 26.4 10.539C26.41 10.926 26.4 11.309 26.36 11.689C26.27 12.7 26.03 13.667 25.66 14.571C28.42 15.258 30.7799 16.956 32.3299 19.258C33.5099 20.999 34.21 23.084 34.26 25.338V25.342Z" fill="#28D16C"/>
<path d="M34.26 25.342C34.41 31.619 29.44 36.826 23.16 36.969C22.65 36.982 22.15 36.959 21.66 36.902C19.68 39.381 16.66 41.002 13.25 41.078C7.97 41.202 3.47 37.613 2.25 32.696C3.96 36.022 17.5 40.421 21.96 31.692C27.34 33.137 34.84 28.36 32.33 19.258C33.51 20.999 34.21 23.083 34.27 25.338L34.26 25.342Z" fill="#247C48"/>
<path d="M26.36 11.693C26.27 12.703 26.03 13.671 25.66 14.575L21.72 15.672L26.36 11.693Z" fill="#247C48"/>
<path d="M19.26 52.132L15.95 52.209L16.2 8.85699L19.26 52.132Z" fill="#111111"/>
<path d="M16.3101 32.696L6.72998 25.292L16.49 34.814L16.3101 32.696Z" fill="#111111"/>
<path d="M17.27 30.275L25.87 18.987L17.21 27.64L17.27 30.275Z" fill="#111111"/>
<path d="M16.26 17.086L14 13.644L16.3101 15.962L16.26 17.086Z" fill="#111111"/>
<path d="M6.87 22.199L4.22998 23.237C3.49998 22.76 2.85998 22.149 2.34998 21.436L6.87 22.199Z" fill="#247C48"/>
<path d="M34.25 54.111H0.170044C4.73004 50.141 10.69 47.736 17.21 47.736C23.73 47.736 29.69 50.141 34.25 54.111Z" fill="#111111"/>
</svg>
