<svg width="39" height="39" viewBox="0 0 39 39" fill="none" xmlns="http://www.w3.org/2000/svg">
<path d="M14.7 27.282C11.48 28.949 9.28003 32.308 9.28003 36.174V38.266H0.169922V24.45C0.169922 19.607 4.09994 15.677 8.93994 15.677C10.3599 15.677 11.7099 16.014 12.8899 16.618C12.0299 17.869 11.52 19.39 11.52 21.021C11.52 23.586 12.7699 25.864 14.6899 27.282H14.7Z" fill="#EA3636"/>
<path d="M8.93994 12.515C12.2299 12.515 14.8899 9.851 14.8899 6.565C14.8899 3.278 12.2299 0.614014 8.93994 0.614014C5.64994 0.614014 2.98999 3.278 2.98999 6.565C2.98999 9.851 5.64994 12.515 8.93994 12.515Z" fill="#EA3636"/>
<path d="M38.4099 24.453V38.269H29.3V36.177C29.3 32.312 27.0999 28.953 23.8899 27.285C25.8099 25.871 27.0601 23.593 27.0601 21.024C27.0601 19.393 26.5499 17.872 25.6899 16.621C26.8699 16.018 28.2199 15.681 29.6399 15.681C34.4799 15.681 38.4099 19.61 38.4099 24.453Z" fill="#EA3636"/>
<path d="M19.29 28.589C23.48 28.589 26.8799 31.988 26.8799 36.178V38.269H11.71V36.178C11.71 31.991 15.11 28.589 19.29 28.589Z" fill="#28D16C"/>
<path d="M29.6399 12.515C32.9299 12.515 35.5901 9.851 35.5901 6.565C35.5901 3.278 32.9299 0.614014 29.6399 0.614014C26.3599 0.614014 23.6899 3.278 23.6899 6.565C23.6899 9.851 26.3599 12.515 29.6399 12.515Z" fill="#EA3636"/>
<path d="M19.29 26.368C22.24 26.368 24.6299 23.975 24.6299 21.024C24.6299 18.073 22.24 15.681 19.29 15.681C16.34 15.681 13.95 18.073 13.95 21.024C13.95 23.975 16.34 26.368 19.29 26.368Z" fill="#28D16C"/>
</svg>
