<svg width="61" height="70" viewBox="0 0 61 70" fill="none" xmlns="http://www.w3.org/2000/svg">
<g filter="url(#filter0_d_5_87)">
<path d="M30.362 0C15.88 0 4.138 11.73 4.138 26.2C4.138 34.56 8.06102 42.01 14.171 46.8L4 61.0901L19.531 50.0601C22.833 51.5601 26.501 52.3899 30.362 52.3899C44.845 52.3899 56.587 40.66 56.587 26.2C56.587 11.73 44.845 0 30.362 0Z" fill="white"/>
<path d="M31.757 27.49C31.7 28.04 31.59 28.61 31.418 29.2C31.248 29.8 31.016 30.4201 30.717 31.0601C30.688 31.1201 30.658 31.19 30.627 31.25C30.674 31.79 30.753 32.56 30.871 33.3C30.982 33.98 31.122 34.6401 31.298 35.0801L29.289 34.75C29.393 34.47 29.495 34.13 29.576 33.73C29.761 32.84 29.843 31.68 29.61 30.29C29.547 29.88 29.456 29.45 29.343 29.02C29.181 28.39 28.97 27.7401 28.692 27.0901C28.021 25.5001 26.971 23.89 25.357 22.5C24.765 21.98 24.096 21.5 23.344 21.05C24.189 21.75 24.937 22.4299 25.585 23.1599C26.304 23.9799 26.903 24.8599 27.384 25.8999C27.972 27.1699 28.385 28.6801 28.629 30.6001C28.677 30.9701 28.717 31.36 28.749 31.76C28.769 31.96 28.783 32.1699 28.799 32.3799C28.713 32.3899 28.629 32.3999 28.55 32.4099C28.17 32.4699 27.804 32.5 27.452 32.53C27.124 32.55 26.815 32.56 26.512 32.55C23.89 32.52 22.193 31.5701 21.034 30.1001C18.099 26.3801 18.596 19.3601 16.205 15.5901C19.186 16.0201 22.53 16.89 25.353 18.29C26.681 18.94 27.895 19.7199 28.9 20.6299C29.113 20.8199 29.314 21.01 29.504 21.21C31.101 22.88 32.014 24.96 31.757 27.49Z" fill="#28D16C"/>
<path d="M31.298 35.0801L29.289 34.75C29.393 34.47 29.495 34.13 29.576 33.73L30.871 33.3C30.982 33.98 31.122 34.6401 31.298 35.0801Z" fill="#111111"/>
<path d="M38.17 21.3899C37.964 22.6599 37.42 23.8399 36.362 24.8799C35.879 25.3499 35.291 25.79 34.577 26.2C34.315 26.35 34.039 26.4899 33.743 26.6299C33.454 26.7699 33.151 26.9 32.83 27.03C33.063 24.75 32.344 22.84 31.034 21.26C30.887 21.09 30.735 20.92 30.577 20.75C30.426 18.59 30.918 16.7301 31.755 14.6101C30.627 16.5401 30.107 18.4199 29.974 20.1599C28.968 19.2599 27.755 18.4801 26.426 17.8201C27.508 13.5101 31.56 9.25012 35.339 6.37012C35.083 10.8301 38.929 16.7199 38.17 21.3899Z" fill="#28D16C"/>
<path d="M42.301 38.72H18.957C22.08 36.01 26.162 34.3601 30.629 34.3601C35.097 34.3601 39.178 36.01 42.301 38.72Z" fill="#EA3636"/>
<path d="M36.362 24.8799C35.879 25.3499 35.291 25.79 34.577 26.2C34.315 26.35 34.039 26.4899 33.743 26.6299C33.454 26.7699 33.151 26.9 32.83 27.03C33.063 24.75 32.344 22.84 31.034 21.26L36.362 24.8799Z" fill="#111111"/>
</g>
<defs>
<filter id="filter0_d_5_87" x="0" y="0" width="60.587" height="69.0901" filterUnits="userSpaceOnUse" color-interpolation-filters="sRGB">
<feFlood flood-opacity="0" result="BackgroundImageFix"/>
<feColorMatrix in="SourceAlpha" type="matrix" values="0 0 0 0 0 0 0 0 0 0 0 0 0 0 0 0 0 0 127 0" result="hardAlpha"/>
<feOffset dy="4"/>
<feGaussianBlur stdDeviation="2"/>
<feComposite in2="hardAlpha" operator="out"/>
<feColorMatrix type="matrix" values="0 0 0 0 0 0 0 0 0 0 0 0 0 0 0 0 0 0 0.25 0"/>
<feBlend mode="normal" in2="BackgroundImageFix" result="effect1_dropShadow_5_87"/>
<feBlend mode="normal" in="SourceGraphic" in2="effect1_dropShadow_5_87" result="shape"/>
</filter>
</defs>
</svg>
