<svg width="61" height="70" viewBox="0 0 61 70" fill="none" xmlns="http://www.w3.org/2000/svg">
<g filter="url(#filter0_d_5_94)">
<path d="M30.362 0C15.88 0 4.138 11.73 4.138 26.2C4.138 34.56 8.06102 42.01 14.171 46.8L4 61.0901L19.531 50.0601C22.833 51.5601 26.501 52.3899 30.362 52.3899C44.845 52.3899 56.587 40.66 56.587 26.2C56.587 11.73 44.845 0 30.362 0Z" fill="white"/>
<path d="M45.216 22.9299H25.407V28.1499H45.216V22.9299Z" fill="#BC2626"/>
<path d="M25.407 22.9299H14.659V28.1499H25.407V22.9299Z" fill="#EA3636"/>
<path d="M26.566 28.1499H17.206V40.1599H26.566V28.1499Z" fill="#EA3636"/>
<path d="M42.669 28.1499H26.566V40.1599H42.669V28.1499Z" fill="#BC2626"/>
<path d="M21.407 22.9299H18.661V28.1499H21.407V22.9299Z" fill="#111111"/>
<path d="M36.685 22.9299H33.94V28.1499H36.685V22.9299Z" fill="#111111"/>
<path d="M35.991 28.1499H33.246V40.1599H35.991V28.1499Z" fill="#111111"/>
<path d="M22.399 28.1499H19.653V40.1599H22.399V28.1499Z" fill="#111111"/>
<path d="M32.728 22.93H30.925C31.09 22.08 31.138 20.69 30.555 18.99C30.439 18.64 30.297 18.28 30.136 17.92C29.122 15.62 27.23 13.1801 23.728 11.8301C26.627 13.5001 28.48 15.2 29.743 19.41C29.84 19.72 29.931 20.05 30.019 20.4C30.066 20.57 30.107 20.75 30.152 20.93C30.08 20.96 30.008 20.9801 29.94 21.0001C29.614 21.1001 29.3 21.1901 28.998 21.2601C28.715 21.3301 28.444 21.38 28.18 21.42C25.881 21.77 24.261 21.1901 23.032 20.0701C19.922 17.2501 19.33 11.0401 16.689 8.09015C24.06 7.95015 34.328 10.25 31.585 19.69C31.815 20.57 32.27 22.18 32.731 22.94L32.728 22.93Z" fill="#28D16C"/>
<path d="M38.789 7.15991C39.659 12.4499 39.085 20.0601 32.166 19.3101C32.267 18.9801 32.347 18.6701 32.414 18.3701C34.166 17.4301 36.093 15.74 36.792 12.7C35.951 14.81 34.997 16.27 32.563 17.55C32.891 15.26 32.29 13.66 31.165 12.45C33.144 10.3 37.065 9.20991 38.789 7.15991Z" fill="#247C48"/>
<path d="M29.427 28.1499L42.669 32.22V28.1499H29.427Z" fill="#111111"/>
</g>
<defs>
<filter id="filter0_d_5_94" x="0" y="0" width="60.587" height="69.0901" filterUnits="userSpaceOnUse" color-interpolation-filters="sRGB">
<feFlood flood-opacity="0" result="BackgroundImageFix"/>
<feColorMatrix in="SourceAlpha" type="matrix" values="0 0 0 0 0 0 0 0 0 0 0 0 0 0 0 0 0 0 127 0" result="hardAlpha"/>
<feOffset dy="4"/>
<feGaussianBlur stdDeviation="2"/>
<feComposite in2="hardAlpha" operator="out"/>
<feColorMatrix type="matrix" values="0 0 0 0 0 0 0 0 0 0 0 0 0 0 0 0 0 0 0.25 0"/>
<feBlend mode="normal" in2="BackgroundImageFix" result="effect1_dropShadow_5_94"/>
<feBlend mode="normal" in="SourceGraphic" in2="effect1_dropShadow_5_94" result="shape"/>
</filter>
</defs>
</svg>
