<svg width="61" height="70" viewBox="0 0 61 70" fill="none" xmlns="http://www.w3.org/2000/svg">
<g filter="url(#filter0_d_5_74)">
<path d="M30.362 0C15.88 0 4.138 11.73 4.138 26.2C4.138 34.56 8.06102 42.01 14.171 46.8L4 61.0901L19.531 50.0601C22.833 51.5601 26.501 52.3899 30.362 52.3899C44.845 52.3899 56.587 40.66 56.587 26.2C56.587 11.73 44.845 0 30.362 0Z" fill="white"/>
<path d="M42.583 32.73L41.336 33.1299L36.089 34.79L30.376 36.5901L25.1291 38.26L17.936 40.53C17.113 40.79 16.338 40.0199 16.6 39.1899L17.956 34.9199L19.088 31.3501L20.322 27.46L21.454 23.8799L24.406 14.5801C24.446 16.2701 27.558 20.6301 32.037 25.1101C36.516 29.5801 40.877 32.69 42.581 32.73H42.583Z" fill="#EA3636"/>
<path d="M43.146 32.5502L42.583 32.7301C40.882 32.6901 36.518 29.5802 32.039 25.1102C27.56 20.6302 24.449 16.2802 24.408 14.5802L24.586 14.0201C25.597 13.0101 30.568 16.3401 35.693 21.4601C40.818 26.5801 44.154 31.5502 43.146 32.5502Z" fill="#111111"/>
<path d="M43.146 32.55C43.017 32.68 42.83 32.74 42.583 32.73L43.146 32.55Z" fill="#FF0000"/>
<path d="M40.12 11.8201C34.773 15.6401 32.826 17.66 32.584 20.04C32.362 22.24 33.901 23.0499 34.979 22.9199C34.857 24.3699 35.128 25.7701 36.039 27.0901L36.367 26.8601C35.555 25.6901 35.293 24.4301 35.372 23.1101C35.481 21.3301 36.224 19.43 37.097 17.48C35.937 20.82 35.639 23.16 35.949 23.8C37.169 24.84 39.417 25.0801 40.52 23.5901C43.092 20.1201 38.812 14.5801 40.118 11.8201H40.12Z" fill="#28D16C"/>
<path d="M35.943 10.1398C36.612 10.3598 37.182 10.6699 37.587 10.9999L37.365 11.2699C37.027 10.9999 36.563 10.7399 36.021 10.5299C34.489 9.93993 32.319 9.78 30.514 10.86C32.419 10.06 34.604 10.09 36.021 11.11C36.016 11.16 36.012 11.1999 36.003 11.2499C35.775 12.7499 34.349 13.4999 32.857 13.4899C30.726 13.4699 28.297 12.28 27.23 13.58C29.309 7.50997 35.141 7.46979 35.943 10.1398Z" fill="#247C48"/>
<path d="M42.832 22.3101C42.305 22.6101 41.874 22.9701 41.587 23.3201L41.819 23.5101C42.059 23.2201 42.407 22.92 42.83 22.66C44.027 21.9 45.831 21.4101 47.534 22.0101C45.792 21.6601 43.953 22.05 42.927 23.14C42.938 23.18 42.952 23.2201 42.965 23.2601C43.41 24.4901 44.739 24.8899 45.996 24.6299C47.792 24.2599 49.645 22.8501 50.764 23.7701C47.993 18.9901 43.062 19.9201 42.83 22.3101H42.832Z" fill="#247C48"/>
<path d="M29.807 18.5701C30.286 18.5701 30.674 18.18 30.674 17.7C30.674 17.22 30.286 16.8301 29.807 16.8301C29.327 16.8301 28.939 17.22 28.939 17.7C28.939 18.18 29.327 18.5701 29.807 18.5701Z" fill="#28D16C"/>
<path d="M44.054 28.1799C44.384 28.1799 44.651 27.9101 44.651 27.5801C44.651 27.2501 44.384 26.99 44.054 26.99C43.725 26.99 43.458 27.2501 43.458 27.5801C43.458 27.9101 43.725 28.1799 44.054 28.1799Z" fill="#28D16C"/>
<path d="M43.456 18.49C43.997 18.49 44.436 18.05 44.436 17.51C44.436 16.97 43.997 16.53 43.456 16.53C42.914 16.53 42.475 16.97 42.475 17.51C42.475 18.05 42.914 18.49 43.456 18.49Z" fill="#28D16C"/>
<path d="M41.336 33.1299L36.089 34.79L20.322 27.46L21.457 23.8899L41.336 33.1299Z" fill="#111111"/>
<path d="M30.376 36.5901L25.129 38.26L17.956 34.9199L19.091 31.3501L30.376 36.5901Z" fill="#111111"/>
</g>
<defs>
<filter id="filter0_d_5_74" x="0" y="0" width="60.587" height="69.0901" filterUnits="userSpaceOnUse" color-interpolation-filters="sRGB">
<feFlood flood-opacity="0" result="BackgroundImageFix"/>
<feColorMatrix in="SourceAlpha" type="matrix" values="0 0 0 0 0 0 0 0 0 0 0 0 0 0 0 0 0 0 127 0" result="hardAlpha"/>
<feOffset dy="4"/>
<feGaussianBlur stdDeviation="2"/>
<feComposite in2="hardAlpha" operator="out"/>
<feColorMatrix type="matrix" values="0 0 0 0 0 0 0 0 0 0 0 0 0 0 0 0 0 0 0.25 0"/>
<feBlend mode="normal" in2="BackgroundImageFix" result="effect1_dropShadow_5_74"/>
<feBlend mode="normal" in="SourceGraphic" in2="effect1_dropShadow_5_74" result="shape"/>
</filter>
</defs>
</svg>
