<svg width="61" height="70" viewBox="0 0 61 70" fill="none" xmlns="http://www.w3.org/2000/svg">
<g filter="url(#filter0_d_5_58)">
<path d="M30.362 0C15.88 0 4.138 11.73 4.138 26.2C4.138 34.56 8.06102 42.01 14.171 46.8L4 61.0901L19.531 50.0601C22.833 51.5601 26.501 52.3899 30.362 52.3899C44.845 52.3899 56.587 40.66 56.587 26.2C56.587 11.73 44.845 0 30.362 0Z" fill="white"/>
<path d="M27.178 29.6599C25 30.7899 23.509 33.0599 23.509 35.6799V37.1001H17.339V27.75C17.339 24.47 19.999 21.8101 23.28 21.8101C24.243 21.8101 25.154 22.04 25.958 22.45C25.371 23.29 25.027 24.3199 25.027 25.4299C25.027 27.1599 25.875 28.6999 27.176 29.6599H27.178Z" fill="#28D16C"/>
<path d="M23.283 19.6699C25.509 19.6699 27.314 17.8599 27.314 15.6399C27.314 13.4199 25.509 11.6101 23.283 11.6101C21.056 11.6101 19.251 13.4199 19.251 15.6399C19.251 17.8599 21.056 19.6699 23.283 19.6699Z" fill="#28D16C"/>
<path d="M43.248 27.75V37.1001H37.078V35.6799C37.078 33.0599 35.587 30.7899 33.409 29.6599C34.71 28.7099 35.558 27.1599 35.558 25.4299C35.558 24.3199 35.214 23.29 34.627 22.45C35.431 22.04 36.342 21.8101 37.304 21.8101C40.586 21.8101 43.245 24.47 43.245 27.75H43.248Z" fill="#28D16C"/>
<path d="M30.295 30.55C33.131 30.55 35.436 32.8499 35.436 35.6799V37.1001H25.156V35.6799C25.156 32.8499 27.459 30.55 30.297 30.55H30.295Z" fill="#EA3636"/>
<path d="M37.305 19.6699C39.531 19.6699 41.336 17.8599 41.336 15.6399C41.336 13.4199 39.531 11.6101 37.305 11.6101C35.078 11.6101 33.273 13.4199 33.273 15.6399C33.273 17.8599 35.078 19.6699 37.305 19.6699Z" fill="#28D16C"/>
<path d="M30.295 29.04C32.294 29.04 33.915 27.4199 33.915 25.4299C33.915 23.4299 32.294 21.8101 30.295 21.8101C28.295 21.8101 26.674 23.4299 26.674 25.4299C26.674 27.4199 28.295 29.04 30.295 29.04Z" fill="#EA3636"/>
</g>
<defs>
<filter id="filter0_d_5_58" x="0" y="0" width="60.587" height="69.0901" filterUnits="userSpaceOnUse" color-interpolation-filters="sRGB">
<feFlood flood-opacity="0" result="BackgroundImageFix"/>
<feColorMatrix in="SourceAlpha" type="matrix" values="0 0 0 0 0 0 0 0 0 0 0 0 0 0 0 0 0 0 127 0" result="hardAlpha"/>
<feOffset dy="4"/>
<feGaussianBlur stdDeviation="2"/>
<feComposite in2="hardAlpha" operator="out"/>
<feColorMatrix type="matrix" values="0 0 0 0 0 0 0 0 0 0 0 0 0 0 0 0 0 0 0.25 0"/>
<feBlend mode="normal" in2="BackgroundImageFix" result="effect1_dropShadow_5_58"/>
<feBlend mode="normal" in="SourceGraphic" in2="effect1_dropShadow_5_58" result="shape"/>
</filter>
</defs>
</svg>
