<svg width="61" height="70" viewBox="0 0 61 70" fill="none" xmlns="http://www.w3.org/2000/svg">
<g filter="url(#filter0_d_5_107)">
<path d="M30.362 0C15.88 0 4.138 11.73 4.138 26.2C4.138 34.56 8.06102 42.01 14.171 46.8L4 61.0901L19.531 50.0601C22.833 51.5601 26.501 52.3899 30.362 52.3899C44.845 52.3899 56.587 40.66 56.587 26.2C56.587 11.73 44.848 0 30.362 0Z" fill="white"/>
<path d="M41.523 16.6599L39.478 24.0601L38.091 29.0801L35.282 39.24H12.612L18.853 16.6599H41.523Z" fill="#28D16C"/>
<path d="M46.484 39.24H35.282L41.523 16.6599L46.484 39.24Z" fill="#247C48"/>
<path d="M29.244 35.9399L30.048 36.1299C30.048 36.1299 30.141 34.2701 30.152 33.3701C33.899 27.2901 27.156 23.6999 21.965 22.3799C23.244 24.9499 22.458 29.41 24.087 31.99C24.731 33.01 25.753 33.7299 27.429 33.9199C27.624 33.9499 27.823 33.96 28.033 33.97C28.259 33.98 28.494 33.98 28.742 33.97C28.794 33.97 28.848 33.97 28.903 33.97C28.909 33.83 28.912 33.7001 28.914 33.5701C28.919 33.3101 28.919 33.0601 28.914 32.8201C28.844 29.6301 27.874 28.0801 26.168 26.3501C28.358 27.9801 29.21 30.0501 29.477 31.8501C29.52 32.1401 29.549 32.4199 29.563 32.6899C29.678 34.5499 29.239 35.95 29.239 35.95L29.244 35.9399Z" fill="#111111"/>
<path d="M39.478 24.0601L38.091 29.0801L27.38 16.6599H33.095L39.478 24.0601Z" fill="#111111"/>
<path d="M24.114 16.6599H23.21C23.136 15.5199 22.541 14.6001 21.845 14.6001C21.102 14.6001 20.474 15.6499 20.474 16.8999C20.474 18.1399 21.102 19.1899 21.845 19.1899C22.094 19.1899 22.297 19.3999 22.297 19.6399C22.297 19.8899 22.094 20.1001 21.845 20.1001C20.569 20.1001 19.57 18.6899 19.57 16.8999C19.57 15.0999 20.569 13.6899 21.845 13.6899C23.122 13.6899 24.033 14.9799 24.114 16.6599Z" fill="#247C48"/>
<path d="M29.273 16.6599H28.369C28.295 15.5199 27.701 14.6001 27.005 14.6001C26.309 14.6001 25.712 15.5199 25.637 16.6599C25.633 16.7399 25.631 16.8199 25.631 16.8999C25.631 17.2299 25.676 17.5601 25.759 17.8501C25.981 18.6401 26.462 19.1899 27.005 19.1899C27.253 19.1899 27.456 19.3999 27.456 19.6399C27.456 19.8899 27.253 20.1001 27.005 20.1001C25.965 20.1001 25.109 19.1601 24.826 17.8501C24.761 17.5501 24.727 17.2299 24.727 16.8999C24.727 16.8199 24.729 16.7399 24.733 16.6599C24.815 14.9799 25.784 13.6899 27.005 13.6899C28.225 13.6899 29.192 14.9799 29.273 16.6599Z" fill="#247C48"/>
<path d="M34.432 16.6599H33.528C33.454 15.5199 32.857 14.6001 32.161 14.6001C31.465 14.6001 30.871 15.5199 30.796 16.6599C30.792 16.7399 30.79 16.8199 30.79 16.8999C30.79 17.2299 30.837 17.5601 30.921 17.8501C31.14 18.6401 31.619 19.1899 32.161 19.1899C32.412 19.1899 32.613 19.3999 32.613 19.6399C32.613 19.8899 32.412 20.1001 32.161 20.1001C31.122 20.1001 30.268 19.1601 29.983 17.8501C29.92 17.5501 29.886 17.2299 29.886 16.8999C29.886 16.8199 29.888 16.7399 29.893 16.6599C29.974 14.9799 30.941 13.6899 32.161 13.6899C33.382 13.6899 34.351 14.9799 34.432 16.6599Z" fill="#247C48"/>
<path d="M39.589 16.6599H38.685C38.611 15.5199 38.016 14.6001 37.32 14.6001C36.624 14.6001 36.03 15.5199 35.955 16.6599C35.951 16.7399 35.949 16.8199 35.949 16.8999C35.949 17.2299 35.994 17.5601 36.078 17.8501C36.299 18.6401 36.778 19.1899 37.32 19.1899C37.569 19.1899 37.772 19.3999 37.772 19.6399C37.772 19.8899 37.569 20.1001 37.32 20.1001C36.281 20.1001 35.427 19.1601 35.144 17.8501C35.079 17.5501 35.045 17.2299 35.045 16.8999C35.045 16.8199 35.047 16.7399 35.052 16.6599C35.133 14.9799 36.1 13.6899 37.32 13.6899C38.541 13.6899 39.508 14.9799 39.589 16.6599Z" fill="#247C48"/>
</g>
<defs>
<filter id="filter0_d_5_107" x="0" y="0" width="60.587" height="69.0901" filterUnits="userSpaceOnUse" color-interpolation-filters="sRGB">
<feFlood flood-opacity="0" result="BackgroundImageFix"/>
<feColorMatrix in="SourceAlpha" type="matrix" values="0 0 0 0 0 0 0 0 0 0 0 0 0 0 0 0 0 0 127 0" result="hardAlpha"/>
<feOffset dy="4"/>
<feGaussianBlur stdDeviation="2"/>
<feComposite in2="hardAlpha" operator="out"/>
<feColorMatrix type="matrix" values="0 0 0 0 0 0 0 0 0 0 0 0 0 0 0 0 0 0 0.25 0"/>
<feBlend mode="normal" in2="BackgroundImageFix" result="effect1_dropShadow_5_107"/>
<feBlend mode="normal" in="SourceGraphic" in2="effect1_dropShadow_5_107" result="shape"/>
</filter>
</defs>
</svg>
