<svg width="61" height="70" viewBox="0 0 61 70" fill="none" xmlns="http://www.w3.org/2000/svg">
<g filter="url(#filter0_d_5_117)">
<path d="M30.362 0C15.88 0 4.138 11.73 4.138 26.2C4.138 34.56 8.06102 42.01 14.171 46.8L4 61.0901L19.531 50.0601C22.833 51.5601 26.501 52.3899 30.362 52.3899C44.845 52.3899 56.587 40.66 56.587 26.2C56.587 11.73 44.848 0 30.362 0Z" fill="white"/>
<path d="M30.207 23.6699H38.193L44.793 39.01H36.805L30.207 23.6699Z" fill="#247C48"/>
<path d="M43.941 13.3899L40.4 25.74L39.13 30.1699L36.599 39.01H13.929L21.271 13.3899H43.941Z" fill="#28D16C"/>
<path d="M40.943 15.6499L40.739 16.3601H23.687L17.843 36.75H16.928L22.975 15.6499H40.943Z" fill="#111111"/>
<path d="M40.739 16.3601L34.896 36.75H17.843L23.687 16.3601H40.739Z" fill="white"/>
<path d="M36.599 39.01H39.971L46.798 15.1899L43.939 13.3899L36.599 39.01Z" fill="#111111"/>
<path d="M31.716 29.09C31.565 28.65 31.867 28.2599 32.38 28.2599H32.48C32.993 28.2599 33.282 27.9199 33.131 27.4799L32.396 25.35C32.245 24.9 32.453 24.55 32.86 24.55C33.266 24.55 33.474 24.1899 33.323 23.7499L32.667 21.83C32.516 21.39 32.27 20.6599 32.118 20.2199L31.463 18.3C31.312 17.86 30.891 17.86 30.527 18.3L28.952 20.2199C28.589 20.6599 27.994 21.39 27.63 21.83L26.055 23.7499C25.692 24.1899 25.728 24.56 26.134 24.56C26.541 24.56 26.577 24.92 26.214 25.36L24.46 27.4799C24.096 27.9199 24.225 28.2599 24.738 28.2599H24.837C25.35 28.2599 25.466 28.65 25.102 29.09L22.566 32.1999C22.202 32.6399 22.318 33.03 22.831 33.03H32.096C32.609 33.03 32.911 32.6399 32.76 32.1999L31.716 29.09Z" fill="#28D16C"/>
<path d="M25.744 36.74L27.045 36.73L30.207 21.1399L25.744 36.74Z" fill="#111111"/>
<path d="M28.191 30.46L30.67 28.3101L27.942 31.29L28.191 30.46Z" fill="#111111"/>
<path d="M28.013 29.53L26.854 26.9099L28.255 28.5L28.013 29.53Z" fill="#111111"/>
<path d="M29.502 24.3601L30.175 23.6699L29.574 23.9199L29.502 24.3601Z" fill="#111111"/>
<path d="M40.4 25.74L39.13 30.1699L24.25 13.3899H29.447L40.4 25.74Z" fill="#111111"/>
</g>
<defs>
<filter id="filter0_d_5_117" x="0" y="0" width="60.587" height="69.0901" filterUnits="userSpaceOnUse" color-interpolation-filters="sRGB">
<feFlood flood-opacity="0" result="BackgroundImageFix"/>
<feColorMatrix in="SourceAlpha" type="matrix" values="0 0 0 0 0 0 0 0 0 0 0 0 0 0 0 0 0 0 127 0" result="hardAlpha"/>
<feOffset dy="4"/>
<feGaussianBlur stdDeviation="2"/>
<feComposite in2="hardAlpha" operator="out"/>
<feColorMatrix type="matrix" values="0 0 0 0 0 0 0 0 0 0 0 0 0 0 0 0 0 0 0.25 0"/>
<feBlend mode="normal" in2="BackgroundImageFix" result="effect1_dropShadow_5_117"/>
<feBlend mode="normal" in="SourceGraphic" in2="effect1_dropShadow_5_117" result="shape"/>
</filter>
</defs>
</svg>
