<svg width="61" height="70" viewBox="0 0 61 70" fill="none" xmlns="http://www.w3.org/2000/svg">
<g filter="url(#filter0_d_5_155)">
<path d="M30.362 0C15.88 0 4.138 11.73 4.138 26.2C4.138 34.56 8.06102 42.01 14.171 46.8L4 61.0901L19.531 50.0601C22.833 51.5601 26.501 52.3899 30.362 52.3899C44.845 52.3899 56.587 40.66 56.587 26.2C56.587 11.73 44.845 0 30.362 0Z" fill="white"/>
<path d="M32.195 35.8C32.182 36.39 32.166 37.0001 32.096 37.6001C31.958 38.8301 31.296 39.9999 30.338 40.9299C29.831 41.3899 29.248 41.79 28.55 42.02L28.383 41.8899L28.934 40.24C29.172 39.46 29.364 38.72 29.608 37.95C30.112 36.68 30.541 35.38 30.62 34.02C30.636 33.91 30.649 33.7899 30.658 33.6799C30.667 33.5799 30.677 33.4799 30.683 33.3899C30.805 31.9199 30.731 30.47 30.616 28.98L30.837 28.9399C31.35 30.1999 31.752 31.5201 31.98 32.8601C31.992 32.9101 32.001 32.97 32.01 33.03C32.161 33.94 32.227 34.87 32.195 35.8Z" fill="#28D16C"/>
<path d="M44.294 42.6201H16.979C20.633 39.4401 25.409 37.52 30.636 37.52C35.863 37.52 40.64 39.4401 44.294 42.6201Z" fill="#111111"/>
<path d="M30.683 33.3899C30.805 31.9199 30.731 30.47 30.616 28.98L30.837 28.9399C31.35 30.1999 31.752 31.5201 31.98 32.8601L30.683 33.3899Z" fill="#111111"/>
<path d="M43.731 15.6599C43.731 24.7999 31.058 30.55 31.058 30.55C31.058 30.55 18.386 24.7999 18.386 15.6599C18.386 13.2999 19.719 8.94995 24.867 8.94995C28.986 8.94995 31.058 12.27 31.058 12.27C31.058 12.27 33.133 8.94995 37.25 8.94995C42.398 8.94995 43.731 13.2999 43.731 15.6599Z" fill="#EA3636"/>
<g opacity="0.6">
<path d="M33.142 25.8602C32.88 25.8602 32.622 25.7401 32.464 25.5001C32.215 25.1301 32.317 24.6299 32.69 24.3799C34.374 23.2599 36.721 21.4601 38.358 19.2601C38.624 18.9001 39.135 18.8302 39.494 19.1002C39.853 19.3602 39.93 19.87 39.661 20.23C37.887 22.62 35.381 24.54 33.589 25.73C33.452 25.82 33.296 25.8602 33.14 25.8602H33.142Z" fill="white"/>
</g>
<g opacity="0.6">
<path d="M40.174 17.1599C40.129 17.1599 40.084 17.1599 40.036 17.1499C39.594 17.0699 39.298 16.65 39.372 16.21C39.431 15.87 39.46 15.5299 39.46 15.1899C39.46 14.7399 39.824 14.3799 40.272 14.3799C40.719 14.3799 41.083 14.7399 41.083 15.1899C41.083 15.6399 41.044 16.05 40.972 16.48C40.904 16.88 40.561 17.1599 40.172 17.1599H40.174Z" fill="white"/>
</g>
</g>
<defs>
<filter id="filter0_d_5_155" x="0" y="0" width="60.587" height="69.0901" filterUnits="userSpaceOnUse" color-interpolation-filters="sRGB">
<feFlood flood-opacity="0" result="BackgroundImageFix"/>
<feColorMatrix in="SourceAlpha" type="matrix" values="0 0 0 0 0 0 0 0 0 0 0 0 0 0 0 0 0 0 127 0" result="hardAlpha"/>
<feOffset dy="4"/>
<feGaussianBlur stdDeviation="2"/>
<feComposite in2="hardAlpha" operator="out"/>
<feColorMatrix type="matrix" values="0 0 0 0 0 0 0 0 0 0 0 0 0 0 0 0 0 0 0.25 0"/>
<feBlend mode="normal" in2="BackgroundImageFix" result="effect1_dropShadow_5_155"/>
<feBlend mode="normal" in="SourceGraphic" in2="effect1_dropShadow_5_155" result="shape"/>
</filter>
</defs>
</svg>
