<svg width="61" height="70" viewBox="0 0 61 70" fill="none" xmlns="http://www.w3.org/2000/svg">
<g filter="url(#filter0_d_5_130)">
<path d="M30.362 0C15.88 0 4.138 11.73 4.138 26.2C4.138 34.56 8.06102 42.01 14.171 46.8L4 61.0901L19.531 50.0601C22.833 51.5601 26.501 52.3899 30.362 52.3899C44.845 52.3899 56.587 40.66 56.587 26.2C56.587 11.73 44.845 0 30.362 0Z" fill="white"/>
<path d="M33.411 14.6398C33.424 14.8298 33.433 15.0299 33.436 15.2199C33.458 16.1299 33.359 16.9501 33.162 17.6201L32.62 17.4599C32.805 16.8299 32.898 16.0399 32.875 15.1699C32.875 15.1199 32.875 15.06 32.875 15.01C32.78 12.36 31.65 9.05 28.916 7.05C31.226 9.29 32.543 12.4201 32.071 15.1101C32.055 15.1901 32.039 15.2801 32.019 15.3701C31.944 15.3901 31.872 15.4099 31.8 15.4299C30.575 15.7399 29.449 15.46 28.518 14.82C27.639 14.2 26.934 13.2599 26.485 12.1799C25.163 9.01988 25.398 4.65985 22.79 3.89985C33.115 3.14985 36.861 11.7598 33.413 14.6398H33.411Z" fill="#EA3636"/>
<path d="M44.176 13.1299C42.762 12.8399 41.677 14.3701 40.423 15.7901C40.023 16.2401 39.605 16.6901 39.153 17.0601C37.847 18.1301 36.059 18.4901 34.783 17.3201C34.742 17.2901 34.703 17.25 34.667 17.22C34.846 16.56 35.187 15.9499 35.646 15.3999C36.532 14.3399 37.86 13.5001 39.338 13.0701C37.643 13.3201 36.238 14.2602 35.237 15.3702C34.846 15.8002 34.516 16.26 34.254 16.71C33.924 17.27 33.702 17.8301 33.598 18.3201L33.21 18.24C33.332 17.66 33.614 16.9801 34.041 16.3001C33.903 15.9601 33.851 15.61 33.876 15.25C34.064 12.54 38.73 9.71992 44.176 13.1299Z" fill="#EA3636"/>
<path d="M28.516 14.8201L32.069 15.1101C32.053 15.1901 32.037 15.2801 32.017 15.3701C31.942 15.3901 31.87 15.4099 31.797 15.4299C30.573 15.7399 29.447 15.4601 28.516 14.8201Z" fill="#111111"/>
<path d="M33.162 17.6201L32.62 17.46C32.805 16.83 32.898 16.0399 32.875 15.1699L33.436 15.22C33.458 16.13 33.359 16.9501 33.162 17.6201Z" fill="#111111"/>
<path d="M35.237 15.3701C34.846 15.8001 34.516 16.26 34.254 16.71C33.924 17.27 33.702 17.8301 33.598 18.3201L33.21 18.24C33.332 17.66 33.614 16.98 34.041 16.3C33.903 15.96 33.851 15.61 33.876 15.25L35.237 15.3701Z" fill="#111111"/>
<path d="M40.423 15.79C40.023 16.24 39.605 16.6901 39.153 17.0601C37.847 18.1301 36.059 18.4901 34.782 17.3201C34.742 17.2901 34.703 17.25 34.667 17.22C34.846 16.56 35.187 15.9499 35.646 15.3999L40.423 15.79Z" fill="#111111"/>
<path d="M37.442 19.5001L37.038 19.74L31.535 22.92C30.376 23.59 28.894 23.0501 28.437 21.8001L26.268 15.8301L26.107 15.3899C26.324 14.7899 29.036 15.2302 32.168 16.3702C35.298 17.5002 37.659 18.9101 37.442 19.5001Z" fill="#28D16C"/>
<path d="M37.465 30.8701C37.422 30.0901 37.298 29.3401 37.101 28.6101C35.817 23.8101 31.429 20.27 26.227 20.27C25.348 20.27 24.494 20.3701 23.674 20.5601C22.876 20.7501 22.112 21.0201 21.389 21.3601C20.41 21.8301 19.509 22.4299 18.711 23.1499C16.973 24.7099 15.721 26.7999 15.217 29.1699C15.057 29.9199 14.971 30.71 14.971 31.51C14.971 37.71 20.022 42.76 26.227 42.76C26.844 42.76 27.447 42.7101 28.037 42.6101C28.218 42.5801 28.396 42.55 28.573 42.51C29.151 42.39 29.714 42.22 30.256 42.01C31.935 41.37 33.42 40.33 34.599 39.02C35.318 38.22 35.924 37.3201 36.387 36.3501C36.735 35.6301 37.006 34.8601 37.189 34.0601C37.381 33.2401 37.483 32.39 37.483 31.51C37.483 31.3 37.476 31.0801 37.465 30.8701ZM34.665 34.6299C34.283 35.6599 33.714 36.6099 33 37.4199C32.062 38.4899 30.875 39.3401 29.531 39.8701C28.837 40.1501 28.103 40.3399 27.337 40.4299C27.079 40.4599 26.819 40.48 26.555 40.49C26.446 40.5 26.338 40.5 26.227 40.5C21.267 40.5 17.231 36.47 17.231 31.51C17.231 31.41 17.233 31.2899 17.238 31.1899C17.328 28.6199 18.501 26.33 20.311 24.75C21.127 24.04 22.074 23.4701 23.111 23.0801C23.913 22.7901 24.767 22.6 25.658 22.55C25.845 22.53 26.035 22.53 26.227 22.53C30.265 22.53 33.689 25.2001 34.825 28.8601C35.045 29.5701 35.178 30.3201 35.214 31.0901C35.221 31.2301 35.223 31.37 35.223 31.51C35.223 31.71 35.216 31.8901 35.205 32.0801C35.149 32.9701 34.963 33.8299 34.665 34.6299Z" fill="#247C48"/>
<path d="M37.101 28.6101H37.074C36.301 28.6101 35.549 28.6901 34.825 28.8601C35.045 29.5701 35.178 30.3201 35.214 31.0901C35.811 30.9401 36.432 30.8601 37.074 30.8601C37.205 30.8601 37.336 30.8701 37.465 30.8701C37.422 30.0901 37.298 29.3401 37.101 28.6101ZM27.337 40.4299C27.488 41.1899 27.725 41.9201 28.037 42.6101C28.805 42.4901 29.549 42.28 30.256 42.01C29.915 41.35 29.666 40.6301 29.531 39.8701C28.837 40.1501 28.103 40.3399 27.337 40.4299Z" fill="#111111"/>
<path d="M37.074 46.48C31.603 46.48 27.151 42.0301 27.151 36.5701C27.151 31.1001 31.603 26.6499 37.074 26.6499C42.545 26.6499 46.997 31.1001 46.997 36.5701C46.997 42.0301 42.545 46.48 37.074 46.48ZM37.074 28.9099C32.848 28.9099 29.411 32.3501 29.411 36.5701C29.411 40.7901 32.848 44.22 37.074 44.22C41.3 44.22 44.737 40.7901 44.737 36.5701C44.737 32.3501 41.3 28.9099 37.074 28.9099Z" fill="#247C48"/>
<path d="M23.674 20.5601L25.658 22.55C24.767 22.6 23.913 22.7901 23.111 23.0801L21.389 21.3601C22.112 21.0201 22.876 20.7501 23.674 20.5601Z" fill="#28D16C"/>
<path d="M18.711 23.1499L20.311 24.75C18.501 26.33 17.328 28.6199 17.238 31.1899L15.217 29.1699C15.721 26.7999 16.973 24.7099 18.711 23.1499Z" fill="#28D16C"/>
</g>
<defs>
<filter id="filter0_d_5_130" x="0" y="0" width="60.587" height="69.0901" filterUnits="userSpaceOnUse" color-interpolation-filters="sRGB">
<feFlood flood-opacity="0" result="BackgroundImageFix"/>
<feColorMatrix in="SourceAlpha" type="matrix" values="0 0 0 0 0 0 0 0 0 0 0 0 0 0 0 0 0 0 127 0" result="hardAlpha"/>
<feOffset dy="4"/>
<feGaussianBlur stdDeviation="2"/>
<feComposite in2="hardAlpha" operator="out"/>
<feColorMatrix type="matrix" values="0 0 0 0 0 0 0 0 0 0 0 0 0 0 0 0 0 0 0.25 0"/>
<feBlend mode="normal" in2="BackgroundImageFix" result="effect1_dropShadow_5_130"/>
<feBlend mode="normal" in="SourceGraphic" in2="effect1_dropShadow_5_130" result="shape"/>
</filter>
</defs>
</svg>
