<svg width="61" height="70" viewBox="0 0 61 70" fill="none" xmlns="http://www.w3.org/2000/svg">
<g filter="url(#filter0_d_5_144)">
<path d="M30.362 0C15.88 0 4.138 11.73 4.138 26.2C4.138 34.56 8.06102 42.01 14.171 46.8L4 61.0901L19.531 50.0601C22.833 51.5601 26.501 52.3899 30.362 52.3899C44.845 52.3899 56.587 40.66 56.587 26.2C56.587 11.73 44.845 0 30.362 0Z" fill="white"/>
<path d="M43.397 23.22C43.496 27.46 40.129 30.9901 35.876 31.0801C35.531 31.0901 35.192 31.0801 34.857 31.0401C33.519 32.7201 31.474 33.8102 29.16 33.8702C25.585 33.9502 22.537 31.52 21.708 28.19C21.574 27.66 21.5 27.1101 21.486 26.5501C21.445 24.7601 22.035 23.1001 23.052 21.7901C22.555 21.4601 22.123 21.0501 21.78 20.5701C21.258 19.8301 20.942 18.94 20.919 17.97C20.867 15.73 22.415 13.8101 24.521 13.3201C24.539 9.67011 27.463 6.67013 31.14 6.59013C34.882 6.50013 37.987 9.46 38.073 13.2C38.08 13.46 38.071 13.72 38.046 13.98C37.985 14.66 37.82 15.32 37.567 15.93C39.435 16.39 41.038 17.5401 42.088 19.1001C42.884 20.2801 43.361 21.69 43.397 23.21V23.22Z" fill="#28D16C"/>
<path d="M43.397 23.22C43.496 27.46 40.129 30.9901 35.876 31.0801C35.531 31.0901 35.192 31.08 34.857 31.04C33.519 32.72 31.474 33.8101 29.16 33.8701C25.585 33.9501 22.537 31.5199 21.708 28.1899C22.869 30.4399 32.042 33.42 35.063 27.51C38.71 28.49 43.786 25.2601 42.091 19.1001C42.886 20.2801 43.363 21.69 43.399 23.21L43.397 23.22Z" fill="#247C48"/>
<path d="M38.046 13.98C37.985 14.66 37.82 15.3199 37.567 15.9299L34.9 16.6699L38.043 13.98H38.046Z" fill="#247C48"/>
<path d="M33.235 41.3501L30.988 41.3999L31.16 12.0601L33.235 41.3501Z" fill="#111111"/>
<path d="M31.235 28.1899L24.742 23.1799L31.359 29.6299L31.235 28.1899Z" fill="#111111"/>
<path d="M31.886 26.55L37.709 18.9199L31.845 24.77L31.886 26.55Z" fill="#111111"/>
<path d="M31.201 17.6299L29.667 15.3L31.237 16.8701L31.201 17.6299Z" fill="#111111"/>
<path d="M24.84 21.0901L23.052 21.79C22.555 21.47 22.123 21.0601 21.78 20.5701L24.842 21.0901H24.84Z" fill="#247C48"/>
<path d="M43.388 42.6799H20.3C23.387 39.9999 27.425 38.3701 31.843 38.3701C36.26 38.3701 40.299 39.9999 43.388 42.6799Z" fill="#111111"/>
</g>
<defs>
<filter id="filter0_d_5_144" x="0" y="0" width="60.587" height="69.0901" filterUnits="userSpaceOnUse" color-interpolation-filters="sRGB">
<feFlood flood-opacity="0" result="BackgroundImageFix"/>
<feColorMatrix in="SourceAlpha" type="matrix" values="0 0 0 0 0 0 0 0 0 0 0 0 0 0 0 0 0 0 127 0" result="hardAlpha"/>
<feOffset dy="4"/>
<feGaussianBlur stdDeviation="2"/>
<feComposite in2="hardAlpha" operator="out"/>
<feColorMatrix type="matrix" values="0 0 0 0 0 0 0 0 0 0 0 0 0 0 0 0 0 0 0.25 0"/>
<feBlend mode="normal" in2="BackgroundImageFix" result="effect1_dropShadow_5_144"/>
<feBlend mode="normal" in="SourceGraphic" in2="effect1_dropShadow_5_144" result="shape"/>
</filter>
</defs>
</svg>
