<svg width="66" height="66" viewBox="0 0 66 66" fill="none" xmlns="http://www.w3.org/2000/svg">
<g filter="url(#filter0_d_301_1915)">
<path d="M33 55C47.3594 55 59 43.3594 59 29C59 14.6406 47.3594 3 33 3C18.6406 3 7 14.6406 7 29C7 43.3594 18.6406 55 33 55Z" fill="white"/>
<path d="M33 56.5C48.1878 56.5 60.5 44.1878 60.5 29C60.5 13.8122 48.1878 1.5 33 1.5C17.8122 1.5 5.5 13.8122 5.5 29C5.5 44.1878 17.8122 56.5 33 56.5Z" stroke="#B4B4B4" stroke-width="3"/>
</g>
<path d="M46.6271 27.4401C46.7449 32.4808 42.7541 36.6618 37.7133 36.777C37.3035 36.7877 36.9017 36.769 36.5053 36.7234C34.9197 38.7135 32.4958 40.0152 29.7531 40.0768C25.5158 40.1759 21.9026 37.294 20.9197 33.346C20.7616 32.7192 20.6732 32.0657 20.6572 31.3907C20.609 29.2667 21.308 27.3035 22.5133 25.7446C21.9241 25.3616 21.4125 24.8715 21.0054 24.2983C20.3867 23.4278 20.0117 22.3698 19.9849 21.2208C19.9233 18.5531 21.758 16.2845 24.2543 15.6979C24.2757 11.3642 27.7416 7.80999 32.0994 7.70821C36.5348 7.60643 40.2149 11.1178 40.3167 15.5533C40.3248 15.864 40.314 16.172 40.2846 16.4773C40.2123 17.2889 40.0167 18.0656 39.7168 18.7915C41.9318 19.3432 43.8308 20.7065 45.0763 22.5546C46.0191 23.9528 46.5842 25.6268 46.6271 27.4374V27.4401Z" fill="#969696"/>
<path d="M46.6273 27.4396C46.7452 32.4804 42.7543 36.6614 37.7135 36.7766C37.3038 36.7873 36.902 36.7685 36.5056 36.723C34.92 38.7131 32.496 40.0148 29.7533 40.0764C25.5161 40.1755 21.9029 37.2935 20.9199 33.3455C22.2966 36.0159 33.1683 39.5487 36.7493 32.5393C41.0723 33.6991 47.088 29.8636 45.0792 22.5542C46.022 23.9523 46.5871 25.6263 46.63 27.437L46.6273 27.4396Z" fill="#4C4C4C"/>
<path d="M40.285 16.48C40.2127 17.2915 40.0171 18.0683 39.7172 18.7941L36.5566 19.6753L40.2823 16.48H40.285Z" fill="#4C4C4C"/>
<path d="M34.5823 48.9528L31.9199 49.0144L32.1235 14.2031L34.5823 48.9528Z" fill="#111111"/>
<path d="M32.2117 33.3455L24.5166 27.3994L32.359 35.0463L32.2117 33.3455Z" fill="#111111"/>
<path d="M32.9838 31.4012L39.886 22.3374L32.9355 29.2852L32.9838 31.4012Z" fill="#111111"/>
<path d="M32.1712 20.811L30.3525 18.0469L32.214 19.9084L32.1712 20.811Z" fill="#111111"/>
<path d="M24.6324 24.9166L22.5138 25.7496C21.9245 25.3665 21.413 24.8764 21.0059 24.3032L24.6351 24.9166H24.6324Z" fill="#4C4C4C"/>
<defs>
<filter id="filter0_d_301_1915" x="0" y="0" width="66" height="66" filterUnits="userSpaceOnUse" color-interpolation-filters="sRGB">
<feFlood flood-opacity="0" result="BackgroundImageFix"/>
<feColorMatrix in="SourceAlpha" type="matrix" values="0 0 0 0 0 0 0 0 0 0 0 0 0 0 0 0 0 0 127 0" result="hardAlpha"/>
<feOffset dy="4"/>
<feGaussianBlur stdDeviation="2"/>
<feComposite in2="hardAlpha" operator="out"/>
<feColorMatrix type="matrix" values="0 0 0 0 0 0 0 0 0 0 0 0 0 0 0 0 0 0 0.25 0"/>
<feBlend mode="normal" in2="BackgroundImageFix" result="effect1_dropShadow_301_1915"/>
<feBlend mode="normal" in="SourceGraphic" in2="effect1_dropShadow_301_1915" result="shape"/>
</filter>
</defs>
</svg>
