<svg width="61" height="70" viewBox="0 0 61 70" fill="none" xmlns="http://www.w3.org/2000/svg">
<g filter="url(#filter0_d_5_66)">
<path d="M30.362 0C15.88 0 4.138 11.73 4.138 26.2C4.138 34.56 8.06102 42.01 14.171 46.8L4 61.0901L19.531 50.0601C22.833 51.5601 26.501 52.3899 30.362 52.3899C44.845 52.3899 56.587 40.66 56.587 26.2C56.587 11.73 44.845 0 30.362 0Z" fill="#E8E8E8"/>
<path d="M27.323 29.6599C25.145 30.7899 23.653 33.0599 23.653 35.6799V37.1001H17.484V27.75C17.484 24.47 20.144 21.8101 23.425 21.8101C24.388 21.8101 25.298 22.04 26.103 22.45C25.515 23.29 25.172 24.3199 25.172 25.4299C25.172 27.1599 26.019 28.6999 27.321 29.6599H27.323Z" fill="#EA3636"/>
<path d="M23.425 19.6699C25.651 19.6699 27.456 17.8599 27.456 15.6399C27.456 13.4199 25.651 11.6101 23.425 11.6101C21.198 11.6101 19.394 13.4199 19.394 15.6399C19.394 17.8599 21.198 19.6699 23.425 19.6699Z" fill="#EA3636"/>
<path d="M43.39 27.75V37.1001H37.221V35.6799C37.221 33.0599 35.729 30.7899 33.551 29.6599C34.853 28.7099 35.7 27.1599 35.7 25.4299C35.7 24.3199 35.357 23.29 34.769 22.45C35.574 22.04 36.484 21.8101 37.447 21.8101C40.728 21.8101 43.388 24.47 43.388 27.75H43.39Z" fill="#EA3636"/>
<path d="M30.437 30.55C33.273 30.55 35.578 32.8499 35.578 35.6799V37.1001H25.298V35.6799C25.298 32.8499 27.601 30.55 30.439 30.55H30.437Z" fill="#28D16C"/>
<path d="M37.449 19.6699C39.676 19.6699 41.481 17.8599 41.481 15.6399C41.481 13.4199 39.676 11.6101 37.449 11.6101C35.223 11.6101 33.418 13.4199 33.418 15.6399C33.418 17.8599 35.223 19.6699 37.449 19.6699Z" fill="#EA3636"/>
<path d="M30.437 29.04C32.436 29.04 34.057 27.4199 34.057 25.4299C34.057 23.4299 32.436 21.8101 30.437 21.8101C28.438 21.8101 26.817 23.4299 26.817 25.4299C26.817 27.4199 28.438 29.04 30.437 29.04Z" fill="#28D16C"/>
</g>
<defs>
<filter id="filter0_d_5_66" x="0" y="0" width="60.587" height="69.0901" filterUnits="userSpaceOnUse" color-interpolation-filters="sRGB">
<feFlood flood-opacity="0" result="BackgroundImageFix"/>
<feColorMatrix in="SourceAlpha" type="matrix" values="0 0 0 0 0 0 0 0 0 0 0 0 0 0 0 0 0 0 127 0" result="hardAlpha"/>
<feOffset dy="4"/>
<feGaussianBlur stdDeviation="2"/>
<feComposite in2="hardAlpha" operator="out"/>
<feColorMatrix type="matrix" values="0 0 0 0 0 0 0 0 0 0 0 0 0 0 0 0 0 0 0.25 0"/>
<feBlend mode="normal" in2="BackgroundImageFix" result="effect1_dropShadow_5_66"/>
<feBlend mode="normal" in="SourceGraphic" in2="effect1_dropShadow_5_66" result="shape"/>
</filter>
</defs>
</svg>
