<svg width="66" height="66" viewBox="0 0 66 66" fill="none" xmlns="http://www.w3.org/2000/svg">
<g filter="url(#filter0_d_301_1966)">
<path d="M33 55C47.3594 55 59 43.3594 59 29C59 14.6406 47.3594 3 33 3C18.6406 3 7 14.6406 7 29C7 43.3594 18.6406 55 33 55Z" fill="white"/>
<path d="M33 56.5C48.1878 56.5 60.5 44.1878 60.5 29C60.5 13.8122 48.1878 1.5 33 1.5C17.8122 1.5 5.5 13.8122 5.5 29C5.5 44.1878 17.8122 56.5 33 56.5Z" stroke="#B4B4B4" stroke-width="3"/>
</g>
<path d="M21.5897 30.9916C23.6837 15.8343 37.2166 17.4159 50.0657 19.0412C42.3131 21.2052 40.759 30.2644 36.7911 34.8905C32.8232 39.5166 25.8154 38.3883 24.8609 33.5196C22.4619 34.9956 16.9545 38.6423 22.7043 45.3091C20.4992 45.38 19.0217 44.1342 18.8936 42.8939C18.7655 41.6536 16.1642 31.0078 38.3572 21.2174C31.7395 22.5911 25.2356 26.0944 21.5897 30.9916Z" fill="#28D16C"/>
<defs>
<filter id="filter0_d_301_1966" x="0" y="0" width="66" height="66" filterUnits="userSpaceOnUse" color-interpolation-filters="sRGB">
<feFlood flood-opacity="0" result="BackgroundImageFix"/>
<feColorMatrix in="SourceAlpha" type="matrix" values="0 0 0 0 0 0 0 0 0 0 0 0 0 0 0 0 0 0 127 0" result="hardAlpha"/>
<feOffset dy="4"/>
<feGaussianBlur stdDeviation="2"/>
<feComposite in2="hardAlpha" operator="out"/>
<feColorMatrix type="matrix" values="0 0 0 0 0 0 0 0 0 0 0 0 0 0 0 0 0 0 0.25 0"/>
<feBlend mode="normal" in2="BackgroundImageFix" result="effect1_dropShadow_301_1966"/>
<feBlend mode="normal" in="SourceGraphic" in2="effect1_dropShadow_301_1966" result="shape"/>
</filter>
</defs>
</svg>
