<svg width="1365" height="486" viewBox="0 0 1365 486" fill="none" xmlns="http://www.w3.org/2000/svg">
<path opacity="0.1" d="M1363 484C1293.03 208.107 1014.92 2 682.5 2C350.08 2 71.97 208.107 2 484" stroke="#679379" stroke-width="4"/>
<path opacity="0.11" d="M1268 484H97C157.21 246.458 396.49 69 682.5 69C968.51 69 1207.8 246.458 1268 484Z" fill="#679379"/>
<path d="M1145.47 69.463C1145.16 68.063 1145 66.622 1145 65.131C1145 53.961 1154.05 44.908 1165.22 44.908C1166.89 44.908 1168.52 45.11 1170.08 45.493C1174.02 32.478 1186.11 23 1200.41 23C1216.8 23 1230.29 35.444 1231.93 51.392C1233.87 50.549 1236.01 50.082 1238.26 50.082C1247.06 50.082 1254.2 57.22 1254.2 66.023C1254.2 67.207 1254.07 68.356 1253.82 69.463H1269.62" stroke="#83AB94" stroke-width="2" stroke-miterlimit="10" stroke-linecap="round"/>
<path d="M1167.47 199.315C1168.49 196.606 1169.06 193.66 1169.06 190.589C1169.06 177.01 1158.05 166 1144.47 166C1134.33 166 1125.63 172.128 1121.87 180.889C1119.58 179.614 1116.95 178.897 1114.15 178.897C1105.35 178.897 1098.21 186.028 1098.21 194.837C1098.21 196.397 1098.43 197.895 1098.86 199.322H1080.58" stroke="#83AB94" stroke-width="2" stroke-miterlimit="10" stroke-linecap="round"/>
<path d="M569.86 320.271H564.82C565.61 317.854 566.04 315.271 566.04 312.589C566.04 299.01 555.03 288 541.45 288C531.32 288 522.61 294.128 518.85 302.889C516.56 301.614 513.93 300.897 511.13 300.897C502.33 300.897 495.19 308.035 495.19 316.837C495.19 318.021 495.32 319.17 495.57 320.278H474" stroke="#83AB94" stroke-width="2" stroke-miterlimit="10" stroke-linecap="round"/>
<path d="M576.27 320.271H584.98" stroke="#83AB94" stroke-width="2" stroke-miterlimit="10" stroke-linecap="round"/>
<path d="M214.15 85.315H186.95C187.97 82.606 188.54 79.66 188.54 76.589C188.54 63.01 177.53 52 163.95 52C153.81 52 145.11 58.128 141.35 66.889C139.06 65.614 136.43 64.897 133.63 64.897C124.83 64.897 117.69 72.028 117.69 80.837C117.69 82.397 117.91 83.895 118.34 85.322H109" stroke="#83AB94" stroke-width="2" stroke-miterlimit="10" stroke-linecap="round"/>
<path d="M179.46 443.287C179.63 440.002 180.75 436.99 182.53 434.507C184.89 431.222 188.41 428.845 192.46 427.958C191.96 426.627 191.65 425.203 191.55 423.727C191.51 423.177 191.51 422.614 191.54 422.051C191.96 414.006 198.82 407.821 206.87 408.239C214.78 408.649 220.88 415.284 220.7 423.157C225.2 424.356 228.41 428.567 228.16 433.407C228.06 435.493 227.31 437.394 226.15 438.943C225.38 439.963 224.42 440.824 223.33 441.492C225.44 444.379 226.61 447.988 226.41 451.835C226.34 453.054 226.15 454.239 225.83 455.371C223.84 462.483 217.12 467.529 209.44 467.125C208.04 467.052 206.7 466.807 205.43 466.403L205.04 483.235L200.21 482.983L202.02 464.873C200.2 463.787 198.62 462.364 197.36 460.682C196.64 460.741 195.91 460.755 195.17 460.715C186.02 460.238 179 452.438 179.47 443.293L179.46 443.287Z" fill="#BDCFC4"/>
<path d="M262.7 442.294C261.64 440.095 259.94 438.281 257.84 437.082C258.81 436.076 259.54 434.838 259.94 433.467C259.97 433.348 260 433.229 260.03 433.109C260.22 432.355 260.31 431.56 260.29 430.752C260.15 425.885 256.1 422.051 251.24 422.184C250.06 422.217 248.95 422.475 247.94 422.925C246.29 420.595 243.55 419.098 240.49 419.178C235.62 419.31 231.78 423.362 231.92 428.223C231.95 429.428 232.22 430.567 232.69 431.6C229.86 433.858 228.08 437.374 228.18 441.281C228.29 445.068 230.14 448.392 232.95 450.504C233.5 450.922 234.09 451.292 234.71 451.604C234.7 451.802 234.7 452.008 234.7 452.213C234.79 455.385 236.61 458.106 239.23 459.483C240.48 460.139 241.9 460.49 243.41 460.45C244.61 460.417 245.75 460.132 246.78 459.649L247.11 482.884L250.66 482.785L249.42 459.146C250.33 459.338 251.28 459.437 252.25 459.41C254.82 459.338 257.19 458.457 259.1 457.02C262.09 454.775 263.97 451.16 263.86 447.141C263.82 445.399 263.4 443.764 262.69 442.287L262.7 442.294Z" fill="#BDCFC4"/>
<path d="M230.84 450.948C230.72 450.975 230.61 451.008 230.51 451.047C230.51 451.16 230.53 451.279 230.55 451.398C230.77 452.491 231.84 453.186 232.93 452.961C233.04 452.935 233.15 452.901 233.26 452.862C233.26 452.749 233.24 452.63 233.22 452.517C233 451.425 231.92 450.73 230.83 450.955L230.84 450.948Z" fill="#BDCFC4"/>
<path d="M184.98 442.294C183.92 440.095 182.22 438.281 180.12 437.082C181.08 436.076 181.81 434.838 182.21 433.467C182.24 433.348 182.28 433.229 182.31 433.109C182.49 432.355 182.59 431.56 182.56 430.752C182.43 425.885 178.37 422.051 173.51 422.184C172.34 422.217 171.22 422.475 170.21 422.925C168.57 420.595 165.83 419.098 162.76 419.178C157.89 419.31 154.06 423.362 154.19 428.223C154.22 429.428 154.49 430.567 154.97 431.6C152.13 433.858 150.35 437.374 150.46 441.281C150.56 445.068 152.42 448.392 155.22 450.504C155.77 450.922 156.36 451.292 156.98 451.604C156.98 451.802 156.97 452.008 156.98 452.213C157.06 455.385 158.89 458.106 161.51 459.483C162.75 460.139 164.17 460.49 165.68 460.45C166.89 460.417 168.02 460.132 169.05 459.649L169.38 482.884L172.93 482.785L171.69 459.146C172.61 459.338 173.55 459.437 174.52 459.41C177.1 459.338 179.46 458.457 181.37 457.02C184.36 454.775 186.25 451.16 186.14 447.141C186.09 445.399 185.67 443.764 184.96 442.287L184.98 442.294Z" fill="#BDCFC4"/>
<path d="M153.11 450.948C153 450.975 152.89 451.008 152.78 451.047C152.78 451.16 152.8 451.279 152.82 451.398C153.04 452.491 154.12 453.186 155.2 452.961C155.32 452.935 155.43 452.901 155.53 452.862C155.53 452.749 155.51 452.63 155.49 452.517C155.27 451.425 154.2 450.73 153.1 450.955L153.11 450.948Z" fill="#BDCFC4"/>
<path d="M298.28 446.306C296.97 442.823 294.6 439.83 291.56 437.731C293.17 436.321 294.44 434.54 295.23 432.5C295.3 432.328 295.36 432.143 295.42 431.964C295.81 430.838 296.05 429.646 296.12 428.401C296.56 420.972 290.89 414.602 283.46 414.165C281.67 414.059 279.93 414.311 278.34 414.854C276.15 411.079 272.17 408.444 267.48 408.166C260.05 407.729 253.68 413.397 253.24 420.82C253.13 422.654 253.4 424.428 253.98 426.064C249.36 429.13 246.19 434.255 245.84 440.214C245.5 445.995 247.88 451.306 251.88 454.888C252.66 455.596 253.52 456.232 254.42 456.795C254.38 457.099 254.35 457.411 254.33 457.722C254.04 462.569 256.46 466.952 260.27 469.396C262.08 470.555 264.2 471.283 266.5 471.415C268.34 471.521 270.11 471.243 271.74 470.641L270.52 482.844L275.94 483.162L275.84 470.224C277.2 470.641 278.63 470.906 280.11 470.998C284.05 471.23 287.76 470.197 290.87 468.257C295.71 465.224 299.07 459.973 299.42 453.842C299.58 451.186 299.17 448.63 298.28 446.3V446.306Z" fill="#BDCFC4"/>
<path d="M278.12 413.509C278.22 413.509 278.33 413.496 278.43 413.483C279.4 413.304 280.05 412.364 279.87 411.39C279.85 411.285 279.82 411.185 279.79 411.092C279.69 411.092 279.58 411.106 279.48 411.119C278.5 411.298 277.86 412.238 278.04 413.211C278.06 413.317 278.09 413.417 278.13 413.509H278.12Z" fill="#BDCFC4"/>
<path d="M1208.19 447.948C1208.12 444.995 1207.19 442.26 1205.66 439.976C1203.62 436.963 1200.53 434.738 1196.91 433.838C1197.4 432.652 1197.72 431.381 1197.84 430.057C1197.88 429.56 1197.9 429.057 1197.89 428.547C1197.72 421.303 1191.71 415.569 1184.47 415.741C1177.35 415.906 1171.7 421.707 1171.67 428.785C1167.59 429.746 1164.59 433.447 1164.69 437.804C1164.74 439.678 1165.35 441.406 1166.36 442.83C1167.02 443.764 1167.86 444.565 1168.82 445.194C1166.86 447.737 1165.71 450.941 1165.8 454.411C1165.82 455.51 1165.97 456.576 1166.23 457.603C1167.83 464.046 1173.73 468.754 1180.65 468.588C1181.91 468.562 1183.12 468.369 1184.28 468.045L1184.19 483.182L1188.55 483.083L1187.39 466.76C1189.06 465.833 1190.51 464.589 1191.68 463.119C1192.33 463.191 1192.99 463.218 1193.66 463.205C1201.88 463.013 1208.4 456.192 1208.21 447.962L1208.19 447.948Z" fill="#BDCFC4"/>
<path d="M1182.29 441.241C1182.37 437.725 1183.48 434.467 1185.31 431.752C1187.72 428.163 1191.42 425.514 1195.72 424.442C1195.14 423.031 1194.76 421.522 1194.62 419.946C1194.57 419.356 1194.55 418.754 1194.56 418.151C1194.76 409.53 1201.91 402.703 1210.53 402.902C1219.01 403.1 1225.74 410.007 1225.78 418.429C1230.64 419.568 1234.2 423.978 1234.08 429.163C1234.03 431.394 1233.3 433.454 1232.09 435.149C1231.31 436.261 1230.31 437.215 1229.16 437.956C1231.5 440.982 1232.86 444.803 1232.77 448.928C1232.74 450.239 1232.56 451.504 1232.26 452.729C1230.35 460.397 1223.33 465.999 1215.09 465.814C1213.59 465.78 1212.15 465.555 1210.77 465.165L1210.88 483.182L1205.7 483.063L1207.07 463.635C1205.1 462.529 1203.36 461.053 1201.96 459.298C1201.19 459.384 1200.41 459.417 1199.62 459.397C1189.82 459.172 1182.06 451.047 1182.29 441.247V441.241Z" fill="#BDCFC4"/>
<path d="M1240.87 458.364C1239.98 456.166 1238.42 454.292 1236.43 453.014C1237.4 452.08 1238.21 450.975 1238.8 449.75C1239.44 448.432 1239.84 446.962 1239.93 445.406C1240.29 439.075 1235.44 433.646 1229.11 433.288C1223.51 432.97 1218.62 436.718 1217.32 441.976C1217.25 441.976 1217.19 441.963 1217.11 441.963C1212.45 441.698 1208.45 445.267 1208.18 449.935C1208.11 451.1 1208.29 452.226 1208.66 453.259C1208.9 453.934 1209.22 454.57 1209.62 455.153C1207.94 457.027 1206.86 459.457 1206.7 462.172C1206.54 464.906 1207.35 467.469 1208.84 469.528C1210.79 472.243 1213.91 474.084 1217.51 474.289C1219.64 474.408 1221.66 473.938 1223.43 473.031L1222.57 482.944L1225.98 483.136L1226.07 473.402C1227.17 473.832 1228.35 474.097 1229.59 474.163C1235.92 474.521 1241.35 469.681 1241.71 463.35C1241.81 461.596 1241.51 459.907 1240.89 458.377L1240.87 458.364Z" fill="#BDCFC4"/>
<path d="M1175.03 444.916C1174.18 442.658 1172.65 440.718 1170.67 439.354C1171.71 438.44 1172.54 437.281 1173.05 435.963C1173.1 435.851 1173.14 435.732 1173.18 435.612C1173.43 434.884 1173.58 434.109 1173.63 433.301C1173.91 428.481 1170.23 424.349 1165.41 424.064C1164.25 423.998 1163.12 424.157 1162.09 424.515C1160.67 422.065 1158.08 420.356 1155.04 420.177C1150.22 419.893 1146.09 423.568 1145.81 428.388C1145.73 429.58 1145.9 430.732 1146.28 431.792C1143.29 433.785 1141.23 437.102 1141 440.969C1140.78 444.717 1142.32 448.167 1144.92 450.491C1145.43 450.948 1145.98 451.365 1146.56 451.729C1146.53 451.928 1146.51 452.127 1146.5 452.332C1146.32 455.477 1147.88 458.318 1150.35 459.907C1151.53 460.662 1152.9 461.132 1154.39 461.218C1155.59 461.291 1156.74 461.106 1157.8 460.715L1157 482.97L1160.52 483.175L1160.45 460.443C1161.33 460.715 1162.27 460.887 1163.23 460.947C1165.78 461.099 1168.2 460.43 1170.21 459.165C1173.35 457.199 1175.53 453.795 1175.76 449.809C1175.86 448.087 1175.59 446.432 1175.02 444.916H1175.03Z" fill="#BDCFC4"/>
<path d="M430.55 415.728C432.3 412.092 435.12 409.086 438.6 407.106C437 405.438 435.8 403.392 435.13 401.127C435.07 400.928 435.02 400.73 434.97 400.531C434.66 399.286 434.51 397.968 434.55 396.624C434.76 388.572 441.47 382.229 449.52 382.447C451.47 382.5 453.31 382.931 454.98 383.672C457.7 379.812 462.24 377.336 467.31 377.475C475.36 377.693 481.71 384.401 481.49 392.446C481.44 394.439 480.99 396.326 480.21 398.035C484.91 401.776 487.85 407.59 487.68 414.052C487.5 420.316 484.44 425.826 479.79 429.315C478.87 430.004 477.9 430.613 476.88 431.136C476.89 431.467 476.9 431.805 476.89 432.143C476.75 437.394 473.74 441.896 469.39 444.181C467.33 445.267 464.98 445.849 462.49 445.783C460.49 445.73 458.6 445.26 456.91 444.459L456.35 482.911L450.47 482.752L452.52 443.631C451.01 443.956 449.45 444.108 447.84 444.068C443.58 443.949 439.66 442.492 436.5 440.108C431.56 436.387 428.43 430.414 428.61 423.76C428.69 420.879 429.38 418.164 430.55 415.734V415.728Z" fill="#BDCFC4"/>
<path d="M483.29 430.05C483.48 430.09 483.67 430.143 483.84 430.216C483.84 430.408 483.81 430.6 483.78 430.792C483.4 432.593 481.63 433.752 479.82 433.374C479.63 433.335 479.44 433.282 479.27 433.209C479.27 433.017 479.3 432.831 479.34 432.633C479.72 430.832 481.48 429.673 483.29 430.05Z" fill="#BDCFC4"/>
<path d="M844.5 447.948C844.43 444.995 843.5 442.26 841.97 439.976C839.93 436.963 836.84 434.738 833.22 433.838C833.71 432.652 834.03 431.381 834.15 430.057C834.19 429.56 834.21 429.057 834.2 428.547C834.03 421.303 828.02 415.569 820.78 415.741C813.66 415.906 808.01 421.707 807.98 428.785C803.9 429.746 800.9 433.447 801 437.804C801.05 439.678 801.66 441.406 802.67 442.83C803.33 443.764 804.17 444.565 805.13 445.194C803.17 447.737 802.02 450.941 802.11 454.411C802.13 455.51 802.28 456.576 802.54 457.603C804.14 464.046 810.04 468.754 816.96 468.588C818.22 468.562 819.43 468.369 820.59 468.045L820.51 483.182L824.86 483.083L823.7 466.76C825.37 465.833 826.82 464.589 827.99 463.119C828.64 463.191 829.3 463.218 829.97 463.205C838.19 463.013 844.71 456.192 844.52 447.962L844.5 447.948Z" fill="#BDCFC4"/>
<path d="M464.34 447.326C464.49 444.373 465.5 441.671 467.1 439.433C469.22 436.48 472.39 434.341 476.02 433.546C475.57 432.348 475.29 431.07 475.21 429.746C475.18 429.249 475.18 428.746 475.2 428.236C475.58 421.005 481.75 415.443 488.98 415.82C496.1 416.191 501.58 422.157 501.41 429.229C505.46 430.302 508.35 434.096 508.12 438.446C508.02 440.32 507.36 442.029 506.31 443.419C505.63 444.333 504.77 445.108 503.79 445.71C505.68 448.306 506.73 451.551 506.55 455.007C506.49 456.106 506.31 457.166 506.02 458.185C504.24 464.582 498.2 469.111 491.29 468.754C490.04 468.687 488.83 468.462 487.68 468.105L487.33 483.235L482.98 483.01L484.61 466.727C482.97 465.754 481.55 464.469 480.42 462.96C479.77 463.013 479.12 463.026 478.45 462.986C470.23 462.556 463.91 455.55 464.34 447.333V447.326Z" fill="#BDCFC4"/>
<path d="M1064.12 336.798C1064.02 332.504 1062.68 328.535 1060.46 325.217C1057.51 320.837 1053.02 317.599 1047.79 316.291C1048.49 314.572 1048.95 312.728 1049.13 310.803C1049.2 310.084 1049.22 309.353 1049.2 308.616C1048.96 298.092 1040.26 289.76 1029.77 290.005C1019.47 290.245 1011.28 298.68 1011.23 308.959C1005.32 310.352 1000.99 315.732 1001.13 322.065C1001.19 324.789 1002.08 327.302 1003.54 329.369C1004.5 330.728 1005.72 331.893 1007.11 332.801C1004.26 336.496 1002.61 341.156 1002.72 346.192C1002.76 347.791 1002.97 349.339 1003.34 350.829C1005.67 360.189 1014.21 367.03 1024.23 366.796C1026.05 366.756 1027.81 366.482 1029.48 366.008L1029.35 388L1035.65 387.852L1033.97 364.135C1036.38 362.787 1038.49 360.983 1040.19 358.841C1041.13 358.944 1042.08 358.99 1043.05 358.967C1054.96 358.693 1064.39 348.774 1064.12 336.815V336.798Z" fill="#BDCFC4"/>
<path d="M904.31 426.868C904.43 421.891 903.09 417.218 900.68 413.257C897.49 408.027 892.44 404.034 886.43 402.235C887.34 400.282 887.98 398.167 888.29 395.951C888.4 395.119 888.47 394.273 888.49 393.421C888.78 381.219 879.12 371.099 866.91 370.81C854.93 370.531 844.94 379.854 844.33 391.761C837.39 393.055 832.06 399.057 831.89 406.389C831.82 409.549 832.72 412.505 834.31 414.977C835.35 416.603 836.7 418.018 838.27 419.142C834.76 423.265 832.58 428.578 832.44 434.415C832.4 436.266 832.56 438.075 832.91 439.818C835.11 450.79 844.67 459.172 856.33 459.444C858.44 459.495 860.5 459.273 862.47 458.81L861.14 484.271L868.46 484.441L867.8 456.88C870.67 455.448 873.22 453.473 875.31 451.08C876.39 451.249 877.49 451.349 878.62 451.378C892.48 451.702 903.98 440.729 904.31 426.863V426.868Z" fill="#BDCFC4"/>
<path d="M931.02 458.364C930.12 456.166 928.56 454.292 926.57 453.014C927.54 452.08 928.35 450.975 928.95 449.75C929.59 448.432 929.98 446.962 930.07 445.406C930.43 439.075 925.59 433.646 919.26 433.288C913.65 432.97 908.77 436.718 907.46 441.976C907.4 441.976 907.33 441.963 907.26 441.963C902.59 441.698 898.59 445.267 898.32 449.935C898.26 451.1 898.43 452.226 898.8 453.259C899.04 453.934 899.36 454.57 899.76 455.153C898.08 457.027 897 459.457 896.84 462.172C896.69 464.906 897.5 467.469 898.98 469.528C900.93 472.243 904.05 474.084 907.65 474.289C909.78 474.408 911.8 473.938 913.57 473.031L912.71 482.944L916.12 483.136L916.22 473.402C917.32 473.832 918.5 474.097 919.73 474.163C926.06 474.521 931.49 469.681 931.85 463.35C931.95 461.596 931.65 459.907 931.03 458.377L931.02 458.364Z" fill="#BDCFC4"/>
<path d="M956.3 452.61C956.34 452.504 956.38 452.398 956.43 452.286C956.69 451.604 956.86 450.882 956.92 450.12C957.34 445.584 954 441.565 949.47 441.148C948.37 441.049 947.31 441.168 946.32 441.466C945.05 439.115 942.67 437.42 939.81 437.155C935.27 436.738 931.25 440.075 930.83 444.611C930.73 445.73 930.86 446.823 931.18 447.836C928.29 449.624 926.24 452.689 925.91 456.331C925.59 459.861 926.94 463.158 929.32 465.436C929.78 465.886 930.29 466.29 930.83 466.654C930.79 466.84 930.77 467.032 930.75 467.217C930.48 470.177 931.87 472.905 934.16 474.481C935.24 475.229 936.52 475.713 937.92 475.845C939.05 475.951 940.14 475.812 941.15 475.474L940.16 482.917L943.47 483.222L943.67 475.302C944.49 475.587 945.36 475.779 946.27 475.858C948.57 476.07 950.79 475.567 952.67 474.528C955.82 472.799 958.08 469.588 958.43 465.741C958.59 464.118 958.38 462.549 957.88 461.099C957.15 458.94 955.77 457.06 953.94 455.716C954.96 454.888 955.77 453.815 956.3 452.59V452.61Z" fill="#BDCFC4"/>
<path d="M330.27 322.389C328.7 337.778 339.89 351.534 355.28 353.117C358.61 353.46 361.85 353.198 364.91 352.436C367.88 354.977 371.62 356.671 375.8 357.099C379.31 357.462 382.7 356.882 385.72 355.572C392.09 352.804 396.83 346.771 397.59 339.361C397.64 338.882 397.66 338.408 397.68 337.935C399.18 337.304 400.62 336.548 401.99 335.671C408.93 331.23 413.84 323.775 414.75 314.944C415.68 305.836 412.14 297.307 405.91 291.525C407.19 289.191 408.02 286.57 408.31 283.768C409.48 272.421 401.22 262.274 389.87 261.11C382.72 260.374 376.04 263.388 371.79 268.56C369.5 267.34 366.94 266.534 364.2 266.251C352.85 265.087 342.71 273.339 341.54 284.69C341.34 286.59 341.41 288.46 341.72 290.255C341.77 290.542 341.82 290.83 341.88 291.117C342.58 294.393 344.06 297.408 346.14 299.938C341.03 302.368 336.72 306.314 333.86 311.259C331.95 314.576 330.69 318.336 330.27 322.394V322.389Z" fill="#28D16C"/>
<path d="M330.27 322.394C328.7 337.783 339.89 351.539 355.28 353.122C358.61 353.465 361.85 353.203 364.91 352.442C367.88 354.982 371.62 356.676 375.8 357.104C379.31 357.467 382.7 356.887 385.72 355.577C377.75 356.58 369.95 352.603 365.68 347.189C355.32 349.699 332.03 340.314 333.88 311.259C331.96 314.576 330.7 318.336 330.28 322.394H330.27Z" fill="#247C48"/>
<path d="M341.72 290.255C341.77 290.542 341.83 290.83 341.88 291.117C342.58 294.393 344.07 297.408 346.15 299.938L355.22 302.821L341.72 290.26V290.255Z" fill="#247C48"/>
<path d="M391.04 330.978L397.68 337.945C399.18 337.315 400.62 336.558 401.98 335.681L391.04 330.978Z" fill="#247C48"/>
<path d="M401.6 341.413C404.11 342.138 406.73 340.692 407.46 338.187C407.53 337.919 407.59 337.647 407.61 337.38C407.37 337.264 407.12 337.163 406.85 337.088C404.34 336.362 401.72 337.809 400.99 340.314C400.92 340.581 400.86 340.848 400.84 341.115C401.08 341.236 401.34 341.332 401.6 341.413Z" fill="#247C48"/>
<path d="M372.67 266.145C373.19 264.714 372.44 263.136 371.01 262.622C370.86 262.567 370.7 262.526 370.54 262.501C370.47 262.637 370.4 262.783 370.35 262.935C369.83 264.366 370.58 265.944 372.01 266.458C372.16 266.513 372.32 266.554 372.47 266.579C372.55 266.443 372.62 266.297 372.67 266.145Z" fill="#247C48"/>
<path d="M358.61 372.554L366.89 373.406L371.63 296.349L358.61 372.554Z" fill="#353535"/>
<path d="M367.38 335.727L342.36 322.384L367.17 341.06L367.38 335.727Z" fill="#353535"/>
<path d="M369.36 320.822L395.56 304.943L369.94 315.085L369.36 320.822Z" fill="#353535"/>
<path d="M1037.34 448.597C1037.29 448.478 1037.24 448.352 1037.19 448.233C1036.9 447.465 1036.71 446.637 1036.63 445.777C1036.16 440.638 1039.94 436.089 1045.08 435.619C1046.33 435.506 1047.53 435.639 1048.65 435.983C1050.09 433.321 1052.78 431.401 1056.03 431.103C1061.17 430.633 1065.72 434.414 1066.19 439.552C1066.3 440.824 1066.16 442.055 1065.79 443.207C1069.07 445.227 1071.38 448.71 1071.76 452.829C1072.13 456.828 1070.6 460.563 1067.91 463.138C1067.38 463.648 1066.81 464.105 1066.19 464.516C1066.23 464.728 1066.26 464.94 1066.28 465.158C1066.59 468.509 1065.01 471.601 1062.42 473.389C1061.2 474.236 1059.74 474.786 1058.15 474.932C1056.87 475.051 1055.64 474.892 1054.5 474.514L1055.62 482.944L1051.87 483.288L1051.64 474.316C1050.71 474.634 1049.72 474.852 1048.7 474.951C1046.08 475.19 1043.58 474.62 1041.44 473.448C1037.88 471.488 1035.32 467.853 1034.92 463.496C1034.75 461.662 1034.98 459.881 1035.54 458.238C1036.38 455.795 1037.95 453.663 1040.01 452.14C1038.86 451.2 1037.94 449.988 1037.35 448.597H1037.34Z" fill="#BDCFC4"/>
<path d="M953.38 410.655C953.78 428.004 940.04 442.393 922.7 442.79C921.29 442.823 919.9 442.764 918.55 442.611C913.09 449.465 904.75 453.941 895.3 454.159C880.72 454.497 868.28 444.578 864.89 430.99C864.35 428.832 864.05 426.58 863.99 424.263C863.82 416.953 866.23 410.192 870.38 404.835C868.35 403.517 866.58 401.829 865.18 399.856C863.05 396.856 861.76 393.214 861.67 389.261C861.46 380.077 867.77 372.27 876.37 370.25C876.44 355.338 888.37 343.102 903.38 342.751C918.65 342.4 931.31 354.491 931.67 369.754C931.69 370.826 931.65 371.886 931.55 372.932C931.3 375.726 930.63 378.402 929.6 380.898C937.22 382.798 943.77 387.493 948.05 393.843C951.29 398.657 953.24 404.418 953.39 410.649L953.38 410.655Z" fill="#28D16C"/>
<path d="M937.92 374.634C937.96 376.759 936.28 378.521 934.16 378.567C933.94 378.567 933.71 378.56 933.49 378.521C933.45 378.309 933.43 378.084 933.42 377.859C933.37 375.733 935.06 373.972 937.18 373.919C937.4 373.919 937.63 373.925 937.84 373.965C937.88 374.177 937.9 374.402 937.91 374.627L937.92 374.634Z" fill="#1DCF65"/>
<path d="M892.4 399.035C890.39 399.743 888.19 398.697 887.48 396.69C887.41 396.479 887.35 396.26 887.32 396.042C887.51 395.936 887.71 395.843 887.92 395.77C889.93 395.062 892.12 396.108 892.83 398.114C892.91 398.326 892.97 398.545 893 398.756C892.81 398.869 892.61 398.955 892.4 399.035Z" fill="#DFDFDF"/>
<path d="M917.43 369.065C916.15 367.37 916.49 364.953 918.18 363.675C918.36 363.536 918.55 363.417 918.75 363.324C918.91 363.47 919.06 363.635 919.2 363.821C920.47 365.523 920.14 367.933 918.44 369.211C918.26 369.35 918.07 369.462 917.88 369.562C917.72 369.416 917.57 369.251 917.43 369.065Z" fill="#DFDFDF"/>
<path d="M927.99 413.205C928.58 411.165 930.71 409.98 932.75 410.569C932.97 410.629 933.18 410.715 933.37 410.808C933.35 411.026 933.31 411.245 933.25 411.457C932.66 413.503 930.53 414.681 928.49 414.092C928.27 414.032 928.06 413.953 927.86 413.854C927.88 413.635 927.93 413.417 927.99 413.198V413.205Z" fill="#DFDFDF"/>
<path d="M872.15 364.264C874.25 364.596 875.69 366.562 875.36 368.661C875.32 368.886 875.27 369.105 875.2 369.31C874.98 369.31 874.76 369.297 874.54 369.264C872.44 368.933 871 366.966 871.33 364.86C871.36 364.635 871.42 364.423 871.49 364.211C871.71 364.211 871.93 364.225 872.15 364.258V364.264Z" fill="#247C48"/>
<path d="M953.38 410.655C953.78 428.004 940.04 442.393 922.7 442.79C921.29 442.823 919.9 442.764 918.55 442.611C913.09 449.465 904.75 453.941 895.3 454.159C880.72 454.497 868.28 444.578 864.89 430.99C869.63 440.188 907.05 452.339 919.38 428.216C934.26 432.209 954.96 419.012 948.04 393.85C951.29 398.664 953.24 404.425 953.38 410.655Z" fill="#247C48"/>
<path d="M931.54 372.932C931.29 375.726 930.61 378.402 929.59 380.898L918.71 383.931L931.53 372.932H931.54Z" fill="#247C48"/>
<path d="M911.93 484.705L902.75 484.917L903.46 365.092L911.93 484.705Z" fill="#353535"/>
<path d="M903.76 430.984L877.27 410.516L904.26 436.837L903.76 430.984Z" fill="#353535"/>
<path d="M906.42 424.289L930.18 393.095L906.24 417.012L906.42 424.289Z" fill="#353535"/>
<path d="M903.62 387.844L897.36 378.322L903.77 384.732L903.62 387.844Z" fill="#353535"/>
<path d="M877.66 401.968L870.36 404.835C868.34 403.517 866.57 401.829 865.17 399.856L877.66 401.968Z" fill="#247C48"/>
<path d="M861.97 387.682C862.27 387.96 862.61 388.224 863 388.474C862.75 388.758 862.6 389.054 862.53 389.35C862.42 389.889 862.61 390.427 863.05 390.877C863.92 391.778 865.77 392.34 868.19 391.91C872.51 391.141 895.4 383.442 930 357.73C933.5 355.13 928.57 349.115 924.13 350.102C923.29 348.292 921.62 346.824 919.69 346.146C918.17 345.612 916.49 345.563 914.92 346.216C911.36 347.7 889.95 368.959 862.49 378.086C861.59 379.152 860.85 380.421 860.47 381.739C860.38 382.039 860.31 382.34 860.27 382.643C859.98 384.422 860.4 386.226 861.97 387.682Z" fill="#424242"/>
<path d="M854.85 381.886C855.75 381.902 856.68 381.973 857.67 382.117C858.5 382.236 859.36 382.409 860.27 382.643C860.31 382.34 860.38 382.039 860.47 381.739C859.97 381.477 859.48 381.271 858.98 381.112C858.98 381.112 858.46 381.676 854.85 381.886Z" fill="#1E1E1E"/>
<path d="M830.84 397.196C848.47 389.175 857.32 397.339 863.05 390.879C862.61 390.427 862.42 389.889 862.53 389.35C862.6 389.054 862.75 388.758 863 388.474C862.61 388.224 862.27 387.96 861.97 387.682C860.4 386.226 859.98 384.422 860.27 382.643C859.36 382.409 858.5 382.236 857.67 382.117C849.78 380.967 845.12 384.484 836.11 383.583C834.5 383.422 832.75 383.12 830.82 382.624C832.33 391.637 832.63 393.759 830.84 397.196Z" fill="#424242"/>
<path d="M918.79 352.91C918.87 352.857 920.79 351.61 924.13 350.102C923.29 348.292 921.62 346.824 919.69 346.146C921.17 347.566 918.84 352.792 918.79 352.91Z" fill="#424242"/>
<path d="M863 388.474C866.34 388.599 870.6 386.787 870.6 386.787C864.42 387.227 861.57 386.752 860.53 385.602" fill="#424242"/>
<path d="M836.11 383.583C843.99 384.371 848.55 381.776 854.85 381.886C858.46 381.676 858.98 381.113 858.98 381.113C853.31 379.305 847.54 383.641 838.47 378.254C837.62 380.176 836.71 382.23 836.11 383.583Z" fill="#1E1E1E"/>
<path d="M860.53 385.602C860.73 386.11 861.01 386.604 861.39 387.068C861.42 387.11 861.46 387.153 861.5 387.193C861.64 387.361 861.8 387.523 861.97 387.682C862.27 387.96 862.61 388.224 863 388.474C866.34 388.597 870.6 386.787 870.6 386.787C864.42 387.227 861.57 386.752 860.53 385.602Z" fill="#1E1E1E"/>
<path d="M854.85 381.886C855.75 381.902 856.68 381.973 857.67 382.117C858.5 382.236 859.36 382.409 860.27 382.643C860.31 382.34 860.38 382.039 860.47 381.739C859.97 381.477 859.48 381.271 858.98 381.112C858.98 381.112 858.46 381.676 854.85 381.886Z" fill="#1E1E1E"/>
<path d="M918.79 352.91C918.87 352.857 920.79 351.61 924.13 350.102C923.29 348.292 921.62 346.824 919.69 346.146C921.17 347.566 918.84 352.792 918.79 352.91Z" fill="#1E1E1E"/>
<path d="M356.79 410.655C356.39 428.004 370.13 442.393 387.47 442.79C388.88 442.823 390.27 442.764 391.63 442.611C397.08 449.465 405.43 453.941 414.87 454.159C429.45 454.497 441.9 444.578 445.28 430.99C445.82 428.832 446.13 426.58 446.18 424.263C446.35 416.953 443.94 410.192 439.8 404.835C441.82 403.517 443.59 401.829 444.99 399.856C447.12 396.856 448.41 393.214 448.5 389.261C448.72 380.077 442.41 372.27 433.8 370.25C433.73 355.338 421.8 343.102 406.8 342.751C391.53 342.4 378.86 354.491 378.51 369.754C378.48 370.826 378.52 371.886 378.62 372.932C378.87 375.726 379.55 378.402 380.57 380.898C372.95 382.798 366.41 387.493 362.12 393.843C358.88 398.657 356.93 404.418 356.79 410.649V410.655Z" fill="#1D6D3E"/>
<path d="M372.26 374.634C372.21 376.759 373.89 378.521 376.01 378.567C376.24 378.567 376.46 378.56 376.68 378.521C376.72 378.309 376.75 378.084 376.75 377.859C376.8 375.733 375.12 373.972 373 373.919C372.77 373.919 372.55 373.925 372.34 373.965C372.29 374.177 372.27 374.402 372.26 374.627V374.634Z" fill="#1DCF65"/>
<path d="M417.78 399.035C419.78 399.743 421.98 398.697 422.69 396.69C422.76 396.479 422.82 396.26 422.86 396.042C422.66 395.936 422.47 395.843 422.25 395.77C420.25 395.062 418.05 396.108 417.34 398.114C417.27 398.326 417.21 398.545 417.17 398.756C417.37 398.869 417.57 398.955 417.78 399.035Z" fill="#1A994D"/>
<path d="M392.75 369.065C394.02 367.37 393.69 364.953 391.99 363.675C391.81 363.536 391.62 363.417 391.42 363.324C391.26 363.47 391.12 363.635 390.98 363.821C389.7 365.523 390.04 367.933 391.73 369.211C391.91 369.35 392.1 369.462 392.29 369.562C392.45 369.416 392.61 369.251 392.74 369.065H392.75Z" fill="#1A994D"/>
<path d="M382.18 413.205C381.59 411.165 379.46 409.98 377.42 410.569C377.2 410.629 376.99 410.715 376.8 410.808C376.82 411.026 376.86 411.245 376.92 411.457C377.51 413.503 379.65 414.681 381.69 414.092C381.9 414.032 382.11 413.953 382.31 413.854C382.29 413.635 382.24 413.417 382.18 413.198V413.205Z" fill="#DFDFDF"/>
<path d="M438.02 364.264C435.92 364.596 434.49 366.562 434.82 368.661C434.85 368.886 434.9 369.105 434.98 369.31C435.19 369.31 435.41 369.297 435.64 369.264C437.74 368.933 439.17 366.966 438.84 364.86C438.81 364.635 438.76 364.423 438.68 364.211C438.47 364.211 438.24 364.225 438.02 364.258V364.264Z" fill="#247C48"/>
<path d="M356.79 410.655C356.39 428.004 370.13 442.393 387.47 442.79C388.88 442.823 390.27 442.764 391.63 442.611C397.08 449.465 405.43 453.941 414.87 454.159C429.45 454.497 441.9 444.578 445.28 430.99C440.54 440.188 403.12 452.339 390.8 428.216C375.91 432.209 355.21 419.012 362.13 393.85C358.89 398.664 356.94 404.425 356.79 410.655Z" fill="#247C48"/>
<path d="M378.63 372.932C378.88 375.726 379.55 378.402 380.58 380.898L391.46 383.931L378.63 372.932Z" fill="#247C48"/>
<path d="M398.25 484.705L407.41 484.917L406.72 365.092L398.25 484.705Z" fill="#353535"/>
<path d="M406.41 430.984L432.9 410.516L405.91 436.837L406.41 430.984Z" fill="#353535"/>
<path d="M403.76 424.289L380 393.095L403.92 417.012L403.76 424.289Z" fill="#353535"/>
<path d="M406.55 387.844L412.81 378.322L406.4 384.732L406.55 387.844Z" fill="#353535"/>
<path d="M432.51 401.968L439.8 404.835C441.83 403.517 443.6 401.829 445 399.856L432.51 401.968Z" fill="#0B4C22"/>
<path d="M338.72 256H230.53V483.175H338.72V256Z" fill="#E9E9E9"/>
<path d="M282.24 266.857H273.77V472.665H282.24V266.857Z" fill="#4F5164"/>
<path d="M294.16 266.857H285.69V472.665H294.16V266.857Z" fill="#4F5164"/>
<path d="M306.08 266.857H297.61V472.665H306.08V266.857Z" fill="#4F5164"/>
<path d="M246.38 266.857H237.91V472.665H246.38V266.857Z" fill="#4F5164"/>
<path d="M258.3 266.857H249.83V472.665H258.3V266.857Z" fill="#4F5164"/>
<path d="M318 266.857H309.53V472.665H318V266.857Z" fill="#4F5164"/>
<path d="M329.92 266.857H321.45V472.665H329.92V266.857Z" fill="#4F5164"/>
<g opacity="0.3">
<path d="M265.23 256H230.53V483.175H265.23V256Z" fill="black"/>
</g>
<path d="M1122.01 257.84H1181.83V242H1122.01V257.84Z" fill="#E9E9E9"/>
<path d="M1124.54 254.256H1179.31V243.997H1124.54V254.256Z" fill="#375A64"/>
<path d="M1124.54 254.256H1179.31V243.997H1124.54V254.256Z" fill="#76798E"/>
<path d="M1114.13 450.116H1190.97V255.51H1114.13V450.116Z" fill="#E9E9E9"/>
<path d="M1118.72 450.122H1186.84V260.021H1118.72V450.122Z" fill="#4F5164"/>
<path d="M1186.85 349.171H1173.05V327.738H1161.93V310.407H1139.71V365.052H1128.6V287.576H1118.72V260.015H1186.85V349.171Z" fill="#76798E"/>
<path d="M1115.58 280.016C1115.58 280.171 1131.91 280.303 1152.05 280.303C1172.19 280.303 1188.53 280.177 1188.53 280.016C1188.53 279.855 1172.2 279.728 1152.05 279.728C1131.91 279.728 1115.58 279.855 1115.58 280.016Z" fill="#1A2E35"/>
<path d="M1115.58 299.521C1115.58 299.676 1131.91 299.809 1152.05 299.809C1172.19 299.809 1188.53 299.682 1188.53 299.521C1188.53 299.36 1172.2 299.233 1152.05 299.233C1131.91 299.233 1115.58 299.36 1115.58 299.521Z" fill="#1A2E35"/>
<path d="M1115.58 319.027C1115.58 319.182 1131.91 319.314 1152.05 319.314C1172.19 319.314 1188.53 319.188 1188.53 319.027C1188.53 318.866 1172.2 318.739 1152.05 318.739C1131.91 318.739 1115.58 318.866 1115.58 319.027Z" fill="#1A2E35"/>
<path d="M1115.58 338.526C1115.58 338.682 1131.91 338.814 1152.05 338.814C1172.19 338.814 1188.53 338.688 1188.53 338.526C1188.53 338.365 1172.2 338.239 1152.05 338.239C1131.91 338.239 1115.58 338.365 1115.58 338.526Z" fill="#1A2E35"/>
<path d="M1115.58 358.032C1115.58 358.187 1131.91 358.32 1152.05 358.32C1172.19 358.32 1188.53 358.193 1188.53 358.032C1188.53 357.871 1172.2 357.744 1152.05 357.744C1131.91 357.744 1115.58 357.871 1115.58 358.032Z" fill="#1A2E35"/>
<path d="M1115.58 377.532C1115.58 377.687 1131.91 377.819 1152.05 377.819C1172.19 377.819 1188.53 377.693 1188.53 377.532C1188.53 377.371 1172.2 377.244 1152.05 377.244C1131.91 377.244 1115.58 377.371 1115.58 377.532Z" fill="#1A2E35"/>
<path d="M1115.58 397.037C1115.58 397.193 1131.91 397.325 1152.05 397.325C1172.19 397.325 1188.53 397.198 1188.53 397.037C1188.53 396.876 1172.2 396.75 1152.05 396.75C1131.91 396.75 1115.58 396.876 1115.58 397.037Z" fill="#1A2E35"/>
<path d="M1115.58 416.537C1115.58 416.692 1131.91 416.825 1152.05 416.825C1172.19 416.825 1188.53 416.698 1188.53 416.537C1188.53 416.376 1172.2 416.249 1152.05 416.249C1131.91 416.249 1115.58 416.376 1115.58 416.537Z" fill="#1A2E35"/>
<path d="M1115.58 436.043C1115.58 436.198 1131.91 436.33 1152.05 436.33C1172.19 436.33 1188.53 436.204 1188.53 436.043C1188.53 435.881 1172.2 435.755 1152.05 435.755C1131.91 435.755 1115.58 435.881 1115.58 436.043Z" fill="#1A2E35"/>
<path d="M1171.34 454.179C1171.49 454.179 1171.62 406.94 1171.62 348.676C1171.62 290.413 1171.5 243.162 1171.34 243.162C1171.18 243.162 1171.05 290.396 1171.05 348.676C1171.05 406.957 1171.18 454.179 1171.34 454.179Z" fill="#1A2E35"/>
<path d="M1151.56 454.179C1151.72 454.179 1151.85 406.94 1151.85 348.676C1151.85 290.413 1151.73 243.162 1151.56 243.162C1151.4 243.162 1151.28 290.396 1151.28 348.676C1151.28 406.957 1151.4 454.179 1151.56 454.179Z" fill="#1A2E35"/>
<path d="M1131.8 454.179C1131.95 454.179 1132.09 406.94 1132.09 348.676C1132.09 290.413 1131.96 243.162 1131.8 243.162C1131.64 243.162 1131.51 290.396 1131.51 348.676C1131.51 406.957 1131.64 454.179 1131.8 454.179Z" fill="#1A2E35"/>
<path d="M1181.83 255.516H1190.48V242H1181.83V255.516Z" fill="#1A2E35"/>
<path d="M1190.48 242H1181.83V255.516H1190.48V242Z" fill="#A4A4A4"/>
<path d="M1190.59 450.116H1199.24V255.631H1190.59V450.116Z" fill="#1A2E35"/>
<path d="M1199.25 255.637H1190.59V450.122H1199.25V255.637Z" fill="#A4A4A4"/>
<path d="M1002.6 326.097H945.06V483.129H1002.6V326.097Z" fill="#E9E9E9"/>
<path d="M1031.98 326.097H1002.6V483.129H1031.98V326.097Z" fill="#E9E9E9"/>
<path d="M994.1 341.34H982.27V357.351H994.1V341.34Z" fill="#4F5164"/>
<g opacity="0.3">
<path d="M994.11 341.34V343.327H984.27V357.358H982.27V341.34H994.11Z" fill="black"/>
</g>
<path d="M981.59 360.609H994.11V357.351H981.59V360.609Z" fill="white"/>
<path d="M981.59 341.248H994.11V337.99H981.59V341.248Z" fill="white"/>
<path d="M954.99 360.609H967.51V357.351H954.99V360.609Z" fill="white"/>
<path d="M954.99 341.248H967.51V337.99H954.99V341.248Z" fill="white"/>
<path d="M967.52 341.34H955.69V357.351H967.52V341.34Z" fill="#4F5164"/>
<g opacity="0.3">
<path d="M967.52 341.34V343.327H957.68V357.358H955.69V341.34H967.52Z" fill="black"/>
</g>
<path d="M994.1 371.045H982.27V387.056H994.1V371.045Z" fill="#4F5164"/>
<g opacity="0.3">
<path d="M994.11 371.045V373.031H984.27V387.056H982.27V371.045H994.11Z" fill="black"/>
</g>
<path d="M981.59 390.314H994.11V387.056H981.59V390.314Z" fill="white"/>
<path d="M981.59 370.946H994.11V367.688H981.59V370.946Z" fill="white"/>
<path d="M954.99 390.314H967.51V387.056H954.99V390.314Z" fill="white"/>
<path d="M954.99 370.946H967.51V367.688H954.99V370.946Z" fill="white"/>
<path d="M967.52 371.045H955.69V387.056H967.52V371.045Z" fill="#4F5164"/>
<g opacity="0.3">
<path d="M967.52 371.045V373.031H957.68V387.056H955.69V371.045H967.52Z" fill="black"/>
</g>
<path d="M994.1 401.796H982.27V417.807H994.1V401.796Z" fill="#4F5164"/>
<g opacity="0.3">
<path d="M994.11 401.796V403.782H984.27V417.813H982.27V401.796H994.11Z" fill="black"/>
</g>
<path d="M981.59 421.065H994.11V417.807H981.59V421.065Z" fill="white"/>
<path d="M981.59 401.703H994.11V398.445H981.59V401.703Z" fill="white"/>
<path d="M954.99 421.065H967.51V417.807H954.99V421.065Z" fill="white"/>
<path d="M954.99 401.703H967.51V398.445H954.99V401.703Z" fill="white"/>
<path d="M967.52 401.796H955.69V417.807H967.52V401.796Z" fill="#4F5164"/>
<g opacity="0.3">
<path d="M967.52 401.796V403.782H957.68V417.813H955.69V401.796H967.52Z" fill="black"/>
</g>
<path d="M994.1 432.341H982.27V448.352H994.1V432.341Z" fill="#4F5164"/>
<g opacity="0.3">
<path d="M994.11 432.341V434.321H984.27V448.352H982.27V432.341H994.11Z" fill="black"/>
</g>
<path d="M981.59 451.61H994.11V448.352H981.59V451.61Z" fill="white"/>
<path d="M981.59 432.242H994.11V428.984H981.59V432.242Z" fill="white"/>
<path d="M954.99 451.61H967.51V448.352H954.99V451.61Z" fill="white"/>
<path d="M954.99 432.242H967.51V428.984H954.99V432.242Z" fill="white"/>
<path d="M967.52 432.341H955.69V448.352H967.52V432.341Z" fill="#4F5164"/>
<g opacity="0.3">
<path d="M967.52 432.341V434.321H957.68V448.352H955.69V432.341H967.52Z" fill="black"/>
</g>
<path d="M1014.45 340.817H1010.31V356.828H1014.45V340.817Z" fill="#4F5164"/>
<path d="M1009.72 359.245H1017.29V356.835H1009.72V359.245Z" fill="white"/>
<path d="M1025.55 340.817H1021.41V356.828H1025.55V340.817Z" fill="#4F5164"/>
<path d="M1020.82 359.245H1028.39V356.835H1020.82V359.245Z" fill="white"/>
<path d="M1014.45 371.323H1010.31V387.334H1014.45V371.323Z" fill="#4F5164"/>
<path d="M1009.72 389.751H1017.29V387.341H1009.72V389.751Z" fill="white"/>
<path d="M1025.55 371.323H1021.41V387.334H1025.55V371.323Z" fill="#4F5164"/>
<path d="M1020.82 389.751H1028.39V387.341H1020.82V389.751Z" fill="white"/>
<path d="M1014.45 401.836H1010.31V417.847H1014.45V401.836Z" fill="#4F5164"/>
<path d="M1009.72 420.257H1017.29V417.847H1009.72V420.257Z" fill="white"/>
<path d="M1021.41 417.847H1025.55V401.835H1021.41V417.847Z" fill="#4F5164"/>
<path d="M1020.82 420.257H1028.39V417.847H1020.82V420.257Z" fill="white"/>
<path d="M994.1 457.854H982.27V483.129H994.1V457.854Z" fill="#4F5164"/>
<g opacity="0.3">
<path d="M994.11 457.854V459.748H984.27V483.122H982.27V457.854H994.11Z" fill="black"/>
</g>
<path d="M967.17 457.854H955.33V483.129H967.17V457.854Z" fill="#4F5164"/>
<g opacity="0.3">
<path d="M967.17 457.854V459.748H957.33V483.122H955.33V457.854H967.17Z" fill="black"/>
</g>
<path d="M1014.45 432.341H1010.31V448.352H1014.45V432.341Z" fill="#4F5164"/>
<path d="M1009.72 450.769H1017.29V448.359H1009.72V450.769Z" fill="white"/>
<path d="M1025.55 432.341H1021.41V448.352H1025.55V432.341Z" fill="#4F5164"/>
<path d="M1020.82 450.769H1028.39V448.359H1020.82V450.769Z" fill="white"/>
<path d="M1014.45 459.152H1010.31V475.163H1014.45V459.152Z" fill="#4F5164"/>
<path d="M1009.72 477.58H1017.29V475.17H1009.72V477.58Z" fill="white"/>
<path d="M1025.55 459.152H1021.41V475.163H1025.55V459.152Z" fill="#4F5164"/>
<path d="M1020.82 477.58H1028.39V475.17H1020.82V477.58Z" fill="white"/>
<g opacity="0.3">
<path d="M1031.99 326.097H1001.76V483.129H1031.99V326.097Z" fill="black"/>
</g>
<path d="M1171.76 356.677C1172.92 378.72 1155.99 397.54 1133.94 398.703C1129.19 398.955 1124.58 398.357 1120.27 397.055C1115.86 400.467 1110.42 402.62 1104.43 402.934C1099.4 403.198 1094.61 402.14 1090.4 400.056C1081.51 395.664 1075.18 386.725 1074.62 376.115C1074.59 375.433 1074.58 374.753 1074.59 374.076C1072.49 373.074 1070.5 371.893 1068.62 370.547C1059.04 363.724 1052.55 352.755 1051.89 340.105C1051.2 327.058 1056.85 315.153 1066.14 307.352C1064.49 303.938 1063.48 300.143 1063.27 296.125C1062.41 279.87 1074.89 265.995 1091.15 265.134C1101.4 264.594 1110.7 269.364 1116.39 277.028C1119.74 275.453 1123.45 274.48 1127.37 274.273C1143.63 273.418 1157.5 285.896 1158.36 302.15C1158.51 304.872 1158.28 307.53 1157.71 310.068C1157.63 310.473 1157.52 310.884 1157.42 311.282C1156.2 315.903 1153.86 320.097 1150.72 323.548C1157.84 327.372 1163.7 333.303 1167.42 340.555C1169.92 345.416 1171.45 350.866 1171.75 356.677H1171.76Z" fill="#1D6D3E"/>
<path d="M1171.76 356.682C1172.92 378.725 1155.99 397.545 1133.94 398.707C1129.19 398.96 1124.58 398.362 1120.27 397.06C1115.86 400.472 1110.42 402.625 1104.43 402.939C1099.4 403.203 1094.61 402.145 1090.4 400.061C1101.68 402.057 1113.09 396.937 1119.55 389.524C1134.14 393.834 1168 382.104 1167.43 340.564V340.563C1169.93 345.424 1171.46 350.875 1171.77 356.686L1171.76 356.682Z" fill="#0B4C22"/>
<path d="M1157.72 310.068C1157.63 310.473 1157.53 310.884 1157.43 311.281C1156.2 315.902 1153.87 320.096 1150.72 323.547L1137.59 327.015L1157.72 310.068Z" fill="#0B4C22"/>
<path d="M1084.54 364.616L1074.59 374.076C1072.49 373.073 1070.5 371.893 1068.62 370.547L1084.54 364.621V364.616Z" fill="#0B4C22"/>
<path d="M1068.76 378.747C1065.13 379.601 1061.5 377.357 1060.64 373.731C1060.55 373.341 1060.49 372.953 1060.47 372.569C1060.82 372.42 1061.2 372.298 1061.58 372.207C1065.21 371.348 1068.84 373.597 1069.7 377.223C1069.79 377.613 1069.85 377.997 1069.87 378.38C1069.52 378.534 1069.14 378.657 1068.76 378.747Z" fill="#5C5C5C"/>
<path d="M1115.32 273.516C1114.68 271.44 1115.86 269.243 1117.94 268.614C1118.16 268.547 1118.38 268.498 1118.61 268.473C1118.71 268.671 1118.79 268.881 1118.86 269.101C1119.49 271.182 1118.32 273.375 1116.24 274.007C1116.02 274.075 1115.8 274.124 1115.58 274.149C1115.47 273.951 1115.39 273.737 1115.32 273.516Z" fill="#1D6D3E"/>
<path d="M1127.83 426.173L1115.96 426.8L1114.66 316.636L1127.83 426.173Z" fill="white"/>
<path d="M1118.35 347.921L1154.94 330.681L1118.27 355.541L1118.35 347.921Z" fill="white"/>
<path d="M1119.22 384.392L1083 359.915L1118.79 376.181L1119.22 384.392Z" fill="white"/>
<path d="M1115.96 334.965L1092.41 319.049L1115.68 329.622L1115.96 334.965Z" fill="white"/>
<path d="M1069.75 275.122C1088.61 305.398 1134.44 307.489 1157.08 304.765C1158.04 304.649 1158.58 305.796 1157.82 306.408C1136.46 323.709 1080.01 330.386 1057.53 320.731C1056.58 320.321 1055.6 321.377 1056.25 322.192C1074.81 345.649 1139.68 351.594 1168.5 346.987C1169.57 346.816 1170.2 348.276 1169.31 348.9C1137.45 371.244 1094.4 384.256 1077.79 387.707" stroke="#FF7171" stroke-width="2" stroke-linecap="round"/>
<path d="M1120.86 308.368C1121.69 308.275 1122.29 307.523 1122.2 306.69C1122.11 305.856 1121.35 305.256 1120.52 305.349C1119.69 305.443 1119.09 306.194 1119.18 307.028C1119.27 307.862 1120.03 308.462 1120.86 308.368Z" fill="white"/>
<path d="M1081.31 299.81C1083.19 299.6 1084.54 297.909 1084.33 296.033C1084.12 294.158 1082.43 292.807 1080.55 293.018C1078.67 293.228 1077.32 294.919 1077.53 296.795C1077.74 298.67 1079.44 300.021 1081.31 299.81Z" fill="#F2BB45"/>
<path d="M1119.92 330.636C1122.21 330.379 1123.86 328.312 1123.6 326.02C1123.34 323.727 1121.28 322.077 1118.98 322.334C1116.69 322.591 1115.04 324.658 1115.3 326.95C1115.56 329.243 1117.62 330.893 1119.92 330.636Z" fill="#F2BB45"/>
<path d="M1075.85 343.217C1077.1 343.077 1078 341.949 1077.86 340.699C1077.72 339.448 1076.6 338.548 1075.35 338.689C1074.1 338.829 1073.2 339.956 1073.34 341.207C1073.48 342.457 1074.6 343.357 1075.85 343.217Z" fill="white"/>
<path d="M1135.5 357.165C1137.59 356.931 1139.09 355.052 1138.85 352.968C1138.62 350.884 1136.74 349.384 1134.66 349.618C1132.57 349.851 1131.07 351.73 1131.31 353.814C1131.54 355.898 1133.42 357.398 1135.5 357.165Z" fill="white"/>
<path d="M1109.78 386.796C1111.87 386.562 1113.37 384.683 1113.13 382.599C1112.9 380.515 1111.02 379.015 1108.94 379.248C1106.85 379.482 1105.35 381.361 1105.59 383.445C1105.82 385.529 1107.7 387.029 1109.78 386.796Z" fill="#F2BB45"/>
<path d="M1080.34 294.569L1079.41 286.267" stroke="#141414" stroke-linecap="round"/>
<path d="M1118.86 324.641L1118.27 319.357" stroke="#141414" stroke-linecap="round"/>
<path d="M1120.52 305.349L1120.18 302.33" stroke="#141414" stroke-linecap="round"/>
<path d="M1075.52 340.198L1074.93 334.915" stroke="#141414" stroke-linecap="round"/>
<path d="M1134.91 351.882L1134.32 346.599" stroke="#141414" stroke-linecap="round"/>
<path d="M1109.19 381.512L1108.6 376.229" stroke="#141414" stroke-linecap="round"/>
<path d="M1184.81 326.097H1127.27V483.129H1184.81V326.097Z" fill="#E9E9E9"/>
<path d="M1214.19 326.097H1184.81V483.129H1214.19V326.097Z" fill="#E9E9E9"/>
<path d="M1176.31 341.34H1164.48V357.351H1176.31V341.34Z" fill="#4F5164"/>
<g opacity="0.3">
<path d="M1176.31 341.34V343.327H1166.47V357.358H1164.48V341.34H1176.31Z" fill="black"/>
</g>
<path d="M1163.79 360.609H1176.31V357.351H1163.79V360.609Z" fill="white"/>
<path d="M1163.79 341.248H1176.31V337.99H1163.79V341.248Z" fill="white"/>
<path d="M1137.2 360.609H1149.73V357.351H1137.2V360.609Z" fill="white"/>
<path d="M1137.2 341.248H1149.73V337.99H1137.2V341.248Z" fill="white"/>
<path d="M1149.73 341.34H1137.89V357.351H1149.73V341.34Z" fill="#4F5164"/>
<g opacity="0.3">
<path d="M1149.73 341.34V343.327H1139.89V357.358H1137.89V341.34H1149.73Z" fill="black"/>
</g>
<path d="M1176.31 371.045H1164.48V387.056H1176.31V371.045Z" fill="#4F5164"/>
<g opacity="0.3">
<path d="M1176.31 371.045V373.031H1166.47V387.056H1164.48V371.045H1176.31Z" fill="black"/>
</g>
<path d="M1163.79 390.314H1176.31V387.056H1163.79V390.314Z" fill="white"/>
<path d="M1163.79 370.946H1176.31V367.688H1163.79V370.946Z" fill="white"/>
<path d="M1137.2 390.314H1149.73V387.056H1137.2V390.314Z" fill="white"/>
<path d="M1137.2 370.946H1149.73V367.688H1137.2V370.946Z" fill="white"/>
<path d="M1149.73 371.045H1137.89V387.056H1149.73V371.045Z" fill="#4F5164"/>
<g opacity="0.3">
<path d="M1149.73 371.045V373.031H1139.89V387.056H1137.89V371.045H1149.73Z" fill="black"/>
</g>
<path d="M1176.31 401.796H1164.48V417.807H1176.31V401.796Z" fill="#4F5164"/>
<g opacity="0.3">
<path d="M1176.31 401.796V403.782H1166.47V417.813H1164.48V401.796H1176.31Z" fill="black"/>
</g>
<path d="M1163.79 421.065H1176.31V417.807H1163.79V421.065Z" fill="white"/>
<path d="M1163.79 401.703H1176.31V398.445H1163.79V401.703Z" fill="white"/>
<path d="M1137.2 421.065H1149.73V417.807H1137.2V421.065Z" fill="white"/>
<path d="M1137.2 401.703H1149.73V398.445H1137.2V401.703Z" fill="white"/>
<path d="M1149.73 401.796H1137.89V417.807H1149.73V401.796Z" fill="#4F5164"/>
<g opacity="0.3">
<path d="M1149.73 401.796V403.782H1139.89V417.813H1137.89V401.796H1149.73Z" fill="black"/>
</g>
<path d="M1176.31 432.341H1164.48V448.352H1176.31V432.341Z" fill="#4F5164"/>
<g opacity="0.3">
<path d="M1176.31 432.341V434.321H1166.47V448.352H1164.48V432.341H1176.31Z" fill="black"/>
</g>
<path d="M1163.79 451.61H1176.31V448.352H1163.79V451.61Z" fill="white"/>
<path d="M1163.79 432.242H1176.31V428.984H1163.79V432.242Z" fill="white"/>
<path d="M1137.2 451.61H1149.73V448.352H1137.2V451.61Z" fill="white"/>
<path d="M1137.2 432.242H1149.73V428.984H1137.2V432.242Z" fill="white"/>
<path d="M1149.73 432.341H1137.89V448.352H1149.73V432.341Z" fill="#4F5164"/>
<g opacity="0.3">
<path d="M1149.73 432.341V434.321H1139.89V448.352H1137.89V432.341H1149.73Z" fill="black"/>
</g>
<path d="M1196.66 340.817H1192.52V356.828H1196.66V340.817Z" fill="#4F5164"/>
<path d="M1191.94 359.245H1199.51V356.835H1191.94V359.245Z" fill="white"/>
<path d="M1207.76 340.817H1203.61V356.828H1207.76V340.817Z" fill="#4F5164"/>
<path d="M1203.03 359.245H1210.6V356.835H1203.03V359.245Z" fill="white"/>
<path d="M1196.66 371.323H1192.52V387.334H1196.66V371.323Z" fill="#4F5164"/>
<path d="M1191.94 389.751H1199.51V387.341H1191.94V389.751Z" fill="white"/>
<path d="M1207.76 371.323H1203.61V387.334H1207.76V371.323Z" fill="#4F5164"/>
<path d="M1203.03 389.751H1210.6V387.341H1203.03V389.751Z" fill="white"/>
<path d="M1196.66 401.836H1192.52V417.847H1196.66V401.836Z" fill="#4F5164"/>
<path d="M1191.94 420.257H1199.51V417.847H1191.94V420.257Z" fill="white"/>
<path d="M1203.62 417.847H1207.76V401.835H1203.62V417.847Z" fill="#4F5164"/>
<path d="M1203.03 420.257H1210.6V417.847H1203.03V420.257Z" fill="white"/>
<path d="M1176.31 457.854H1164.48V483.129H1176.31V457.854Z" fill="#4F5164"/>
<g opacity="0.3">
<path d="M1176.31 457.854V459.748H1166.47V483.122H1164.48V457.854H1176.31Z" fill="black"/>
</g>
<path d="M1149.37 457.854H1137.54V483.129H1149.37V457.854Z" fill="#4F5164"/>
<g opacity="0.3">
<path d="M1149.38 457.854V459.748H1139.54V483.122H1137.54V457.854H1149.38Z" fill="black"/>
</g>
<path d="M1196.66 432.341H1192.52V448.352H1196.66V432.341Z" fill="#4F5164"/>
<path d="M1191.94 450.769H1199.51V448.359H1191.94V450.769Z" fill="white"/>
<path d="M1207.76 432.341H1203.61V448.352H1207.76V432.341Z" fill="#4F5164"/>
<path d="M1203.03 450.769H1210.6V448.359H1203.03V450.769Z" fill="white"/>
<path d="M1196.66 459.152H1192.52V475.163H1196.66V459.152Z" fill="#4F5164"/>
<path d="M1191.94 477.58H1199.51V475.17H1191.94V477.58Z" fill="white"/>
<path d="M1207.76 459.152H1203.61V475.163H1207.76V459.152Z" fill="#4F5164"/>
<path d="M1203.03 477.58H1210.6V475.17H1203.03V477.58Z" fill="white"/>
<g opacity="0.3">
<path d="M1214.19 326.097H1183.97V483.129H1214.19V326.097Z" fill="black"/>
</g>
<path d="M464.61 417.072H339.63V483.175H464.61V417.072Z" fill="#E9E9E9"/>
<path d="M467.25 417.072H338.05V423.25H467.25V417.072Z" fill="#4F5164"/>
<path d="M361.59 433.242H356.37V470.965H361.59V433.242Z" fill="#4F5164"/>
<path d="M351.52 433.242H346.3V470.965H351.52V433.242Z" fill="#4F5164"/>
<path d="M464.61 470.853H339.63V483.169H464.61V470.853Z" fill="white"/>
<path d="M393.35 456.245H380.9V483.175H393.35V456.245Z" fill="#4F5164"/>
<path d="M388.28 435.116H380.9V444.618H388.28V435.116Z" fill="#4F5164"/>
<g opacity="0.3">
<path d="M380.9 435.116V436.294H387.04V444.618H388.28V435.116H380.9Z" fill="black"/>
</g>
<path d="M409.49 435.116H402.11V444.618H409.49V435.116Z" fill="#4F5164"/>
<g opacity="0.3">
<path d="M402.11 435.116V436.294H408.24V444.618H409.49V435.116H402.11Z" fill="black"/>
</g>
<path d="M432.19 435.116H424.81V444.618H432.19V435.116Z" fill="#4F5164"/>
<g opacity="0.3">
<path d="M424.81 435.116V436.294H430.95V444.618H432.19V435.116H424.81Z" fill="black"/>
</g>
<path d="M454.9 435.116H447.52V444.618H454.9V435.116Z" fill="#4F5164"/>
<g opacity="0.3">
<path d="M447.52 435.116V436.294H453.65V444.618H454.9V435.116H447.52Z" fill="black"/>
</g>
<path d="M409.49 452.107H402.11V461.609H409.49V452.107Z" fill="#4F5164"/>
<g opacity="0.3">
<path d="M402.11 452.107V453.285H408.24V461.609H409.49V452.107H402.11Z" fill="black"/>
</g>
<path d="M432.19 452.107H424.81V461.609H432.19V452.107Z" fill="#4F5164"/>
<g opacity="0.3">
<path d="M424.81 452.107V453.285H430.95V461.609H432.19V452.107H424.81Z" fill="black"/>
</g>
<path d="M454.9 452.107H447.52V461.609H454.9V452.107Z" fill="#4F5164"/>
<g opacity="0.3">
<path d="M447.52 452.107V453.285H453.65V461.609H454.9V452.107H447.52Z" fill="black"/>
</g>
<g opacity="0.3">
<path d="M372.95 423.25H339.63V483.175H372.95V423.25Z" fill="black"/>
</g>
<path d="M1011.22 410.656C1010.82 428.004 1024.56 442.393 1041.9 442.79C1043.31 442.823 1044.7 442.764 1046.05 442.611C1051.51 449.465 1059.85 453.941 1069.3 454.16C1083.88 454.497 1096.32 444.578 1099.71 430.99C1100.25 428.832 1100.56 426.58 1100.61 424.263C1100.78 416.953 1098.37 410.192 1094.22 404.835C1096.25 403.517 1098.02 401.829 1099.42 399.856C1101.55 396.856 1102.84 393.214 1102.93 389.261C1103.14 380.077 1096.83 372.27 1088.23 370.25C1088.16 355.339 1076.23 343.102 1061.23 342.751C1045.95 342.4 1033.29 354.491 1032.94 369.754C1032.91 370.826 1032.95 371.886 1033.05 372.932C1033.3 375.726 1033.97 378.402 1035 380.898C1027.38 382.798 1020.84 387.493 1016.55 393.843C1013.31 398.657 1011.36 404.418 1011.21 410.649L1011.22 410.656Z" fill="#28D16C"/>
<path d="M1026.68 374.634C1026.64 376.759 1028.32 378.521 1030.44 378.567C1030.66 378.567 1030.89 378.561 1031.11 378.521C1031.15 378.309 1031.17 378.084 1031.18 377.859C1031.23 375.733 1029.54 373.972 1027.43 373.919C1027.2 373.919 1026.97 373.925 1026.76 373.965C1026.72 374.177 1026.7 374.402 1026.69 374.627L1026.68 374.634Z" fill="#247C48"/>
<path d="M1072.2 399.035C1074.2 399.743 1076.4 398.697 1077.11 396.69C1077.19 396.479 1077.24 396.26 1077.28 396.042C1077.09 395.936 1076.89 395.843 1076.68 395.77C1074.67 395.062 1072.47 396.108 1071.76 398.114C1071.69 398.326 1071.63 398.545 1071.6 398.756C1071.79 398.869 1071.99 398.955 1072.2 399.035Z" fill="#247C48"/>
<path d="M1047.17 369.065C1048.45 367.37 1048.11 364.953 1046.42 363.675C1046.24 363.536 1046.05 363.417 1045.85 363.324C1045.69 363.47 1045.54 363.635 1045.4 363.821C1044.13 365.523 1044.46 367.933 1046.16 369.211C1046.34 369.35 1046.53 369.462 1046.72 369.562C1046.88 369.416 1047.03 369.251 1047.17 369.065Z" fill="#247C48"/>
<path d="M1036.6 413.205C1036.01 411.165 1033.88 409.98 1031.84 410.569C1031.62 410.629 1031.41 410.715 1031.22 410.808C1031.24 411.026 1031.29 411.245 1031.35 411.457C1031.93 413.503 1034.07 414.681 1036.11 414.092C1036.33 414.032 1036.53 413.953 1036.73 413.854C1036.71 413.635 1036.66 413.417 1036.6 413.198V413.205Z" fill="#247C48"/>
<path d="M1092.44 364.264C1090.34 364.596 1088.91 366.562 1089.24 368.661C1089.27 368.886 1089.32 369.105 1089.4 369.31C1089.62 369.31 1089.83 369.297 1090.06 369.264C1092.16 368.933 1093.6 366.966 1093.26 364.86C1093.23 364.635 1093.18 364.423 1093.11 364.211C1092.89 364.211 1092.66 364.225 1092.44 364.258V364.264Z" fill="#247C48"/>
<path d="M1011.22 410.656C1010.82 428.004 1024.56 442.393 1041.9 442.79C1043.31 442.823 1044.7 442.764 1046.05 442.611C1051.51 449.465 1059.85 453.941 1069.3 454.16C1083.88 454.497 1096.32 444.578 1099.71 430.99C1094.97 440.188 1057.55 452.339 1045.23 428.216C1030.34 432.209 1009.64 419.012 1016.56 393.85C1013.31 398.664 1011.37 404.425 1011.22 410.656Z" fill="#247C48"/>
<path d="M1033.05 372.932C1033.31 375.726 1033.98 378.402 1035.01 380.898L1045.89 383.931L1033.06 372.932H1033.05Z" fill="#247C48"/>
<path d="M1052.68 484.705L1061.84 484.917L1061.14 365.092L1052.68 484.705Z" fill="#353535"/>
<path d="M1060.84 430.984L1087.32 410.516L1060.33 436.837L1060.84 430.984Z" fill="#353535"/>
<path d="M1058.19 424.289L1034.42 393.095L1058.35 417.012L1058.19 424.289Z" fill="#353535"/>
<path d="M1060.97 387.844L1067.24 378.322L1060.83 384.732L1060.97 387.844Z" fill="#353535"/>
<path d="M1086.93 401.968L1094.23 404.835C1096.26 403.517 1098.03 401.829 1099.42 399.856L1086.93 401.968Z" fill="#247C48"/>
<path d="M1025.29 483.175H1150.26V417.072H1025.29V483.175Z" fill="#E9E9E9"/>
<path d="M1022.64 423.25H1151.84V417.072H1022.64V423.25Z" fill="#4F5164"/>
<path d="M1128.31 470.972H1133.53V433.248H1128.31V470.972Z" fill="#4F5164"/>
<path d="M1138.38 470.972H1143.59V433.248H1138.38V470.972Z" fill="#4F5164"/>
<path d="M1025.29 483.175H1150.26V470.859H1025.29V483.175Z" fill="white"/>
<path d="M1096.56 483.175H1109.01V456.245H1096.56V483.175Z" fill="#4F5164"/>
<path d="M1101.61 444.624H1109V435.122H1101.61V444.624Z" fill="#4F5164"/>
<g opacity="0.3">
<path d="M1109 435.116V436.294H1102.87V444.618H1101.62V435.116H1109Z" fill="black"/>
</g>
<path d="M1080.41 444.624H1087.79V435.122H1080.41V444.624Z" fill="#4F5164"/>
<g opacity="0.3">
<path d="M1087.79 435.116V436.294H1081.66V444.618H1080.41V435.116H1087.79Z" fill="black"/>
</g>
<path d="M1057.7 444.624H1065.09V435.122H1057.7V444.624Z" fill="#4F5164"/>
<g opacity="0.3">
<path d="M1065.09 435.116V436.294H1058.95V444.618H1057.71V435.116H1065.09Z" fill="black"/>
</g>
<path d="M1035 444.624H1042.38V435.122H1035V444.624Z" fill="#4F5164"/>
<g opacity="0.3">
<path d="M1042.38 435.116V436.294H1036.25V444.618H1035V435.116H1042.38Z" fill="black"/>
</g>
<path d="M1080.41 461.609H1087.79V452.107H1080.41V461.609Z" fill="#4F5164"/>
<g opacity="0.3">
<path d="M1087.79 452.107V453.285H1081.66V461.609H1080.41V452.107H1087.79Z" fill="black"/>
</g>
<path d="M1057.7 461.609H1065.09V452.107H1057.7V461.609Z" fill="#4F5164"/>
<g opacity="0.3">
<path d="M1065.09 452.107V453.285H1058.95V461.609H1057.71V452.107H1065.09Z" fill="black"/>
</g>
<path d="M1035 461.609H1042.38V452.107H1035V461.609Z" fill="#4F5164"/>
<g opacity="0.3">
<path d="M1042.38 452.107V453.285H1036.25V461.609H1035V452.107H1042.38Z" fill="black"/>
</g>
<g opacity="0.3">
<path d="M1116.95 483.175H1150.26V423.25H1116.95V483.175Z" fill="black"/>
</g>
<path d="M376.22 432.758C373.65 450.908 356.86 463.536 338.71 460.966C333.15 460.178 328.12 458.06 323.88 454.981C317.95 458.066 311.04 459.41 303.91 458.404C293.59 456.941 285.06 450.882 280.09 442.591C276.32 436.301 274.6 428.726 275.71 420.892C276.81 413.132 280.51 406.385 285.81 401.398C284.82 399.624 284.03 397.717 283.51 395.724C282.7 392.651 282.47 389.38 282.94 386.036C284.83 372.654 297.22 363.344 310.6 365.238C310.8 365.264 310.99 365.304 311.19 365.33C316.21 350.525 331.2 340.91 347.25 343.181C365.4 345.75 378.03 362.543 375.46 380.693C374.83 385.156 373.34 389.287 371.18 392.929C369.17 396.326 366.57 399.313 363.56 401.763C368.98 405.921 373.02 411.688 375.07 418.237C376.49 422.786 376.95 427.719 376.24 432.758H376.22Z" fill="#1D6D3E"/>
<path d="M376.22 432.758C373.65 450.908 356.86 463.536 338.71 460.966C333.15 460.179 328.12 458.06 323.88 454.981C317.95 458.066 311.04 459.41 303.91 458.404C293.59 456.941 285.06 450.882 280.09 442.592C293.48 452.736 306.19 451.604 321.91 443.34C340.34 453.477 372.04 442.168 375.05 418.237C376.47 422.786 376.93 427.719 376.22 432.758Z" fill="#0B4C22"/>
<path d="M371.16 392.929C369.16 396.326 366.56 399.313 363.55 401.763L348.57 399.644L371.16 392.929Z" fill="#0B4C22"/>
<path d="M296.18 402.868L285.8 401.398C284.81 399.624 284.03 397.717 283.5 395.724L296.19 402.868H296.18Z" fill="#0B4C22"/>
<path d="M326.16 485.923L316.38 484.539L338.16 357.391L326.16 485.923Z" fill="white"/>
<path d="M326.57 441.068L357.46 422.528L325.29 447.266L326.57 441.068Z" fill="white"/>
<path d="M327.4 420.985L314.42 399.001L328.36 414.224L327.4 420.985Z" fill="white"/>
<path d="M333.75 393.903L341.65 384.513L333.99 390.559L333.75 393.903Z" fill="white"/>
<path d="M206.33 483.122H263.88V326.091H206.33V483.122Z" fill="#E9E9E9"/>
<path d="M206.33 326.098H176.95V483.129H206.33V326.098Z" fill="#E9E9E9"/>
<path d="M226.67 341.34H214.84V357.351H226.67V341.34Z" fill="#4F5164"/>
<g opacity="0.3">
<path d="M214.84 341.34V343.327H224.67V357.358H226.67V341.34H214.84Z" fill="black"/>
</g>
<path d="M227.36 357.358H214.84V360.616H227.36V357.358Z" fill="white"/>
<path d="M227.36 337.99H214.84V341.248H227.36V337.99Z" fill="white"/>
<path d="M253.95 357.358H241.43V360.616H253.95V357.358Z" fill="white"/>
<path d="M253.95 337.99H241.43V341.248H253.95V337.99Z" fill="white"/>
<path d="M253.25 341.34H241.42V357.351H253.25V341.34Z" fill="#4F5164"/>
<g opacity="0.3">
<path d="M241.42 341.34V343.327H251.26V357.358H253.25V341.34H241.42Z" fill="black"/>
</g>
<path d="M226.67 371.045H214.84V387.056H226.67V371.045Z" fill="#4F5164"/>
<g opacity="0.3">
<path d="M214.84 371.045V373.031H224.67V387.056H226.67V371.045H214.84Z" fill="black"/>
</g>
<path d="M227.36 387.056H214.84V390.314H227.36V387.056Z" fill="white"/>
<path d="M227.36 367.694H214.84V370.952H227.36V367.694Z" fill="white"/>
<path d="M253.95 387.056H241.43V390.314H253.95V387.056Z" fill="white"/>
<path d="M253.95 367.694H241.43V370.952H253.95V367.694Z" fill="white"/>
<path d="M253.25 371.045H241.42V387.056H253.25V371.045Z" fill="#4F5164"/>
<g opacity="0.3">
<path d="M241.42 371.045V373.031H251.26V387.056H253.25V371.045H241.42Z" fill="black"/>
</g>
<path d="M226.67 401.796H214.84V417.807H226.67V401.796Z" fill="#4F5164"/>
<g opacity="0.3">
<path d="M214.84 401.796V403.782H224.67V417.813H226.67V401.796H214.84Z" fill="black"/>
</g>
<path d="M227.36 417.813H214.84V421.071H227.36V417.813Z" fill="white"/>
<path d="M227.36 398.445H214.84V401.703H227.36V398.445Z" fill="white"/>
<path d="M253.95 417.813H241.43V421.071H253.95V417.813Z" fill="white"/>
<path d="M253.95 398.445H241.43V401.703H253.95V398.445Z" fill="white"/>
<path d="M253.25 401.796H241.42V417.807H253.25V401.796Z" fill="#4F5164"/>
<g opacity="0.3">
<path d="M241.42 401.796V403.782H251.26V417.813H253.25V401.796H241.42Z" fill="black"/>
</g>
<path d="M226.67 432.341H214.84V448.352H226.67V432.341Z" fill="#4F5164"/>
<g opacity="0.3">
<path d="M214.84 432.341V434.321H224.67V448.352H226.67V432.341H214.84Z" fill="black"/>
</g>
<path d="M227.36 448.352H214.84V451.61H227.36V448.352Z" fill="white"/>
<path d="M227.36 428.991H214.84V432.249H227.36V428.991Z" fill="white"/>
<path d="M253.95 448.352H241.43V451.61H253.95V448.352Z" fill="white"/>
<path d="M253.95 428.991H241.43V432.249H253.95V428.991Z" fill="white"/>
<path d="M253.25 432.341H241.42V448.352H253.25V432.341Z" fill="#4F5164"/>
<g opacity="0.3">
<path d="M241.42 432.341V434.321H251.26V448.352H253.25V432.341H241.42Z" fill="black"/>
</g>
<path d="M198.63 340.817H194.49V356.828H198.63V340.817Z" fill="#4F5164"/>
<path d="M199.22 356.828H191.65V359.239H199.22V356.828Z" fill="white"/>
<path d="M187.53 340.817H183.39V356.828H187.53V340.817Z" fill="#4F5164"/>
<path d="M188.12 356.828H180.55V359.239H188.12V356.828Z" fill="white"/>
<path d="M198.63 371.323H194.49V387.334H198.63V371.323Z" fill="#4F5164"/>
<path d="M199.22 387.341H191.65V389.751H199.22V387.341Z" fill="white"/>
<path d="M187.53 371.323H183.39V387.334H187.53V371.323Z" fill="#4F5164"/>
<path d="M188.12 387.341H180.55V389.751H188.12V387.341Z" fill="white"/>
<path d="M198.63 401.835H194.49V417.847H198.63V401.835Z" fill="#4F5164"/>
<path d="M199.22 417.847H191.65V420.257H199.22V417.847Z" fill="white"/>
<path d="M187.53 401.835H183.39V417.847H187.53V401.835Z" fill="#4F5164"/>
<path d="M188.12 417.847H180.55V420.257H188.12V417.847Z" fill="white"/>
<path d="M226.67 457.854H214.84V483.129H226.67V457.854Z" fill="#4F5164"/>
<g opacity="0.3">
<path d="M214.84 457.854V459.748H224.67V483.122H226.67V457.854H214.84Z" fill="black"/>
</g>
<path d="M253.6 457.854H241.77V483.129H253.6V457.854Z" fill="#4F5164"/>
<g opacity="0.3">
<path d="M241.77 457.854V459.748H251.61V483.122H253.6V457.854H241.77Z" fill="black"/>
</g>
<path d="M198.63 432.341H194.49V448.352H198.63V432.341Z" fill="#4F5164"/>
<path d="M199.22 448.352H191.65V450.763H199.22V448.352Z" fill="white"/>
<path d="M187.53 432.341H183.39V448.352H187.53V432.341Z" fill="#4F5164"/>
<path d="M188.12 448.352H180.55V450.763H188.12V448.352Z" fill="white"/>
<path d="M198.63 459.152H194.49V475.163H198.63V459.152Z" fill="#4F5164"/>
<path d="M199.22 475.163H191.65V477.573H199.22V475.163Z" fill="white"/>
<path d="M187.53 459.152H183.39V475.163H187.53V459.152Z" fill="#4F5164"/>
<path d="M188.12 475.163H180.55V477.573H188.12V475.163Z" fill="white"/>
<g opacity="0.3">
<path d="M176.96 483.122H207.18V326.091H176.96V483.122Z" fill="black"/>
</g>
<path d="M245.52 398.68C243.81 427.694 218.89 449.838 189.87 448.125C183.61 447.758 177.67 446.3 172.22 443.964C165.95 447.783 158.51 449.801 150.63 449.334C144.01 448.941 137.9 446.854 132.69 443.509C121.7 436.458 114.73 423.832 115.56 409.867C115.61 408.97 115.71 408.079 115.82 407.195C113.22 405.575 110.78 403.738 108.52 401.701C96.99 391.367 90.11 376.062 91.09 359.412C92.11 342.239 101.25 327.489 114.55 318.644C112.89 313.935 112.12 308.821 112.44 303.532C113.7 282.136 132.07 265.81 153.46 267.068C166.96 267.865 178.43 275.471 184.75 286.334C189.37 284.765 194.35 284.036 199.53 284.341C220.92 285.605 237.25 303.968 235.99 325.365C235.78 328.947 235.08 332.391 233.98 335.63C233.8 336.147 233.61 336.67 233.41 337.175C231.13 343.043 227.47 348.188 222.84 352.243C231.6 358.291 238.4 366.912 242.2 376.947C244.76 383.674 245.96 391.031 245.51 398.68H245.52Z" fill="#1D6D3E"/>
<path d="M245.52 398.686C243.81 427.7 218.89 449.844 189.87 448.131C183.61 447.764 177.67 446.306 172.22 443.97C165.95 447.789 158.51 449.807 150.63 449.34C144.01 448.947 137.9 446.861 132.69 443.516C147.17 447.783 162.84 442.756 172.38 434.004C190.85 441.784 236.87 431.4 242.21 376.959H242.22C244.77 383.687 245.97 391.043 245.52 398.692V398.686Z" fill="#0B4C22"/>
<path d="M233.98 335.63C233.81 336.147 233.61 336.67 233.42 337.175C231.14 343.043 227.47 348.188 222.85 352.243L205.15 354.853L233.98 335.63Z" fill="#0B4C22"/>
<path d="M130.23 396.275L115.82 407.195C113.22 405.575 110.78 403.738 108.52 401.701L130.23 396.282V396.275Z" fill="#0B4C22"/>
<path d="M107.5 412.452C102.63 413.037 98.21 409.568 97.62 404.697C97.55 404.174 97.5299 403.657 97.5699 403.152C98.0499 403.009 98.5499 402.903 99.0699 402.841C103.94 402.249 108.37 405.725 108.96 410.596C109.02 411.119 109.04 411.63 109.01 412.134C108.53 412.284 108.02 412.39 107.51 412.452H107.5Z" fill="#1D6D3E"/>
<path d="M183.86 281.582C183.33 278.772 185.19 276.069 188.01 275.552C188.31 275.496 188.61 275.465 188.9 275.465C189 275.739 189.08 276.025 189.14 276.324C189.66 279.14 187.81 281.837 185 282.36C184.7 282.416 184.4 282.447 184.11 282.447C184 282.173 183.92 281.881 183.86 281.582Z" fill="#28D16C"/>
<path d="M177.85 483.175L162.22 482.254L176.68 337.91L177.85 483.175Z" fill="#353535"/>
<path d="M176.92 379.389L227.33 362.197L175.7 389.349L176.92 379.389Z" fill="#353535"/>
<path d="M172.71 427.239L128.89 389.897L173.34 416.432L172.71 427.239Z" fill="#353535"/>
<path d="M175.69 362.085L147.21 337.804L176.11 355.052L175.69 362.085Z" fill="#353535"/>
<path d="M124 277C144.46 319.846 205.21 329.044 234.9 328.587C235.87 328.572 236.29 329.776 235.48 330.317C205.14 350.614 127.59 350.978 100.24 334.251C99.35 333.708 98.26 334.646 98.78 335.546C118.75 370.118 206.18 387.813 244.21 385.439C245.29 385.371 245.74 386.877 244.79 387.404C199.65 412.493 140.46 423.399 118 425.5" stroke="#FF7171" stroke-width="2" stroke-linecap="round"/>
<path d="M186 328C187.1 328 188 327.105 188 326C188 324.895 187.1 324 186 324C184.9 324 184 324.895 184 326C184 327.105 184.9 328 186 328Z" fill="white"/>
<path d="M135.5 311C137.99 311 140 308.985 140 306.5C140 304.015 137.99 302 135.5 302C133.01 302 131 304.015 131 306.5C131 308.985 133.01 311 135.5 311Z" fill="#F2BB45"/>
<path d="M181.5 357C184.54 357 187 354.538 187 351.5C187 348.462 184.54 346 181.5 346C178.46 346 176 348.462 176 351.5C176 354.538 178.46 357 181.5 357Z" fill="#F2BB45"/>
<path d="M122 367C123.66 367 125 365.657 125 364C125 362.343 123.66 361 122 361C120.34 361 119 362.343 119 364C119 365.657 120.34 367 122 367Z" fill="white"/>
<path d="M198 394C200.76 394 203 391.761 203 389C203 386.239 200.76 384 198 384C195.24 384 193 386.239 193 389C193 391.761 195.24 394 198 394Z" fill="white"/>
<path d="M160 429C162.76 429 165 426.761 165 424C165 421.239 162.76 419 160 419C157.24 419 155 421.239 155 424C155 426.761 157.24 429 160 429Z" fill="#F2BB45"/>
<path d="M135 304V293" stroke="#141414" stroke-linecap="round"/>
<path d="M181 349V342" stroke="#141414" stroke-linecap="round"/>
<path d="M186 324V320" stroke="#141414" stroke-linecap="round"/>
<path d="M122 363V356" stroke="#141414" stroke-linecap="round"/>
<path d="M198 387V380" stroke="#141414" stroke-linecap="round"/>
<path d="M160 422V415" stroke="#141414" stroke-linecap="round"/>
<path d="M543.52 450.041C542.34 446.909 540.22 444.22 537.48 442.333C538.93 441.069 540.07 439.46 540.78 437.632C540.84 437.473 540.9 437.314 540.95 437.149C541.3 436.142 541.52 435.063 541.58 433.95C541.97 427.276 536.88 421.548 530.21 421.151C528.6 421.058 527.04 421.283 525.6 421.773C523.63 418.383 520.05 416.012 515.84 415.761C509.17 415.37 503.44 420.462 503.04 427.137C502.94 428.785 503.18 430.381 503.7 431.851C499.54 434.612 496.7 439.215 496.38 444.571C496.07 449.769 498.22 454.537 501.81 457.762C502.52 458.397 503.28 458.973 504.09 459.477C504.06 459.755 504.03 460.026 504.01 460.311C503.76 464.668 505.93 468.608 509.36 470.806C510.98 471.852 512.89 472.501 514.95 472.621C516.61 472.72 518.2 472.462 519.67 471.925L518.57 482.891L523.44 483.175L523.35 471.548C524.58 471.925 525.86 472.164 527.2 472.243C530.73 472.448 534.07 471.528 536.87 469.78C541.22 467.058 544.23 462.337 544.56 456.821C544.7 454.438 544.33 452.14 543.53 450.041H543.52Z" fill="#BDCFC4"/>
<path d="M532.54 458.119C532.38 458.139 532.22 458.172 532.07 458.219C532.06 458.377 532.07 458.536 532.08 458.702C532.27 460.218 533.65 461.304 535.17 461.119C535.33 461.099 535.49 461.066 535.64 461.019C535.65 460.861 535.64 460.702 535.63 460.543C535.44 459.026 534.06 457.94 532.54 458.126V458.119Z" fill="#BDCFC4"/>
<path d="M542.21 420.561C542.3 420.561 542.39 420.555 542.49 420.535C543.36 420.369 543.94 419.528 543.78 418.654C543.76 418.562 543.74 418.469 543.7 418.383C543.61 418.383 543.52 418.39 543.43 418.409C542.55 418.575 541.97 419.416 542.13 420.29C542.15 420.383 542.17 420.475 542.21 420.561Z" fill="#BDCFC4"/>
<path d="M805.05 444.916C804.2 442.658 802.67 440.718 800.7 439.354C801.73 438.44 802.56 437.281 803.07 435.963C803.12 435.851 803.16 435.732 803.2 435.612C803.45 434.884 803.6 434.109 803.65 433.301C803.93 428.481 800.26 424.349 795.44 424.064C794.27 423.998 793.15 424.157 792.11 424.515C790.69 422.065 788.11 420.356 785.07 420.177C780.25 419.893 776.11 423.568 775.83 428.388C775.76 429.58 775.93 430.732 776.31 431.792C773.31 433.785 771.25 437.102 771.02 440.969C770.8 444.717 772.34 448.167 774.94 450.491C775.45 450.948 776 451.365 776.58 451.729C776.56 451.928 776.54 452.127 776.52 452.332C776.34 455.477 777.91 458.318 780.38 459.907C781.55 460.662 782.93 461.132 784.42 461.218C785.62 461.291 786.76 461.106 787.82 460.715L787.03 482.97L790.54 483.175L790.48 460.443C791.36 460.715 792.29 460.887 793.25 460.947C795.8 461.099 798.22 460.43 800.23 459.165C803.37 457.199 805.55 453.795 805.78 449.809C805.88 448.087 805.61 446.432 805.04 444.916H805.05Z" fill="#BDCFC4"/>
<path d="M556.01 431.017C557.36 428.209 559.54 425.885 562.23 424.356C561 423.064 560.07 421.488 559.55 419.734C559.5 419.581 559.46 419.429 559.42 419.27C559.19 418.31 559.07 417.29 559.1 416.251C559.27 410.033 564.45 405.126 570.67 405.299C572.17 405.338 573.6 405.676 574.89 406.245C576.99 403.259 580.5 401.352 584.42 401.458C590.64 401.63 595.55 406.808 595.38 413.026C595.34 414.562 594.99 416.026 594.39 417.343C598.02 420.23 600.29 424.726 600.15 429.719C600.02 434.56 597.65 438.811 594.06 441.512C593.36 442.042 592.6 442.519 591.81 442.916C591.82 443.174 591.83 443.432 591.81 443.697C591.7 447.756 589.37 451.233 586.02 452.994C584.43 453.828 582.61 454.285 580.69 454.232C579.14 454.193 577.69 453.828 576.38 453.206L575.95 482.911L571.4 482.785L572.99 452.564C571.82 452.815 570.61 452.934 569.36 452.901C566.07 452.809 563.05 451.683 560.6 449.842C556.79 446.968 554.37 442.353 554.51 437.215C554.57 434.99 555.1 432.897 556.01 431.01V431.017Z" fill="#BDCFC4"/>
<path d="M616.28 442.082C616.43 442.115 616.57 442.154 616.7 442.207C616.7 442.353 616.68 442.505 616.65 442.651C616.36 444.042 615 444.936 613.6 444.644C613.45 444.611 613.31 444.571 613.17 444.512C613.17 444.366 613.19 444.22 613.23 444.068C613.52 442.678 614.88 441.784 616.28 442.075V442.082Z" fill="#BDCFC4"/>
<path d="M562.78 446.439C561.84 444.465 560.3 442.83 558.41 441.757C559.28 440.85 559.94 439.738 560.29 438.506C560.33 438.4 560.35 438.294 560.38 438.182C560.55 437.506 560.63 436.791 560.6 436.063C560.49 431.692 556.84 428.243 552.47 428.362C551.41 428.388 550.41 428.627 549.51 429.024C548.03 426.925 545.57 425.581 542.81 425.66C538.44 425.779 534.99 429.421 535.11 433.791C535.14 434.871 535.39 435.897 535.8 436.824C533.25 438.857 531.66 442.015 531.75 445.525C531.84 448.928 533.51 451.915 536.04 453.815C536.53 454.193 537.06 454.524 537.62 454.802C537.61 454.981 537.61 455.166 537.61 455.351C537.69 458.205 539.33 460.649 541.69 461.887C542.8 462.476 544.08 462.794 545.43 462.754C546.52 462.728 547.55 462.47 548.47 462.033L548.76 482.917L551.96 482.831L550.84 461.582C551.66 461.755 552.51 461.841 553.39 461.821C555.7 461.754 557.83 460.967 559.55 459.669C562.23 457.649 563.93 454.404 563.83 450.789C563.79 449.226 563.41 447.75 562.78 446.432V446.439Z" fill="#BDCFC4"/>
<path d="M560.7 462.829C560.6 462.849 560.5 462.882 560.4 462.921C560.4 463.027 560.42 463.127 560.44 463.233C560.65 464.213 561.61 464.842 562.59 464.636C562.7 464.617 562.79 464.583 562.89 464.544C562.89 464.438 562.87 464.338 562.85 464.232C562.64 463.252 561.68 462.623 560.7 462.829Z" fill="#BDCFC4"/>
<path d="M637.08 450.041C635.89 446.909 633.77 444.22 631.04 442.333C632.48 441.069 633.62 439.46 634.33 437.632C634.39 437.473 634.45 437.314 634.51 437.149C634.85 436.142 635.07 435.063 635.14 433.95C635.53 427.276 630.43 421.548 623.76 421.151C622.15 421.058 620.59 421.283 619.16 421.773C617.18 418.383 613.61 416.012 609.39 415.761C602.72 415.37 596.99 420.462 596.59 427.137C596.49 428.785 596.73 430.381 597.25 431.851C593.1 434.612 590.25 439.215 589.93 444.571C589.63 449.769 591.77 454.537 595.37 457.762C596.07 458.397 596.84 458.973 597.65 459.477C597.61 459.755 597.58 460.026 597.57 460.311C597.31 464.668 599.48 468.608 602.91 470.806C604.53 471.852 606.44 472.501 608.51 472.621C610.16 472.72 611.76 472.462 613.22 471.925L612.12 482.891L617 483.175L616.9 471.548C618.13 471.925 619.41 472.164 620.75 472.243C624.29 472.448 627.63 471.528 630.42 469.78C634.77 467.058 637.78 462.337 638.12 456.821C638.25 454.438 637.88 452.14 637.08 450.041Z" fill="#BDCFC4"/>
<path d="M640.27 420.561C640.36 420.561 640.45 420.555 640.54 420.535C641.42 420.369 642 419.528 641.84 418.654C641.82 418.562 641.8 418.469 641.76 418.383C641.67 418.383 641.58 418.39 641.49 418.409C640.61 418.575 640.03 419.416 640.19 420.29C640.21 420.383 640.23 420.475 640.27 420.561Z" fill="#BDCFC4"/>
<path d="M1315.45 373.394C1316.04 398.787 1295.93 419.845 1270.54 420.436C1268.48 420.483 1266.45 420.395 1264.45 420.173C1256.46 430.199 1244.25 436.751 1230.43 437.072C1209.08 437.57 1190.87 423.045 1185.92 403.163C1185.12 399.998 1184.67 396.705 1184.59 393.318C1184.35 382.625 1187.87 372.722 1193.94 364.877C1190.98 362.947 1188.39 360.479 1186.34 357.595C1183.23 353.208 1181.34 347.873 1181.2 342.088C1180.89 328.646 1190.13 317.216 1202.72 314.262C1202.82 292.431 1220.28 274.52 1242.25 274.011C1264.6 273.496 1283.13 291.191 1283.65 313.536C1283.69 315.104 1283.64 316.66 1283.49 318.187C1283.12 322.275 1282.14 326.195 1280.64 329.845C1291.79 332.623 1301.37 339.496 1307.64 348.797C1312.39 355.84 1315.25 364.281 1315.46 373.394H1315.45Z" fill="#28D16C"/>
<path d="M1292.82 320.667C1292.89 323.779 1290.43 326.358 1287.32 326.429C1286.99 326.434 1286.66 326.417 1286.35 326.364C1286.28 326.048 1286.25 325.727 1286.24 325.399C1286.17 322.287 1288.63 319.707 1291.74 319.637C1292.07 319.631 1292.39 319.649 1292.71 319.702C1292.77 320.017 1292.81 320.339 1292.82 320.673V320.667Z" fill="#1DCF65"/>
<path d="M1226.19 356.384C1223.26 357.419 1220.04 355.887 1219 352.956C1218.89 352.64 1218.81 352.324 1218.75 352.009C1219.03 351.851 1219.33 351.716 1219.64 351.605C1222.57 350.564 1225.79 352.102 1226.83 355.033C1226.94 355.349 1227.02 355.659 1227.07 355.974C1226.79 356.132 1226.49 356.267 1226.18 356.378L1226.19 356.384Z" fill="#DFDFDF"/>
<path d="M1262.83 312.518C1260.96 310.032 1261.45 306.505 1263.93 304.633C1264.2 304.434 1264.48 304.259 1264.76 304.118C1265 304.335 1265.21 304.581 1265.41 304.844C1267.29 307.33 1266.79 310.863 1264.31 312.735C1264.04 312.934 1263.77 313.109 1263.48 313.25C1263.25 313.033 1263.03 312.787 1262.83 312.524V312.518Z" fill="#DFDFDF"/>
<path d="M1278.29 377.132C1279.15 374.143 1282.27 372.418 1285.26 373.277C1285.58 373.371 1285.88 373.488 1286.17 373.628C1286.14 373.944 1286.08 374.266 1285.98 374.582C1285.12 377.577 1282 379.302 1279.02 378.443C1278.69 378.349 1278.39 378.232 1278.11 378.092C1278.14 377.776 1278.2 377.454 1278.3 377.132H1278.29Z" fill="#DFDFDF"/>
<path d="M1196.56 305.493C1199.63 305.979 1201.73 308.862 1201.24 311.933C1201.19 312.261 1201.12 312.583 1201.01 312.881C1200.69 312.881 1200.37 312.863 1200.04 312.811C1196.96 312.325 1194.87 309.442 1195.35 306.371C1195.4 306.043 1195.48 305.727 1195.58 305.423C1195.9 305.411 1196.23 305.435 1196.55 305.487L1196.56 305.493Z" fill="#247C48"/>
<path d="M1315.45 373.394C1316.04 398.787 1295.93 419.845 1270.54 420.436C1268.48 420.483 1266.45 420.395 1264.45 420.173C1256.46 430.199 1244.25 436.751 1230.43 437.072C1209.08 437.569 1190.87 423.045 1185.92 403.163C1192.85 416.622 1247.63 434.411 1265.67 399.103C1287.45 404.947 1317.76 385.632 1307.63 348.797C1312.38 355.84 1315.23 364.281 1315.44 373.394H1315.45Z" fill="#247C48"/>
<path d="M1283.49 318.187C1283.12 322.275 1282.14 326.195 1280.64 329.845L1264.72 334.284L1283.5 318.187H1283.49Z" fill="#247C48"/>
<path d="M1254.77 481.786L1241.35 482.096L1242.38 306.704L1254.77 481.786Z" fill="#353535"/>
<path d="M1242.82 403.145L1204.06 373.19L1243.56 411.715L1242.82 403.145Z" fill="#353535"/>
<path d="M1246.71 393.353L1281.48 347.692L1246.46 382.701L1246.71 393.353Z" fill="#353535"/>
<path d="M1242.62 340.005L1233.46 326.072L1242.84 335.454L1242.62 340.005Z" fill="#353535"/>
<path d="M1204.63 360.677L1193.95 364.877C1190.98 362.947 1188.4 360.479 1186.35 357.595L1204.63 360.683V360.677Z" fill="#247C48"/>
<path d="M1231.19 455.984C1231.28 456.14 1231.38 456.276 1231.47 456.39C1231.65 456.6 1231.97 456.725 1232.38 456.794C1234.01 457.075 1237.17 456.529 1239.73 457.32C1242.94 458.31 1249.47 460.438 1253.6 457.257C1257.73 454.074 1259.54 453.422 1259.35 452.607C1259.17 451.792 1258.48 450.159 1256.58 448.655C1256.79 447.841 1256.76 447.117 1256.59 446.517C1256.59 446.508 1256.58 446.5 1256.58 446.491C1256.15 445.039 1254.9 444.322 1254.37 444.821C1253.62 445.527 1250.71 448.802 1244.82 448.148C1238.92 447.493 1233.54 445.793 1232.36 447.062C1231.95 447.496 1231.61 447.918 1231.35 448.344C1231.32 448.404 1231.28 448.465 1231.25 448.525C1231.22 448.582 1231.19 448.64 1231.16 448.697C1231.16 448.706 1231.15 448.715 1231.15 448.725C1231.13 448.766 1231.11 448.805 1231.09 448.846C1231.08 448.87 1231.07 448.896 1231.06 448.92C1231.04 448.971 1231.02 449.022 1231 449.073C1230.8 449.663 1230.78 450.274 1231 450.94C1230.03 452.209 1230.45 454.715 1231.19 455.984Z" fill="#F2BB45"/>
<path d="M1251.67 450.899C1251.67 450.899 1254.45 450.201 1256.58 448.655C1256.79 447.841 1256.76 447.117 1256.59 446.517C1256.59 446.508 1256.58 446.5 1256.58 446.491C1256.42 448.037 1254.79 449.01 1251.67 450.899Z" fill="#956500"/>
<path d="M1230.99 450.859C1233.51 450.682 1235.53 451.813 1235.53 451.813C1234.12 450.179 1231.23 448.443 1231.23 448.443C1231.2 448.501 1231.17 448.559 1231.14 448.616C1231.14 448.625 1231.13 448.634 1231.13 448.644C1231.11 448.685 1231.09 448.724 1231.08 448.764C1231.06 448.789 1231.05 448.815 1231.04 448.838C1231.02 448.89 1231 448.941 1230.98 448.992C1230.78 449.582 1230.76 450.193 1230.99 450.859Z" fill="#956500"/>
<path d="M1226.3 458.319C1227.96 457.432 1231.32 458.302 1231.41 458.327V458.326C1231.76 457.709 1232.07 457.191 1232.38 456.794C1231.97 456.725 1231.65 456.6 1231.47 456.39C1231.38 456.276 1231.28 456.14 1231.19 455.985C1231.05 456.009 1230.92 456.036 1230.79 456.066C1230.68 456.09 1230.58 456.113 1230.47 456.143C1230.4 456.161 1230.33 456.183 1230.25 456.204C1230.2 456.22 1230.14 456.238 1230.09 456.255C1230.01 456.277 1229.94 456.301 1229.87 456.326C1229.77 456.36 1229.67 456.395 1229.58 456.432C1229.49 456.465 1229.41 456.497 1229.32 456.533C1229.3 456.544 1229.27 456.555 1229.24 456.568C1229.18 456.592 1229.12 456.619 1229.06 456.647C1228.94 456.697 1228.83 456.752 1228.71 456.809C1228.62 456.854 1228.53 456.901 1228.44 456.947C1228.38 456.98 1228.32 457.012 1228.25 457.046C1228.2 457.075 1228.15 457.105 1228.09 457.136C1227.57 457.431 1227.06 457.766 1226.56 458.127C1226.47 458.189 1226.38 458.254 1226.3 458.319Z" fill="#956500"/>
<path d="M1199.83 460.234C1205.47 465.522 1208.47 465.424 1212.37 465.123C1213.32 465.049 1214.2 464.919 1215.03 464.74C1215.25 464.692 1215.46 464.642 1215.68 464.587C1215.83 464.547 1215.99 464.505 1216.14 464.462C1216.22 464.439 1216.29 464.417 1216.37 464.395C1216.75 464.283 1217.12 464.16 1217.47 464.029C1217.68 463.949 1217.89 463.867 1218.1 463.782C1218.17 463.754 1218.23 463.725 1218.3 463.696C1218.44 463.638 1218.57 463.579 1218.7 463.52C1218.77 463.489 1218.83 463.458 1218.9 463.427C1218.96 463.397 1219.03 463.366 1219.09 463.335C1219.22 463.272 1219.34 463.209 1219.47 463.144C1219.53 463.111 1219.6 463.079 1219.66 463.046C1219.78 462.98 1219.9 462.914 1220.02 462.847C1220.08 462.813 1220.14 462.78 1220.2 462.745C1220.39 462.639 1220.57 462.531 1220.75 462.42C1220.86 462.352 1220.97 462.286 1221.07 462.219C1221.13 462.183 1221.19 462.147 1221.24 462.111C1221.35 462.039 1221.46 461.968 1221.57 461.895C1221.96 461.637 1222.33 461.373 1222.69 461.104C1222.74 461.068 1222.79 461.029 1222.84 460.991C1223.98 460.143 1225.02 459.271 1226.06 458.494C1226.14 458.435 1226.22 458.375 1226.3 458.319C1226.38 458.254 1226.47 458.189 1226.56 458.127C1227.06 457.766 1227.57 457.431 1228.09 457.136C1228.15 457.105 1228.2 457.075 1228.25 457.046C1228.32 457.012 1228.38 456.98 1228.44 456.947C1228.53 456.9 1228.62 456.853 1228.71 456.809C1228.83 456.752 1228.94 456.697 1229.06 456.647C1229.12 456.619 1229.18 456.592 1229.24 456.568C1229.27 456.555 1229.3 456.544 1229.32 456.533C1229.41 456.497 1229.49 456.465 1229.58 456.432C1229.67 456.395 1229.77 456.36 1229.87 456.326C1229.94 456.301 1230.01 456.277 1230.09 456.255C1230.14 456.238 1230.2 456.22 1230.25 456.204C1230.33 456.183 1230.4 456.161 1230.47 456.143C1230.58 456.115 1230.68 456.09 1230.79 456.066C1230.92 456.036 1231.05 456.009 1231.19 455.984C1230.45 454.715 1230.03 452.209 1231 450.94C1230.78 450.274 1230.8 449.663 1231 449.073C1231.02 449.022 1231.04 448.971 1231.06 448.92C1231.07 448.896 1231.08 448.87 1231.09 448.846C1231.11 448.805 1231.13 448.766 1231.15 448.725C1231.15 448.715 1231.16 448.706 1231.16 448.697C1231.19 448.64 1231.22 448.582 1231.25 448.525C1231.28 448.465 1231.32 448.404 1231.35 448.344C1221.11 449.742 1219.06 462.19 1204.66 450.628C1200.98 456.647 1199.83 460.234 1199.83 460.234Z" fill="#F2BB45"/>
<path d="M1216.94 473.557C1226.56 468.162 1229.51 461.739 1231.41 458.326C1231.32 458.301 1227.96 457.431 1226.3 458.318C1226.22 458.374 1226.14 458.434 1226.06 458.494C1225.02 459.271 1223.98 460.142 1222.84 460.991C1222.79 461.029 1222.74 461.067 1222.69 461.104C1222.33 461.373 1221.96 461.637 1221.57 461.894C1221.46 461.967 1221.35 462.039 1221.24 462.11C1221.19 462.146 1221.13 462.182 1221.07 462.219C1220.97 462.286 1220.86 462.352 1220.75 462.419C1220.57 462.53 1220.39 462.639 1220.2 462.744C1220.15 462.779 1220.08 462.813 1220.02 462.846C1219.9 462.914 1219.78 462.981 1219.66 463.046C1219.6 463.078 1219.53 463.111 1219.47 463.143C1219.35 463.21 1219.22 463.274 1219.09 463.334C1219.03 463.367 1218.96 463.398 1218.9 463.426C1218.83 463.458 1218.77 463.489 1218.7 463.519C1218.57 463.58 1218.44 463.639 1218.3 463.696C1218.24 463.724 1218.17 463.753 1218.1 463.782C1217.9 463.868 1217.69 463.95 1217.47 464.028C1217.12 464.16 1216.75 464.283 1216.37 464.395C1216.3 464.417 1216.22 464.439 1216.14 464.461C1215.99 464.506 1215.84 464.548 1215.68 464.587C1215.46 464.641 1215.25 464.692 1215.03 464.74C1216.18 466.9 1217.36 470.076 1216.94 473.557Z" fill="#956500"/>
</svg>
