<svg width="18" height="17" viewBox="0 0 18 17" fill="none" xmlns="http://www.w3.org/2000/svg">
<path d="M9.1001 7.53003C8.0901 7.53003 7.23002 7.17997 6.52002 6.46997C5.81002 5.75997 5.44995 4.91002 5.44995 3.90002C5.44995 2.90002 5.81002 2.04003 6.52002 1.34003C7.23002 0.630027 8.0901 0.280029 9.1001 0.280029C10.1101 0.280029 10.9699 0.630027 11.6799 1.34003C12.3899 2.04003 12.74 2.90002 12.74 3.90002C12.74 4.91002 12.3899 5.75997 11.6799 6.46997C10.9699 7.17997 10.1101 7.53003 9.1001 7.53003ZM0.600098 15.02V14.29C0.600098 13.79 0.740039 13.32 1.04004 12.88C1.33004 12.45 1.71996 12.11 2.20996 11.87C3.35996 11.32 4.5099 10.91 5.6499 10.64C6.7999 10.37 7.9501 10.23 9.1001 10.23C10.2501 10.23 11.39 10.37 12.54 10.64C13.69 10.91 14.84 11.32 15.98 11.87C16.47 12.11 16.8699 12.45 17.1599 12.88C17.4499 13.32 17.6001 13.79 17.6001 14.29V15.02C17.6001 15.38 17.48 15.67 17.23 15.91C16.99 16.16 16.6901 16.28 16.3401 16.28H1.86011C1.50011 16.28 1.19996 16.16 0.959961 15.91C0.719961 15.67 0.600098 15.38 0.600098 15.02Z" fill="#676767"/>
</svg>
