<svg width="24" height="24" viewBox="0 0 24 24" fill="none" xmlns="http://www.w3.org/2000/svg">
<path d="M7.20996 24C6.54996 24 5.98001 23.765 5.51001 23.295C5.04001 22.825 4.80005 22.26 4.80005 21.6C4.80005 20.94 5.04001 20.375 5.51001 19.905C5.98001 19.435 6.54996 19.2 7.20996 19.2C7.86996 19.2 8.43002 19.435 8.90002 19.905C9.37002 20.375 9.60999 20.94 9.60999 21.6C9.60999 22.26 9.37002 22.825 8.90002 23.295C8.43002 23.765 7.86996 24 7.20996 24ZM19.22 24C18.56 24 17.99 23.765 17.52 23.295C17.05 22.825 16.8199 22.26 16.8199 21.6C16.8199 20.94 17.05 20.375 17.52 19.905C17.99 19.435 18.56 19.2 19.22 19.2C19.88 19.2 20.44 19.435 20.91 19.905C21.38 20.375 21.62 20.94 21.62 21.6C21.62 22.26 21.38 22.825 20.91 23.295C20.44 23.765 19.88 24 19.22 24ZM5.04004 2.4H22.76C23.22 2.4 23.5701 2.605 23.8101 3.015C24.0501 3.425 24.06 3.84 23.84 4.26L19.58 11.94C19.36 12.34 19.0599 12.65 18.6899 12.87C18.3199 13.09 17.92 13.2 17.48 13.2H8.53003L7.20996 15.6H20.42C20.76 15.6 21.04 15.715 21.27 15.945C21.5 16.175 21.62 16.46 21.62 16.8C21.62 17.14 21.5 17.425 21.27 17.655C21.04 17.885 20.76 18 20.42 18H7.20996C6.30996 18 5.63003 17.605 5.16003 16.815C4.70003 16.025 4.67998 15.24 5.09998 14.46L6.72998 11.52L2.40002 2.4H1.19995C0.859951 2.4 0.579976 2.285 0.349976 2.055C0.119976 1.825 0 1.54 0 1.2C0 0.860001 0.119976 0.575001 0.349976 0.345001C0.579976 0.115001 0.859951 0 1.19995 0H3.15002C3.37002 0 3.58003 0.0600003 3.78003 0.18C3.98003 0.3 4.12998 0.469999 4.22998 0.689999L5.04004 2.4Z" fill="#363636"/>
</svg>
