<svg width="216" height="276" viewBox="0 0 216 276" fill="none" xmlns="http://www.w3.org/2000/svg">
<path d="M105.03 200.31C105.2 193.12 103.26 186.37 99.7701 180.65C95.1601 173.1 87.87 167.33 79.19 164.73C80.51 161.91 81.4302 158.85 81.8702 155.65C82.0402 154.45 82.14 153.23 82.17 152C82.58 134.37 68.63 119.75 51 119.33C33.68 118.93 19.2602 132.4 18.3702 149.6C8.35016 151.47 0.649945 160.14 0.399945 170.73C0.299945 175.29 1.58994 179.57 3.88994 183.14C5.39994 185.48 7.35015 187.53 9.61015 189.15C4.54015 195.11 1.39999 202.78 1.19999 211.22C1.13999 213.89 1.36993 216.5 1.87993 219.02C5.04993 234.87 18.87 246.98 35.7 247.37C38.75 247.45 41.7301 247.13 44.5801 246.46L42.6499 283.24L53.23 283.49L52.2701 243.67C56.4201 241.6 60.1002 238.75 63.1202 235.29C64.6802 235.54 66.28 235.68 67.91 235.72C87.93 236.19 104.55 220.34 105.01 200.31H105.03Z" fill="#1D8B48"/>
<path d="M218.8 132.39C219.58 166.22 192.8 194.26 158.99 195.04C156.24 195.1 153.54 194.99 150.89 194.7C140.25 208.06 123.98 216.77 105.58 217.21C77.15 217.87 52.89 198.52 46.3 172.04C45.24 167.83 44.65 163.44 44.54 158.93C44.21 144.68 48.8999 131.5 56.9899 121.05C53.0499 118.48 49.59 115.19 46.86 111.35C42.71 105.5 40.1899 98.3899 40.0099 90.6799C39.5899 72.7799 51.8998 57.5501 68.6598 53.6201C68.7998 24.5401 92.05 0.689957 121.3 0.00995673C151.07 -0.670043 175.76 22.8999 176.45 52.6599C176.5 54.7499 176.43 56.81 176.23 58.85C175.74 64.3 174.42 69.5098 172.42 74.3798C187.28 78.0798 200.03 87.2301 208.38 99.6201C214.71 109 218.51 120.24 218.79 132.38L218.8 132.39Z" fill="#5AD68C"/>
<path d="M188.66 62.1599C188.75 66.2999 185.48 69.7301 181.33 69.8301C180.89 69.8401 180.45 69.82 180.03 69.75C179.95 69.33 179.9 68.9 179.89 68.46C179.79 64.31 183.07 60.88 187.21 60.78C187.65 60.78 188.09 60.8001 188.51 60.8701C188.6 61.2801 188.65 61.7199 188.66 62.1599Z" fill="#1DCF65"/>
<path d="M99.9199 109.74C96.0199 111.12 91.7301 109.08 90.3501 105.17C90.2001 104.75 90.09 104.33 90.03 103.9C90.4 103.69 90.79 103.51 91.2 103.37C95.11 101.99 99.4 104.03 100.78 107.93C100.92 108.35 101.03 108.77 101.1 109.19C100.74 109.4 100.34 109.58 99.9199 109.73V109.74Z" fill="#247C48"/>
<path d="M148.72 51.3C146.22 47.99 146.88 43.29 150.19 40.79C150.55 40.53 150.91 40.2901 151.29 40.1101C151.61 40.3901 151.9 40.7201 152.16 41.0701C154.65 44.3801 153.99 49.0901 150.68 51.5801C150.33 51.8401 149.96 52.08 149.58 52.27C149.27 51.98 148.98 51.66 148.71 51.3H148.72Z" fill="#247C48"/>
<path d="M169.31 137.36C170.45 133.39 174.61 131.08 178.59 132.22C179.01 132.34 179.42 132.5 179.8 132.69C179.76 133.11 179.67 133.54 179.55 133.96C178.41 137.95 174.25 140.25 170.28 139.1C169.85 138.98 169.45 138.82 169.06 138.64C169.11 138.21 169.19 137.78 169.31 137.36Z" fill="#247C48"/>
<path d="M60.4599 41.9599C64.5499 42.5999 67.3499 46.44 66.6999 50.53C66.6299 50.97 66.5298 51.4 66.3898 51.79C65.9598 51.79 65.53 51.7699 65.1 51.6999C61 51.0599 58.2001 47.2098 58.8601 43.1298C58.9201 42.6798 59.0299 42.27 59.1699 41.86C59.5899 41.85 60.0299 41.8799 60.4699 41.9499L60.4599 41.9599Z" fill="#28D16C"/>
<path d="M218.8 132.39C219.58 166.22 192.8 194.26 158.99 195.04C156.24 195.1 153.54 194.99 150.89 194.7C140.25 208.06 123.98 216.77 105.58 217.21C77.1501 217.87 52.89 198.52 46.3 172.04C55.54 189.97 128.49 213.66 152.52 166.63C181.53 174.42 221.89 148.69 208.4 99.6299C214.73 109.01 218.53 120.25 218.81 132.39H218.8Z" fill="#208046"/>
<path d="M176.24 58.8501C175.75 64.3001 174.43 69.5099 172.43 74.3799L151.23 80.29L176.24 58.8501Z" fill="#208046"/>
<path d="M137.99 276.75L120.12 277.17L121.48 43.5701L137.99 276.75Z" fill="#353535"/>
<path d="M122.08 172.02L70.4399 132.12L123.06 183.43L122.08 172.02Z" fill="#353535"/>
<path d="M127.25 158.97L173.57 98.1499L126.92 144.78L127.25 158.97Z" fill="#353535"/>
<path d="M71.2 115.46L56.98 121.04C53.04 118.47 49.5901 115.18 46.8501 111.34L71.2 115.46Z" fill="#208046"/>
<path d="M121.8 87.9199L109.6 69.3601L122.1 81.8501L121.8 87.9199Z" fill="#353535"/>
</svg>
