<svg width="151" height="165" viewBox="0 0 151 165" fill="none" xmlns="http://www.w3.org/2000/svg">
<path d="M89.23 103.8C88.68 97.8698 86.43 92.5001 83.01 88.1201C78.49 82.3401 71.93 78.3 64.51 77C65.33 74.54 65.8 71.9398 65.85 69.2598C65.88 68.2498 65.85 67.2402 65.75 66.2202C64.4 51.6702 51.47 40.9701 36.9 42.3401C22.57 43.6701 11.97 56.1301 12.89 70.3701C4.80003 72.8701 -0.720019 80.7402 0.0899808 89.4902C0.449981 93.2502 1.92005 96.6401 4.16005 99.3701C5.62005 101.15 7.42998 102.65 9.45998 103.78C5.84998 109.17 3.98003 115.77 4.64003 122.74C4.85003 124.95 5.28998 127.07 5.95998 129.1C10.09 141.84 22.65 150.48 36.58 149.18C39.11 148.95 41.53 148.39 43.82 147.58L45.77 178.04L54.53 177.23L49.9201 144.56C53.1401 142.46 55.91 139.75 58.07 136.63C59.39 136.69 60.7101 136.65 62.0601 136.53C78.6201 134.99 90.8101 120.35 89.2901 103.82L89.23 103.8Z" fill="#1D8B48"/>
<path d="M144.82 120.13C138.8 142.84 115.5 156.37 92.79 150.35C87.89 149.05 83.4299 146.94 79.4799 144.22C73.8999 146.24 67.68 146.63 61.51 145C56.33 143.63 51.8299 140.99 48.2399 137.5C40.6699 130.15 37.1799 119.03 40.0799 108.09C40.2599 107.39 40.4899 106.7 40.7199 106.02C38.9299 104.32 37.2899 102.47 35.8199 100.49C28.3499 90.4503 25.3699 77.22 28.8299 64.19C32.3899 50.75 41.9999 40.53 53.9599 35.67C53.4099 31.67 53.6199 27.5002 54.7199 23.3602C59.1599 6.6002 76.3399 -3.36984 93.0899 1.07016C103.64 3.86016 111.51 11.7402 114.77 21.3602C118.67 20.8602 122.74 21.09 126.79 22.16C143.53 26.6 153.51 43.7801 149.07 60.5201C148.32 63.3301 147.23 65.9502 145.82 68.3302C145.6 68.7102 145.36 69.0903 145.13 69.4703C142.38 73.7503 138.65 77.2401 134.33 79.7101C140.3 85.91 144.3 93.8302 145.7 102.39C146.64 108.13 146.41 114.15 144.82 120.14V120.13Z" fill="#5AD68C"/>
<path d="M144.82 120.14C138.79 142.85 115.49 156.38 92.79 150.36C87.89 149.06 83.42 146.95 79.47 144.22C73.9 146.24 67.68 146.64 61.5 145.01C56.33 143.64 51.82 141 48.24 137.51C59.02 143.22 72.2299 141.75 81.2 136.35C94.57 145.49 132.7 144.67 145.69 102.39C146.63 108.13 146.4 114.16 144.81 120.14H144.82Z" fill="#2D8A52"/>
<path d="M145.82 68.3301C145.6 68.7101 145.36 69.0902 145.13 69.4702C142.38 73.7502 138.65 77.24 134.33 79.71L119.9 78.9302L145.83 68.3398L145.82 68.3301Z" fill="#2D8A52"/>
<path d="M53.88 99.6899L40.71 106.02C38.92 104.32 37.2701 102.47 35.8101 100.49L53.88 99.6802V99.6899Z" fill="#2D8A52"/>
<path d="M33.28 108.85C29.33 108.53 26.3799 105.07 26.6999 101.12C26.7299 100.7 26.8 100.28 26.91 99.8899C27.31 99.8499 27.73 99.8497 28.15 99.8797C32.1 100.2 35.0499 103.67 34.7399 107.62C34.6999 108.04 34.63 108.44 34.53 108.84C34.12 108.88 33.71 108.89 33.28 108.85Z" fill="#247C48"/>
<path d="M114.82 17.4499C114.86 15.1499 116.76 13.3 119.07 13.34C119.32 13.34 119.56 13.3698 119.79 13.4198C119.83 13.6598 119.84 13.8898 119.84 14.1398C119.81 16.4498 117.9 18.2899 115.59 18.2499C115.34 18.2499 115.1 18.2198 114.87 18.1698C114.83 17.9298 114.81 17.6899 114.82 17.4499Z" fill="#247C48"/>
<path d="M77.62 176.19L65.4 172.91L106.67 34.99L77.62 176.19Z" fill="#353535"/>
<path d="M84.95 119.15L127.65 113.64L82.38 126.84L84.95 119.15Z" fill="#353535"/>
<path d="M90.15 96.9102L61.45 60.2798L92.39 88.4502L90.15 96.9102Z" fill="#353535"/>
</svg>
