<svg width="43" height="46" viewBox="0 0 43 46" fill="none" xmlns="http://www.w3.org/2000/svg">
<path d="M3 1.5C3 0.67 2.33 0 1.5 0C0.67 0 0 0.67 0 1.5V44.5C0 45.33 0.67 46 1.5 46C2.33 46 3 45.33 3 44.5V1.5Z" fill="#28D16C"/>
<path d="M14.5801 5.56995C15.5801 14.4799 13.8401 21.41 5.37012 24.01C7.28012 22.03 7.42993 21.15 7.42993 21.15C4.20993 17.37 6.04997 14.68 8.96997 13.35C11.9 12.02 14.6101 9.04995 14.5801 5.56995Z" fill="#28D16C"/>
<path d="M13.29 22.7199C26.46 13.9199 34.5401 25.48 42.1201 36.54C35.1101 32.03 27.03 37.06 20.72 37.17C14.41 37.28 10.4701 31.0799 13.5801 26.9899C10.7901 26.1499 4.17996 24.39 2.96996 33.43C1.39996 31.77 1.34996 29.7699 2.21996 28.8199C3.08996 27.8699 9.54987 18.5299 32.3799 28.9799C26.7699 24.7999 19.59 22.1799 13.29 22.7199Z" fill="#28D16C"/>
</svg>
