<svg width="48" height="41" viewBox="0 0 48 41" fill="none" xmlns="http://www.w3.org/2000/svg">
<mask id="mask0_5_350" style="mask-type:luminance" maskUnits="userSpaceOnUse" x="0" y="0" width="48" height="41">
<path d="M48 0H0V41H48V0Z" fill="white"/>
</mask>
<g mask="url(#mask0_5_350)">
<path d="M47.97 5.52995C47.71 8.90995 45.6899 13.5099 42.3199 18.4299C41.4199 19.7299 40.42 21.0598 39.34 22.3998C38.46 23.4798 37.53 24.5698 36.54 25.6398C35.97 26.2698 35.38 26.8899 34.77 27.5099C34.5 27.7799 34.2299 28.06 33.9599 28.32C32.9099 29.36 31.85 30.35 30.79 31.28C26.64 34.91 22.5 37.67 18.89 39.3C15.08 41.03 11.86 41.4998 9.85997 40.4198C9.52997 40.2398 9.22996 40.0199 8.96996 39.7499C7.44996 38.2099 7.39002 35.4199 8.53002 31.9399C8.08002 34.0599 8.29002 35.7399 9.28002 36.7399C9.43002 36.8999 9.61003 37.0398 9.79003 37.1598C11.1 37.9898 13.16 37.8999 15.67 37.0099C19.08 35.8199 23.3 33.1799 27.59 29.4799C28.7 28.5299 29.81 27.4998 30.91 26.4098C31.15 26.1798 31.38 25.9399 31.62 25.6999C32.31 24.9999 32.98 24.29 33.62 23.58C34.63 22.46 35.5799 21.3299 36.4599 20.2099C36.8599 19.6999 37.24 19.1899 37.61 18.6799C38.33 17.6999 38.9899 16.74 39.5799 15.79C39.9499 15.21 40.29 14.64 40.6 14.07C43.45 9.03999 44.2999 4.81987 42.4599 2.94987C42.3899 2.86987 42.31 2.79991 42.23 2.73991C40.88 1.62991 38.55 1.73999 35.66 2.81999C34.74 3.03999 33.86 3.33989 33.06 3.71989C33.16 3.64989 33.27 3.59995 33.37 3.52995C39.37 -0.0300477 44.48 -1.10009 46.78 1.23991C47.74 2.21991 48.11 3.68995 47.97 5.52995Z" fill="#7D7D7D"/>
<path d="M32.86 14.6399C32.83 13.6499 32.79 12.76 32.73 12C32.58 10.49 32.51 9.04994 32.51 7.68994C32.51 7.57994 32.54 7.07994 32.62 6.18994C30.41 5.30994 28.2201 4.63994 26.0601 4.18994C25.9201 4.15994 25.77 4.13011 25.62 4.11011C23.51 3.69011 21.42 3.47998 19.35 3.47998C14.82 3.47998 11.4 4.27011 9.07996 5.86011C6.71996 7.48011 5.54004 9.62003 5.54004 12.28C5.54004 14.64 6.33994 16.4299 7.93994 17.6499C9.48994 18.8399 12.2901 19.9101 16.3101 20.8601C20.3801 21.8401 23.57 22.9299 25.87 24.1499C27.09 24.8099 28.07 25.49 28.79 26.22C29.78 25.14 30.72 24.06 31.59 22.97C30.9 22.2 29.94 21.47 28.71 20.78C26.23 19.41 22.66 18.21 17.99 17.21C14.58 16.47 12.31 15.7701 11.15 15.1101C9.91002 14.4001 9.30005 13.4101 9.30005 12.1101C9.30005 10.4201 10.13 9.10994 11.8 8.18994C13.5 7.29994 15.46 6.86011 17.67 6.86011C20.5 6.86011 23.29 7.7099 26.04 9.3999C28.62 11.0099 30.56 13.3301 31.83 16.3601C31.94 16.6001 32.04 16.8501 32.13 17.1001H32.89C32.89 16.2101 32.88 15.3899 32.86 14.6399ZM25.8199 28.5601C25.0999 28.0001 24.22 27.47 23.17 26.98C21.51 26.2 19.44 25.5199 16.96 24.8999C12.68 23.8299 9.63996 22.8901 7.82996 22.0801C5.97996 21.2701 4.55004 20.09 3.54004 18.54C2.45004 16.91 1.90002 15.1801 1.90002 13.3401C1.90002 12.5601 1.97 11.71 2.12 10.79C0.709995 12.7 0 14.7599 0 16.9299C0 19.7399 1.06996 22.0699 3.20996 23.9399C5.33996 25.7999 8.58994 27.2099 12.9399 28.1699C15.8299 28.7699 18.13 29.4 19.85 30.05C20.75 30.39 21.4899 30.7501 22.0699 31.1101C22.4399 31.3401 22.76 31.5801 23.04 31.8501C24.1 30.9201 25.16 29.9299 26.22 28.8899C26.09 28.7799 25.9599 28.6701 25.8199 28.5601Z" fill="#1D8B48"/>
</g>
</svg>
