<svg width="36" height="36" viewBox="0 0 36 36" fill="none" xmlns="http://www.w3.org/2000/svg">
<path d="M1.11011 35.78C0.560107 35.78 0.110107 35.33 0.110107 34.78V21.5601C0.110107 21.0101 0.560107 20.5601 1.11011 20.5601H7.07007C14.5701 20.5601 20.6599 14.46 20.6599 6.95996V1C20.6599 0.45 21.1099 0 21.6599 0H34.8899C35.4399 0 35.8899 0.45 35.8899 1V14.23C35.8899 14.78 35.4399 15.23 34.8899 15.23H28.9299C21.4299 15.23 15.3301 21.3201 15.3301 28.8201V34.78C15.3301 35.33 14.8801 35.78 14.3301 35.78H1.11011Z" fill="#7D7D7D"/>
<path d="M1.62012 16.8899C0.780117 16.8899 0.110107 16.2099 0.110107 15.3799V1.51001C0.110107 0.68001 0.790117 0 1.62012 0H15.48C16.32 0 17 0.68001 17 1.51001V6.33008C17 12.1601 12.2599 16.8899 6.43994 16.8899H1.62012Z" fill="#1D8B48"/>
<path d="M20.51 35.78C19.68 35.78 19 35.1 19 34.27V29.45C19 23.63 23.7301 18.8899 29.5601 18.8899H34.3799C35.2099 18.8899 35.8899 19.5699 35.8899 20.3999V34.27C35.8899 35.1 35.2099 35.78 34.3799 35.78H20.52H20.51Z" fill="#1D8B48"/>
</svg>
