<svg width="39" height="38" viewBox="0 0 39 38" fill="none" xmlns="http://www.w3.org/2000/svg">
<path d="M23.63 35.4099C25.53 35.4099 27.36 35.09 29.08 34.51C26.29 36.18 23.03 37.1399 19.54 37.1399C9.28004 37.1399 0.969971 28.8301 0.969971 18.5701C0.969971 8.31007 9.28004 0 19.54 0C23.03 0 26.29 0.959883 29.08 2.62988C27.36 2.04988 25.53 1.72998 23.63 1.72998C14.32 1.72998 6.79004 9.27007 6.79004 18.5701C6.79004 27.8701 14.32 35.4099 23.63 35.4099Z" fill="#7D7D7D"/>
<path d="M38.5399 18.5701C38.5399 21.2701 37.8199 23.8 36.5599 25.99C33.9899 30.47 29.1599 33.49 23.6299 33.49C20.7899 33.49 18.1399 32.6901 15.8799 31.3201C17.4199 31.9201 19.0898 32.25 20.8398 32.25C28.3898 32.25 34.5199 26.1301 34.5199 18.5701C34.5199 11.0101 28.3898 4.88989 20.8398 4.88989C19.0898 4.88989 17.4199 5.22007 15.8799 5.82007C18.1399 4.44007 20.7899 3.6499 23.6299 3.6499C29.1499 3.6499 33.9799 6.65988 36.5499 11.1299C36.5599 11.1299 36.5599 11.1399 36.5599 11.1399C37.8199 13.3299 38.5399 15.8701 38.5399 18.5701Z" fill="#1D8B48"/>
<path d="M23.3999 22.0801H17.3499L16.3099 25.03H13.8398L19.0099 10.5601H21.7599L26.9299 25.03H24.4398L23.3999 22.0801ZM22.7299 20.1399L20.3799 13.4299L18.0099 20.1399H22.7299Z" fill="#7D7D7D"/>
</svg>
