<svg width="42" height="43" viewBox="0 0 42 43" fill="none" xmlns="http://www.w3.org/2000/svg">
<path d="M42 21.5C42 33.35 32.58 43 21 43C18.44 43 15.99 42.5299 13.73 41.6699C13.4 41.5499 13.08 41.42 12.77 41.28C12.47 41.15 12.18 41.0101 11.89 40.8701C10.79 40.3301 9.75003 39.7 8.78003 38.98L13.11 12.8601H29.8199L29.04 17.23H17.8L16.5601 24.5H25.17L24.4301 28.78H15.78L14.51 36.77C16.5 37.66 18.69 38.1599 21 38.1599C29.97 38.1599 37.27 30.68 37.27 21.5C37.27 12.32 29.97 4.84009 21 4.84009C12.03 4.84009 4.72998 12.31 4.72998 21.5C4.72998 24.19 5.34997 26.73 6.46997 28.98L4.83997 35.22C1.81997 31.49 0 26.71 0 21.5C0 9.64 9.42 0 21 0C32.58 0 42 9.64 42 21.5Z" fill="#7D7D7D"/>
</svg>
