<svg width="36" height="37" viewBox="0 0 36 37" fill="none" xmlns="http://www.w3.org/2000/svg">
<path d="M8.92993 30.3899L11.3201 20.55H1.45996C2.56996 24.71 5.29993 28.2299 8.92993 30.3899Z" fill="#7D7D7D"/>
<path d="M36 19.6399H22.01L19.03 23.1699L21.6399 12.1399H33.3C31.43 5.14989 25.0099 0 17.3799 0C8.28988 0 0.919922 7.3201 0.919922 16.3501C0.919922 17.4101 1.01996 18.4399 1.20996 19.4399L2.75 13.6599H20.1899L18.6599 20.55H18.6201L15.8601 32.6399C15.8601 32.6399 15.8799 32.6399 15.8899 32.6399H15.8601L15.29 35.1699H15.27L14.9099 36.6799L19.27 32.6001C25.77 31.8601 31.1101 27.3799 33.0601 21.3799L36 19.6399Z" fill="#1D8B48"/>
</svg>
